<svg width="300" height="300" viewBox="0 0 300 300" fill="none" xmlns="http://www.w3.org/2000/svg">
<g clip-path="url(#clip0_105_215)">
<rect x="0.5" y="0.5" width="299" height="299" rx="149.5" fill="url(#paint0_linear_105_215)"/>
<rect x="0.5" y="0.5" width="299" height="299" rx="149.5" fill="url(#paint1_linear_105_215)"/>
<rect x="0.5" y="0.5" width="299" height="299" rx="149.5" stroke="black"/>
<rect x="29.2969" y="29.2969" width="241.406" height="241.406" rx="120.703" fill="url(#paint2_linear_105_215)"/>
<path d="M83.3305 216.8C78.6638 216.8 75.0638 215.533 72.5305 213C70.1305 210.333 68.9305 206.6 68.9305 201.8V87.8C68.9305 82.7333 70.1305 78.8667 72.5305 76.2C75.0638 73.5333 78.3971 72.2 82.5305 72.2C86.1305 72.2 88.8638 72.9333 90.7305 74.4C92.7305 75.7333 94.9971 78 97.5305 81.2L167.73 170.6H162.33V87C162.33 82.3333 163.53 78.7333 165.93 76.2C168.464 73.5333 172.064 72.2 176.73 72.2C181.397 72.2 184.93 73.5333 187.33 76.2C189.864 78.7333 191.13 82.3333 191.13 87V202.4C191.13 206.8 189.997 210.333 187.73 213C185.464 215.533 182.397 216.8 178.53 216.8C174.797 216.8 171.797 216.067 169.53 214.6C167.397 213.133 165.064 210.8 162.53 207.6L92.5305 118.2H97.7305V201.8C97.7305 206.6 96.5305 210.333 94.1305 213C91.7305 215.533 88.1305 216.8 83.3305 216.8ZM231.516 216C226.183 216 221.916 214.4 218.716 211.2C215.65 208 214.116 203.867 214.116 198.8C214.116 193.867 215.65 189.867 218.716 186.8C221.916 183.6 226.183 182 231.516 182C236.85 182 240.983 183.6 243.916 186.8C246.983 189.867 248.516 193.867 248.516 198.8C248.516 203.867 246.983 208 243.916 211.2C240.983 214.4 236.85 216 231.516 216Z" fill="url(#paint3_linear_105_215)"/>
</g>
<defs>
<linearGradient id="paint0_linear_105_215" x1="300" y1="150.37" x2="8.5185" y2="150.37" gradientUnits="userSpaceOnUse">
<stop stop-color="#5A56E9"/>
<stop offset="1" stop-color="#BE7BF1"/>
</linearGradient>
<linearGradient id="paint1_linear_105_215" x1="300" y1="150.37" x2="8.5185" y2="150.37" gradientUnits="userSpaceOnUse">
<stop stop-color="#5A56E9"/>
<stop offset="0.695976" stop-color="#BE7BF1" stop-opacity="0.63"/>
<stop offset="1" stop-color="#BE7BF1"/>
</linearGradient>
<linearGradient id="paint2_linear_105_215" x1="150" y1="29.2969" x2="150" y2="270.703" gradientUnits="userSpaceOnUse">
<stop stop-color="#CB1EDC"/>
<stop offset="0.238368" stop-color="#B119CA"/>
<stop offset="1" stop-color="#5D088F"/>
</linearGradient>
<linearGradient id="paint3_linear_105_215" x1="156" y1="81" x2="156" y2="218" gradientUnits="userSpaceOnUse">
<stop stop-color="white"/>
<stop offset="0.9375" stop-color="#08E0FE"/>
</linearGradient>
<clipPath id="clip0_105_215">
<rect width="300" height="300" fill="white"/>
</clipPath>
</defs>
</svg>
