<svg width="50" height="50" viewBox="0 0 50 50" fill="none" xmlns="http://www.w3.org/2000/svg">
<rect x="0.5" y="0.5" width="49" height="49" rx="24.5" fill="white"/>
<path d="M24.5 3L24.1764 4.00031V33.1005L24.5 33.3901L38.9871 25.4099L24.5 3Z" fill="#343434"/>
<path d="M24.5 3L10 25.4099L24.5 33.3901V19.274V3Z" fill="#8C8C8C"/>
<path d="M24.4999 35.9459L24.3192 36.1504V46.5179L24.4999 47L38.9999 27.9657L24.4999 35.9459Z" fill="#3C3C3B"/>
<path d="M24.5 47V35.9459L10 27.9657L24.5 47Z" fill="#8C8C8C"/>
<path d="M24.5 33.3901L38.9871 25.4099L24.5 19.274V33.3901Z" fill="#141414"/>
<path d="M10 25.4099L24.5 33.3901V19.274L10 25.4099Z" fill="#393939"/>
<rect x="0.5" y="0.5" width="49" height="49" rx="24.5" stroke="black"/>
</svg>
