<svg width="50" height="50" viewBox="0 0 50 50" fill="none" xmlns="http://www.w3.org/2000/svg">
<rect x="0.5" y="0.5" width="49" height="49" rx="24.5" fill="white"/>
<path d="M50 35.7958C28.042 39.048 12.3695 42.9541 12.1377 26.9209C12.1377 26.9209 12.6168 20.7084 19.3402 20.3172C19.3402 20.3172 19.5669 14.7996 24.7035 14.1749C27.465 13.8362 30.6026 17.0592 30.9426 20.4515C30.9426 20.4515 37.7382 19.0269 38.0318 26.5355C38.1349 29.1513 37.6145 33.6004 31.0611 33.4078C31.0611 33.4078 27.2692 32.8239 26.754 26.1794C25.6876 39.0422 42.0968 38.2948 42.3338 26.6114C42.4368 21.5609 39.5826 16.3644 33.1528 17.3395C29.6289 7.29096 20.247 7.869 16.7539 17.1877C11.7616 17.1877 7.94395 21.5434 8.00062 27.2303C8.19125 45.5349 30.6696 40.0172 50 35.7958Z" fill="#24339B"/>
<rect x="0.5" y="0.5" width="49" height="49" rx="24.5" stroke="black"/>
</svg>
