<svg width="50" height="50" viewBox="0 0 50 50" fill="none" xmlns="http://www.w3.org/2000/svg">
<rect x="0.5" y="0.5" width="49" height="49" rx="24.5" fill="white"/>
<path d="M29.6992 20.0055L25.5407 23.8745L21.6821 16.0911L23.6789 11.6146C24.1982 10.7057 25.0084 10.7161 25.5147 11.6146L29.6992 20.0055Z" fill="#FFA000"/>
<path d="M21.6822 16.0911L25.5407 23.8745L10 38.3311L21.6822 16.0911Z" fill="#F57F17"/>
<path d="M34.2472 14.0917C34.9898 13.3777 35.7584 13.6217 35.9545 14.6331L40 38.139L26.5911 46.1885C26.1237 46.4481 24.8773 46.5598 24.8773 46.5598C24.8773 46.5598 23.7426 46.4248 23.3103 46.1703L10 38.3311L34.2472 14.0917Z" fill="#FFCA28"/>
<path d="M21.6823 16.0911L10.0015 38.3311L15.2038 5.82798C15.3959 4.8153 15.9724 4.71792 16.4865 5.61116L21.6823 16.0911Z" fill="#FFA000"/>
<rect x="0.5" y="0.5" width="49" height="49" rx="24.5" stroke="black"/>
</svg>
