<svg width="50" height="50" viewBox="0 0 50 50" fill="none" xmlns="http://www.w3.org/2000/svg">
<rect x="0.5" y="0.5" width="49" height="49" rx="24.5" fill="white"/>
<path d="M43.168 33.9652C43.168 33.9652 37.6593 33.1486 34.749 32.9144C31.9539 32.6893 28.6412 32.5599 25.0877 32.5599C21.5343 32.5599 18.2216 32.6893 15.4278 32.9144C12.5162 33.1512 7.00879 34.2835 7.00879 34.2835V35.7069C7.00879 36.9725 15.1043 38 25.089 38C35.0738 38 43.1693 36.9725 43.1693 35.7069L43.168 33.9652ZM19.5286 15.0865C16.3077 16.2354 13.5211 18.3524 11.5507 21.1473C9.58032 23.9422 8.52269 27.2781 8.52281 30.6977V33.0451C10.8789 32.4841 13.2809 32.1376 15.6995 32.0099C15.6831 31.5561 15.6745 31.1023 15.6736 30.6486C15.542 25.2096 16.8733 19.8351 19.5286 15.0865Z" fill="#F0D50C"/>
<path d="M41.6576 30.6978C41.663 26.8523 40.3252 23.1257 37.8751 20.1617C38.9369 23.5535 39.466 27.0894 39.4435 30.6434C39.4435 31.2904 39.4271 31.9297 39.3943 32.5612C40.1484 32.6773 40.8954 32.8359 41.6317 33.0361L41.6576 30.6978Z" fill="#FFF04D"/>
<path d="M41.6576 30.6978C41.663 26.8523 40.3252 23.1257 37.8751 20.1617C38.9369 23.5535 39.466 27.0894 39.4435 30.6434C39.4435 31.2904 39.4271 31.9297 39.3943 32.5612C40.1484 32.6773 40.8954 32.8359 41.6317 33.0361L41.6576 30.6978Z" fill="#FFEA00"/>
<path d="M37.8754 20.1604C35.7083 17.5336 32.7851 15.6376 29.503 14.7298C26.2208 13.8221 22.7388 13.9466 19.5299 15.0865C16.8727 19.8331 15.5404 25.2066 15.6724 30.6447C15.6724 31.1019 15.6806 31.5557 15.697 32.006C18.1647 31.8158 21.0206 31.6981 24.0784 31.6761H25.0865C29.8705 31.6188 34.6522 31.9168 39.392 32.5676C39.424 31.9353 39.4408 31.296 39.4425 30.6499C39.4662 27.0934 38.9376 23.5547 37.8754 20.1604Z" fill="#FFF04D"/>
<path d="M31.7532 21.2565L30.7037 14.6931C30.6672 14.4565 30.5643 14.235 30.4069 14.0545C30.2496 13.874 30.0442 13.7419 29.8147 13.6734C26.755 12.7755 23.5018 12.7755 20.442 13.6734C20.2128 13.7421 20.0077 13.8743 19.8506 14.0548C19.6935 14.2353 19.5908 14.4566 19.5543 14.6931L18.5036 21.2565M25.0863 31.5363H24.0744C14.5594 31.6023 7.00479 32.6026 7.00479 33.8254V35.5944C6.98938 35.6982 7.0114 35.8042 7.06691 35.8933C7.55024 35.5304 8.1058 35.2753 8.6961 35.1453C10.1994 34.7798 11.7274 34.5242 13.2679 34.3806C13.6998 34.3323 14.137 34.3766 14.5505 34.5105C14.9639 34.6444 15.3441 34.8647 15.6658 35.157C16.8555 36.2459 18.4099 36.8498 20.0228 36.8496H30.1447C31.7575 36.8497 33.3119 36.2458 34.5017 35.157C34.8228 34.8631 35.2029 34.6412 35.6167 34.5059C36.0304 34.3707 36.4682 34.3253 36.9009 34.3728C38.441 34.5169 39.9685 34.7729 41.4714 35.1389C42.0303 35.2462 42.5582 35.477 43.0165 35.8144C43.0424 35.8402 43.0721 35.8635 43.0954 35.8868C43.1516 35.7975 43.174 35.691 43.1588 35.5866V33.8138C43.1588 32.5521 35.0698 31.5259 25.085 31.5259L25.0863 31.5363Z" fill="#FFF04D"/>
<path d="M28.8976 26.2774L25.0867 28.6183V31.667L28.8976 26.2774Z" fill="#6E6F70"/>
<path d="M25.0863 31.667V28.6183L21.2754 26.2774L25.0863 31.667ZM21.2728 24.8798L25.0863 27.0835V18.7111L21.2728 24.8798Z" fill="#0A0A0A"/>
<path d="M28.8976 24.8785L25.0867 18.7111V27.0822L28.9002 24.8824L28.8976 24.8785Z" fill="#6E6F70"/>
<rect x="0.5" y="0.5" width="49" height="49" rx="24.5" stroke="black"/>
</svg>
