<svg width="50" height="50" viewBox="0 0 50 50" fill="none" xmlns="http://www.w3.org/2000/svg">
<path d="M44.0891 50H5.91085C4.34516 49.9949 2.84542 49.4911 1.7383 48.5985C0.631175 47.7059 0.00637764 46.4967 0 45.2344V4.76563C0.00637764 3.50329 0.631175 2.29412 1.7383 1.4015C2.84542 0.508884 4.34516 0.00514197 5.91085 0L44.0891 0C45.6548 0.00514197 47.1546 0.508884 48.2617 1.4015C49.3688 2.29412 49.9936 3.50329 50 4.76563V45.2344C49.9936 46.4967 49.3688 47.7059 48.2617 48.5985C47.1546 49.4911 45.6548 49.9949 44.0891 50Z" fill="#6762A6"/>
<path d="M31.5064 42.8571V23.3286C31.5064 23.3286 33.1215 18.6506 11.5628 25.2497C11.5383 25.4227 11.5383 7.17167 11.5383 7.17167L18.5614 7.14285V18.6698C18.5614 18.6698 38.2603 12.5701 38.2603 23.2806V42.7419H31.4697L31.5064 42.8571ZM35.5196 14.1743H28.1784C30.8702 11.5807 33.3172 7.16207 33.3172 7.16207H41.0255C41.0255 7.16207 39.7041 10.0438 35.642 14.1743H35.5196ZM11.6607 42.8187V31.7048L18.7572 37.2762L11.6607 42.8475V42.8187Z" fill="white"/>
</svg>
