<svg width="50" height="50" viewBox="0 0 50 50" fill="none" xmlns="http://www.w3.org/2000/svg">
<g clip-path="url(#clip0_15_45)">
<rect width="50" height="50" rx="25" fill="white"/>
<path fill-rule="evenodd" clip-rule="evenodd" d="M0 25C0 11.1929 11.1929 0 25 0C38.8071 0 50 11.1929 50 25C50 38.8071 38.8071 50 25 50C11.1929 50 0 38.8071 0 25Z" fill="#E24628"/>
<path fill-rule="evenodd" clip-rule="evenodd" d="M16.3406 36.6674L25.1765 39.1667L34.0357 36.6636L36.0077 14.1667H14.3723L16.3406 36.6674ZM21.3583 21.5257L21.6052 24.3517H31.4766L30.7327 32.8236L25.1895 34.3904L19.6286 32.8236L19.2492 28.4898H21.9687L22.1616 30.6927L25.1775 31.5208L28.2016 30.689L28.5148 27.1111H19.1281L18.3975 18.7664H31.9649L31.7226 21.5257H21.3583Z" fill="white"/>
<path fill-rule="evenodd" clip-rule="evenodd" d="M50 25C50 38.8071 38.8071 50 25 50C19.8793 50 15.1181 48.4604 11.1543 45.819L39.8 4.84951C45.9859 9.40054 50 16.7315 50 25Z" fill="black" fill-opacity="0.08"/>
</g>
<rect x="0.5" y="0.5" width="49" height="49" rx="24.5" stroke="black"/>
<defs>
<clipPath id="clip0_15_45">
<rect width="50" height="50" rx="25" fill="white"/>
</clipPath>
</defs>
</svg>
