<svg width="50" height="50" viewBox="0 0 50 50" fill="none" xmlns="http://www.w3.org/2000/svg">
<g clip-path="url(#clip0_86_178)">
<path d="M38.2653 0.255096H11.7347C5.39472 0.255096 0.255127 5.39468 0.255127 11.7347V38.2653C0.255127 44.6053 5.39472 49.7449 11.7347 49.7449H38.2653C44.6053 49.7449 49.7449 44.6053 49.7449 38.2653V11.7347C49.7449 5.39468 44.6053 0.255096 38.2653 0.255096Z" fill="url(#paint0_linear_86_178)" stroke="#D9D9D9"/>
<path fill-rule="evenodd" clip-rule="evenodd" d="M8.38833 35.0867H7.22423V19.5309H8.38833V35.0867ZM7.78971 15.7176C7.29879 15.7176 6.89282 15.3282 6.89282 14.8373C6.89282 14.3318 7.29673 13.9404 7.78971 13.9404C8.29512 13.9404 8.69696 14.3298 8.69696 14.8373C8.69696 15.3282 8.29512 15.7176 7.78971 15.7176Z" fill="url(#paint1_linear_86_178)"/>
<path fill-rule="evenodd" clip-rule="evenodd" d="M19.6952 35.3903C14.0031 35.3903 10.4072 31.2454 10.4072 24.6566C10.4072 18.1008 14.0197 13.9395 19.6952 13.9395C25.3707 13.9395 28.9812 18.101 28.9812 24.6566C28.9812 31.2457 25.3853 35.3903 19.6952 35.3903ZM19.6952 15.0102C14.7406 15.0102 11.5776 18.751 11.5776 24.6564C11.5776 30.5661 14.7552 34.3214 19.6952 34.3214C24.6498 34.3214 27.8128 30.5661 27.8128 24.6564C27.8128 18.749 24.6498 15.0102 19.6952 15.0102Z" fill="url(#paint2_linear_86_178)"/>
<path fill-rule="evenodd" clip-rule="evenodd" d="M37.2705 35.3903C32.9973 35.3903 29.9337 32.9772 29.7598 29.5263H30.9011C31.0751 32.3558 33.7327 34.336 37.3575 34.336C40.8952 34.336 43.3644 32.3267 43.3644 29.6132C43.3644 27.43 41.8916 26.1747 38.3973 25.2944L35.9282 24.6875C32.0734 23.7036 30.3231 22.1438 30.3231 19.5318C30.3231 16.2818 33.3575 13.9413 37.1565 13.9413C41.0838 13.9413 44.0167 16.2529 44.1473 19.3145H43.006C42.8465 16.8164 40.4065 14.9956 37.1274 14.9956C33.9915 14.9956 31.4933 16.8743 31.4933 19.5028C31.4933 21.5845 33.024 22.7818 36.3734 23.6186L38.6995 24.211C42.7283 25.2073 44.5344 26.7546 44.5344 29.526C44.5344 32.9768 41.6324 35.3901 37.2701 35.3901L37.2705 35.3903Z" fill="url(#paint3_linear_86_178)"/>
</g>
<defs>
<linearGradient id="paint0_linear_86_178" x1="2474.74" y1="2474.74" x2="2474.74" y2="4949.23" gradientUnits="userSpaceOnUse">
<stop stop-color="white"/>
<stop offset="1" stop-color="#E9E5E5"/>
</linearGradient>
<linearGradient id="paint1_linear_86_178" x1="97.0995" y1="13.9404" x2="97.0995" y2="1854.77" gradientUnits="userSpaceOnUse">
<stop stop-color="#0339F1"/>
<stop offset="1" stop-color="#01ADE5"/>
</linearGradient>
<linearGradient id="paint2_linear_86_178" x1="270.647" y1="218.466" x2="1553.94" y2="1445.52" gradientUnits="userSpaceOnUse">
<stop stop-color="#0756EE"/>
<stop offset="0.37448" stop-color="#00A3F5"/>
<stop offset="0.71708" stop-color="#18B5B6"/>
<stop offset="1" stop-color="#80DF43"/>
</linearGradient>
<linearGradient id="paint3_linear_86_178" x1="222.082" y1="79.8497" x2="1794.73" y2="1370.15" gradientUnits="userSpaceOnUse">
<stop stop-color="#20BBA6"/>
<stop offset="0.4988" stop-color="#9BEC23"/>
<stop offset="1" stop-color="#D9EF35"/>
</linearGradient>
<clipPath id="clip0_86_178">
<rect width="50" height="50" fill="white"/>
</clipPath>
</defs>
</svg>
