<svg width="50" height="50" viewBox="0 0 50 50" fill="none" xmlns="http://www.w3.org/2000/svg">
<rect x="0.5" y="0.5" width="49" height="49" rx="24.5" fill="#333333"/>
<path d="M23.7367 8.36273C24.5018 7.88018 25.4983 7.878 26.2627 8.36273C30.1084 10.7572 33.9553 13.1479 37.8003 15.5439C38.5235 15.9928 39.0073 16.8796 38.9999 17.7979V32.204C39.0053 33.1602 38.4738 34.0683 37.7108 34.507C33.8777 36.8883 30.0466 39.2725 26.2142 41.6538C25.4333 42.1458 24.4168 42.1079 23.6603 41.5755C22.5112 40.8415 21.36 40.111 20.2108 39.3777C19.9759 39.2234 19.7112 39.1007 19.5454 38.8497C19.692 38.632 19.9541 38.6049 20.167 38.5098C20.6467 38.3418 21.0873 38.072 21.5279 37.8102C21.6394 37.7261 21.7754 37.7583 21.8822 37.8335C22.8649 38.4544 23.8389 39.0933 24.8248 39.7082C25.0352 39.842 25.2481 39.6643 25.4279 39.5539C29.1893 37.2114 32.9554 34.8777 36.7161 32.5344C36.8555 32.4606 36.9325 32.2976 36.9212 32.1294C36.9238 27.3771 36.9218 22.624 36.9225 17.8717C36.9384 17.6809 36.8382 17.5054 36.6816 17.4273C32.8619 15.057 29.0441 12.6829 25.225 10.312C25.1588 10.2618 25.0804 10.2349 25.0001 10.2348C24.9198 10.2347 24.8414 10.2613 24.7751 10.3112C20.9559 12.6829 17.1388 15.0591 13.3197 17.4294C13.1637 17.5076 13.0589 17.6802 13.0775 17.8717C13.0782 22.624 13.0775 27.3771 13.0775 32.1301C13.0709 32.2122 13.0872 32.2945 13.1244 32.366C13.1615 32.4375 13.2176 32.4948 13.2852 32.5301C14.3044 33.1669 15.3248 33.7992 16.3446 34.4339C16.9191 34.7746 17.6245 34.9771 18.2575 34.716C18.8161 34.4953 19.2077 33.8672 19.197 33.2136C19.2023 28.4891 19.1944 23.7638 19.201 19.04C19.187 18.8303 19.3676 18.657 19.5526 18.6768C20.0423 18.6731 20.5326 18.6695 21.0223 18.6782C21.2267 18.6731 21.3674 18.899 21.3421 19.1103C21.3401 23.8647 21.3474 28.6193 21.3388 33.3737C21.3401 34.6408 20.8677 36.0196 19.8041 36.6396C18.4937 37.3876 16.8741 37.2289 15.5796 36.5117C14.4589 35.8953 13.3894 35.1679 12.2886 34.5076C11.5236 34.0713 10.9947 33.1596 11.0001 32.2041V17.7979C10.9921 16.8606 11.4951 15.9576 12.2408 15.5153C16.0732 13.1321 19.9049 10.747 23.7367 8.36273Z" fill="#8CC84B"/>
<path d="M27.0801 18.3419C28.7516 18.2234 30.541 18.2717 32.0451 19.1791C33.2096 19.8744 33.8552 21.3336 33.8758 22.7593C33.8433 22.9516 33.6608 23.0576 33.4942 23.0444C33.0093 23.0437 32.5242 23.0517 32.0393 23.0408C31.8335 23.0495 31.714 22.8405 31.6882 22.6401C31.5488 21.958 31.2112 21.2824 30.6286 20.9534C29.7342 20.46 28.6971 20.4848 27.7218 20.4951C27.0098 20.5367 26.2442 20.6047 25.641 21.066C25.1779 21.4155 25.0372 22.121 25.2025 22.6891C25.3583 23.0971 25.7857 23.2287 26.1354 23.3501C28.1497 23.9306 30.2843 23.8728 32.2602 24.6368C33.0782 24.9482 33.8784 25.5537 34.1584 26.4975C34.5247 27.7624 34.3642 29.2744 33.5474 30.2899C32.8851 31.1255 31.9205 31.5803 30.9584 31.8274C29.6784 32.1418 28.3502 32.1498 27.0503 32.0102C25.8281 31.8567 24.5562 31.5028 23.6127 30.5852C22.8058 29.8132 22.4118 28.6104 22.4509 27.4495C22.4602 27.2535 22.6374 27.1168 22.8078 27.1329C23.2962 27.1285 23.7846 27.1271 24.2729 27.1336C24.468 27.1182 24.6126 27.304 24.6226 27.5066C24.7127 28.1565 24.9344 28.8386 25.4487 29.2239C26.4412 29.9295 27.6866 29.8812 28.8231 29.9009C29.7647 29.8549 30.8217 29.841 31.59 29.1552C31.9954 28.7641 32.1155 28.1097 32.006 27.5468C31.8873 27.0715 31.4361 26.85 31.0486 26.7052C29.0601 26.012 26.9017 26.2635 24.9324 25.4797C24.1329 25.1684 23.3598 24.5798 23.0527 23.6747C22.6241 22.3938 22.8205 20.8094 23.7228 19.8282C24.6026 18.8522 25.8726 18.4765 27.0801 18.3419Z" fill="#8CC84B"/>
<rect x="0.5" y="0.5" width="49" height="49" rx="24.5" stroke="black"/>
</svg>
