<svg width="50" height="50" viewBox="0 0 50 50" fill="none" xmlns="http://www.w3.org/2000/svg">
<g clip-path="url(#clip0_84_132)">
<path d="M50 0H25.1042L1.3313 25H24.9563L25.0667 24.8875L50 0Z" fill="url(#paint0_linear_84_132)"/>
<path d="M25.0667 24.8875L24.9562 25H25.1792L25.0667 24.8875Z" fill="url(#paint1_linear_84_132)"/>
<path d="M25.1042 0H0V26.4V25H1.33125L25.1042 0Z" fill="url(#paint2_linear_84_132)"/>
<path d="M24.9562 25H1.33125L0 26.4V50L24.9562 25Z" fill="url(#paint3_linear_84_132)"/>
<path d="M25.1792 25H24.9562L0 50H50L25.1792 25Z" fill="url(#paint4_linear_84_132)"/>
<path d="M1.33125 25H0V26.4L1.33125 25Z" fill="url(#paint5_linear_84_132)"/>
</g>
<defs>
<linearGradient id="paint0_linear_84_132" x1="-8.92394" y1="45.6931" x2="37.6037" y2="-0.834504" gradientUnits="userSpaceOnUse">
<stop stop-color="#C757BC"/>
<stop offset="0.108" stop-color="#C757BC"/>
<stop offset="0.173" stop-color="#CD5CA9"/>
<stop offset="0.492" stop-color="#E8744F"/>
<stop offset="0.716" stop-color="#F88316"/>
<stop offset="0.823" stop-color="#FF8900"/>
<stop offset="1" stop-color="#FF8900"/>
</linearGradient>
<linearGradient id="paint1_linear_84_132" x1="16.152" y1="59.0065" x2="38.8303" y2="36.3281" gradientUnits="userSpaceOnUse">
<stop stop-color="#00AFFF"/>
<stop offset="0.296" stop-color="#00AFFF"/>
<stop offset="0.694" stop-color="#5282FF"/>
<stop offset="1" stop-color="#945DFF"/>
</linearGradient>
<linearGradient id="paint2_linear_84_132" x1="-0.527329" y1="13.8181" x2="15.3818" y2="-2.09148" gradientUnits="userSpaceOnUse">
<stop stop-color="#00AFFF"/>
<stop offset="0.296" stop-color="#00AFFF"/>
<stop offset="0.694" stop-color="#5282FF"/>
<stop offset="1" stop-color="#945DFF"/>
</linearGradient>
<linearGradient id="paint3_linear_84_132" x1="-8.64482" y1="45.9723" x2="37.8828" y2="-0.555338" gradientUnits="userSpaceOnUse">
<stop stop-color="#AD4CA4"/>
<stop offset="0.108" stop-color="#AD4CA4"/>
<stop offset="0.173" stop-color="#B25093"/>
<stop offset="0.492" stop-color="#CA6545"/>
<stop offset="0.716" stop-color="#D87213"/>
<stop offset="0.823" stop-color="#DE7700"/>
<stop offset="1" stop-color="#DE7700"/>
</linearGradient>
<linearGradient id="paint4_linear_84_132" x1="16.152" y1="59.0065" x2="38.8303" y2="36.3281" gradientUnits="userSpaceOnUse">
<stop stop-color="#0098DE"/>
<stop offset="0.296" stop-color="#0098DE"/>
<stop offset="0.694" stop-color="#4771DE"/>
<stop offset="1" stop-color="#8151DE"/>
</linearGradient>
<linearGradient id="paint5_linear_84_132" x1="5.72514" y1="20.0704" x2="21.6343" y2="4.16082" gradientUnits="userSpaceOnUse">
<stop stop-color="#0098DE"/>
<stop offset="0.296" stop-color="#0098DE"/>
<stop offset="0.694" stop-color="#4771DE"/>
<stop offset="1" stop-color="#8151DE"/>
</linearGradient>
<clipPath id="clip0_84_132">
<rect width="50" height="50" fill="white"/>
</clipPath>
</defs>
</svg>
