<svg width="50" height="50" viewBox="0 0 50 50" fill="none" xmlns="http://www.w3.org/2000/svg">
<path d="M48.4756 38.4729L26.5244 49.6378C26.0616 49.875 25.5356 50 25 50C24.4644 50 23.9384 49.875 23.4756 49.6378L1.52441 38.4729C0.579297 37.9898 0 37.1043 0 36.1649V13.8351C0 12.869 0.579297 12.0102 1.52441 11.5271L23.4756 0.362227C23.9384 0.124988 24.4644 0 25 0C25.5356 0 26.0616 0.124988 26.5244 0.362227L48.4756 11.5271C49.4209 12.0102 50 12.8959 50 13.8351V36.1649C49.9695 37.1041 49.3902 37.9898 48.4756 38.4729Z" fill="#8D6748"/>
<path d="M24.9695 3.39519C24.5123 3.39519 24.0549 3.50247 23.6586 3.71722L4.69509 13.3522C3.87185 13.7549 3.38416 14.5331 3.38416 15.3381V34.6082C3.38416 35.4402 3.87185 36.1917 4.69509 36.5944L23.6586 46.2294C24.0549 46.4442 24.5121 46.5514 24.9695 46.5514C25.4265 46.5514 25.8842 46.4442 26.2804 46.2294L45.2439 36.5942C46.0672 36.1917 46.5549 35.4134 46.5549 34.6084V15.3381C46.5549 14.5062 46.0672 13.7549 45.2439 13.3522L26.2804 3.71705C25.884 3.50247 25.4267 3.39519 24.9695 3.39519ZM24.9695 4.20035C25.2742 4.20035 25.5488 4.28082 25.823 4.4151L44.7865 14.0501C45.3049 14.3183 45.64 14.8284 45.64 15.3652V34.6352C45.64 35.172 45.3049 35.6818 44.7865 35.9502L25.8232 45.5852C25.5488 45.7193 25.2744 45.7999 24.9695 45.7999C24.6679 45.7988 24.3725 45.7244 24.1158 45.585L5.15232 35.9503C4.63396 35.682 4.29861 35.1722 4.29861 34.6354V15.3652C4.29861 14.8284 4.63396 14.3185 5.15212 14.0499L24.1156 4.4151C24.39 4.28082 24.6949 4.20018 24.9691 4.20018L24.9695 4.20035ZM23.2164 21.0012H25.7773C25.8689 21.0012 25.9299 20.9742 25.9908 20.9206C27.5152 19.4177 27.6677 16.2775 27.6677 15.3382C27.6677 15.2041 27.5457 15.0698 27.3629 15.0698H21.631C21.4787 15.0698 21.3261 15.1771 21.3261 15.3382C21.3261 16.2507 21.4787 19.3909 23.0031 20.9206C23.064 20.9742 23.125 21.0012 23.2164 21.0012ZM22.5152 15.9018H26.5396C26.692 15.9018 26.8445 16.0091 26.8445 16.1702C26.8445 16.9217 26.692 19.0419 25.6554 20.1422C25.564 20.196 25.5031 20.2229 25.4115 20.2229H23.6129C23.5213 20.2229 23.4603 20.196 23.3994 20.1422C22.3627 19.0688 22.2408 16.9217 22.2103 16.1702C22.2103 16.0361 22.3322 15.9018 22.5152 15.9018ZM25.0761 14.5332C25.0761 14.5332 26.1738 13.9695 25.5029 12.9497C25.1066 12.4128 24.9238 11.9566 25.0761 11.7687C24.6799 12.1982 24.0092 12.6543 24.7408 13.6206C24.9849 13.8622 25.1066 14.3721 25.0761 14.5332ZM23.8566 14.6135C23.8566 14.6135 24.5883 14.2379 24.131 13.54C23.8566 13.1911 23.7347 12.8691 23.8566 12.7616C23.5822 13.0568 23.1554 13.352 23.6431 14.0231C23.7957 14.1572 23.8566 14.5062 23.8566 14.6135ZM23.7652 19.9008H25.2896C25.3506 19.9008 25.4115 19.874 25.4724 19.8204C25.9908 19.2836 26.2347 18.4516 26.3566 17.7269C26.3566 17.7269 26.3261 17.9685 25.5945 18.21C24.5886 18.5321 22.8201 18.3173 22.8201 18.3173C22.9724 18.8809 23.2166 19.4177 23.5822 19.8204C23.6127 19.874 23.7043 19.9008 23.7652 19.9008ZM12.3017 27.4424V22.0748H11.1738L9.31404 24.5976L7.45427 22.0748H6.32615V27.4692H7.39314V23.6313L9.28337 26.1272H9.31384L11.2347 23.6045V27.4424H12.3017ZM19.1312 22.1821C18.7347 22.0479 18.308 21.9673 17.8508 21.9673C17.3933 21.9673 16.9666 22.021 16.5701 22.1822C16.1736 22.3163 15.8385 22.5309 15.564 22.7725C15.2759 23.0255 15.0479 23.3266 14.8933 23.6581C14.741 24.0071 14.6492 24.3558 14.6492 24.7317V24.7585C14.6492 25.1342 14.741 25.51 14.8933 25.832C15.0457 26.1811 15.2592 26.4761 15.5336 26.7177C15.808 26.9592 16.1433 27.174 16.5394 27.3081C16.9359 27.4424 17.3629 27.523 17.8201 27.523C18.2775 27.523 18.7043 27.4692 19.1008 27.3081C19.497 27.174 19.8324 26.9592 20.1066 26.7177C20.3948 26.4647 20.6229 26.1637 20.7775 25.8322C20.9299 25.4832 21.0215 25.1342 21.0215 24.7585V24.7317C21.0215 24.3558 20.9297 23.9803 20.7773 23.6581C20.625 23.3093 20.4117 23.014 20.1373 22.7726C19.8629 22.5309 19.5275 22.3162 19.1312 22.1821ZM19.8629 24.7853C19.8629 25.0269 19.8019 25.2684 19.7103 25.51C19.5884 25.7246 19.4666 25.9393 19.2836 26.1004C19.0963 26.2642 18.8801 26.4001 18.6433 26.5029C18.3992 26.6104 18.125 26.664 17.8201 26.664C17.5459 26.664 17.241 26.6104 16.997 26.5029C16.7603 26.4002 16.5441 26.2643 16.3568 26.1006C16.1738 25.9125 16.0215 25.7246 15.9299 25.4834C15.8384 25.2416 15.7775 25.0002 15.7775 24.7317V24.7048C15.7775 24.4633 15.8384 24.2217 15.9299 23.9801C16.0519 23.7654 16.1738 23.5508 16.3568 23.3897C16.5441 23.2259 16.7603 23.0899 16.997 22.987C17.241 22.8798 17.5152 22.8261 17.8201 22.8261C18.1248 22.8261 18.3994 22.8798 18.6433 22.987C18.8801 23.0899 19.0963 23.2259 19.2836 23.3897C19.4666 23.5776 19.6189 23.7654 19.7103 24.007C19.8019 24.2485 19.8627 24.4901 19.8627 24.7585V24.7853H19.8629ZM24.375 23.9801C24.4968 23.7654 24.6189 23.5506 24.8017 23.3897C24.9891 23.226 25.2053 23.09 25.442 22.987C25.6859 22.8798 25.9299 22.8261 26.2347 22.8261C26.6006 22.8261 26.9054 22.8798 27.1799 23.0139C27.4543 23.1481 27.6982 23.3093 27.942 23.497L28.6433 22.7993C28.4908 22.6652 28.3384 22.5577 28.1859 22.4503C28.0336 22.343 27.8506 22.2625 27.6677 22.1821C27.4543 22.1282 27.2713 22.0746 27.0273 22.021C26.7836 21.9941 26.5396 21.9673 26.2652 21.9673C25.7773 21.9673 25.381 22.0478 24.9847 22.1819C24.5884 22.3162 24.2531 22.5309 23.9787 22.7725C23.7096 23.0335 23.4931 23.333 23.3384 23.6581C23.1787 23.9986 23.0958 24.3633 23.0945 24.7317V24.7585C23.0945 25.1342 23.1859 25.483 23.3384 25.832C23.4908 26.1811 23.7043 26.4761 23.9787 26.7177C24.2531 26.9592 24.5884 27.174 24.9543 27.3081C25.3402 27.4514 25.755 27.5245 26.1738 27.523C26.4482 27.523 26.7224 27.523 26.9968 27.4692C27.2103 27.4424 27.4543 27.3617 27.6371 27.2813C27.8201 27.2008 28.0031 27.1202 28.1859 26.9861C28.3689 26.8519 28.5213 26.7445 28.6738 26.5834L27.9726 25.9661C27.6982 26.1811 27.4238 26.342 27.1799 26.4761C26.9359 26.6104 26.6006 26.664 26.2347 26.664C25.9603 26.664 25.6859 26.5834 25.442 26.5029C25.1982 26.4225 24.9847 26.2614 24.8017 26.1006C24.6189 25.9125 24.4664 25.7246 24.375 25.483C24.2836 25.2416 24.2224 25 24.2224 24.7317V24.7048C24.2224 24.4633 24.2836 24.2217 24.375 23.9801ZM30.808 22.0748V27.4424H31.875V25.188H34.8019V27.4424H35.8689V22.0746H34.8019V24.3023H31.875V22.0746H30.808V22.0748ZM42.5152 26.1542L43.125 27.4425H44.2529L41.5701 22.0479H40.5943L37.9115 27.4424H39.0092L39.6492 26.1541L42.5152 26.1542ZM41.0822 23.1751L42.1187 25.3223H40.0457L41.0822 23.1751ZM5.56404 29.4282H44.4359V29.133H5.56404V29.4282ZM27.9117 19.0417C27.9117 19.149 27.881 19.2296 27.881 19.3371H44.4359V19.0417H27.9115H27.9117ZM21.1129 19.0417H5.56404V19.3371H21.1433C21.1433 19.2298 21.1129 19.1491 21.1129 19.0417Z" fill="white"/>
</svg>
