<svg width="50" height="50" viewBox="0 0 50 50" fill="none" xmlns="http://www.w3.org/2000/svg">
<rect x="0.5" y="0.5" width="49" height="49" rx="24.5" fill="white"/>
<path d="M6.00033 33.5039H7.35863V26.4504L9.46155 32.5996C9.70954 33.3439 10.0491 33.607 10.7154 33.607C11.3816 33.607 11.7083 33.3439 11.9563 32.5996L14.0592 26.4504V33.5039H15.4175V26.4622C15.4175 25.7752 15.2085 25.4426 14.7774 25.2713C13.7454 24.8478 13.053 25.2143 12.7396 26.1304L10.676 32.1991L8.67792 26.13C8.37736 25.2143 7.67209 24.8478 6.64013 25.2708C6.20897 25.4426 6 25.7748 6 26.4617L6.00033 33.5039ZM16.5473 27.7622H17.9053V31.6483C17.8927 31.8591 17.9569 32.3548 18.7008 32.3704C19.0804 32.3783 21.631 32.3704 21.6548 32.3704V27.743H23.0161C23.0224 27.743 23.0148 34.0535 23.0148 34.0796C23.0221 35.6361 21.5464 35.9739 20.8659 36H16.5768V34.7983C16.584 34.7983 20.8629 34.7996 20.8735 34.7978C21.7481 34.6765 21.6446 34.1052 21.6443 33.913V33.4444H18.7574C17.4143 33.4283 16.5586 32.6574 16.5477 31.7704C16.547 31.6891 16.5771 27.8013 16.5473 27.7622Z" fill="#00618A"/>
<path d="M24.0632 33.5039H27.9688C28.4261 33.5039 28.8705 33.3783 29.223 33.1609C29.8106 32.8061 30.0979 32.3252 30.0979 31.6948V30.3896C30.0979 29.8743 29.7715 29.393 29.1314 29.073C28.7918 28.9009 28.3736 28.81 27.9685 28.81H26.3225C25.774 28.81 25.5128 28.5926 25.4477 28.1117C25.4348 28.0543 25.4348 28.0087 25.4348 27.9513V27.1382C25.4348 27.0926 25.4348 27.0465 25.4477 26.9895C25.5128 26.623 25.6566 26.52 26.14 26.4626L26.2706 26.4513H30.1501V25.2608H26.3361C25.7876 25.2608 25.5002 25.3065 25.239 25.4095C24.4293 25.7417 24.0761 26.2682 24.0761 27.1843V28.2261C24.0761 29.0278 24.7688 29.7148 25.9311 29.8752C26.062 29.8861 26.1923 29.8983 26.3229 29.8983H27.7338C27.786 29.8983 27.8382 29.8983 27.8776 29.9091C28.3087 29.9548 28.4913 30.0583 28.6222 30.2639C28.6558 30.3047 28.6824 30.3543 28.7003 30.4095C28.7183 30.4647 28.7272 30.5243 28.7264 30.5843V31.6265C28.7264 31.7522 28.6612 31.9126 28.5306 32.05C28.4132 32.1874 28.2172 32.2791 27.9559 32.3022L27.8121 32.3135H24.0632V33.5039ZM38.5724 31.4317C38.5724 32.6565 39.2648 33.3435 40.6621 33.4813C40.7927 33.4926 40.9233 33.5039 41.0539 33.5039H44.5938V32.3135H41.0281C40.2312 32.3135 39.931 32.05 39.931 31.42V25.26H38.5727L38.5724 31.4317ZM30.9648 31.4935V27.2478C30.9648 26.1695 31.5408 25.5152 32.6796 25.3087C32.8009 25.2858 32.9234 25.2743 33.0459 25.2743H35.6247C35.7556 25.2743 35.8733 25.2856 36.0039 25.3087C37.1427 25.5152 37.719 26.1691 37.719 27.2478V31.4935C37.719 32.3691 37.4743 32.837 36.9106 33.1422L38.249 34.7304H36.6715L35.589 33.4452L34.4991 33.5361H33.0459C32.776 33.5338 32.5075 33.4837 32.2478 33.387C31.3838 33.0774 30.9648 32.4804 30.9648 31.4935ZM32.4309 31.3904C32.4309 31.4478 32.4438 31.5057 32.4571 31.5743C32.5354 32.0678 32.8892 32.343 33.4255 32.343H34.6595L33.526 30.9974H35.1036L36.0919 32.1713C36.2744 32.043 36.3941 31.8483 36.4361 31.5974C36.449 31.54 36.449 31.4826 36.449 31.4252V27.3522C36.449 27.3065 36.449 27.2487 36.4361 27.1913C36.3574 26.7322 36.0039 26.4687 35.4805 26.4687H33.4252C32.8234 26.4687 32.4306 26.813 32.4306 27.3522L32.4309 31.3904Z" fill="#E48E00"/>
<path d="M45.7889 23.2839C44.954 23.2539 44.3162 23.356 43.7706 23.6582C43.6155 23.7443 43.3685 23.7465 43.3434 24.0017C43.4284 24.1195 43.4416 24.2947 43.5094 24.4391C43.6397 24.716 43.8596 25.0874 44.0556 25.2817C44.2696 25.4943 44.4904 25.7221 44.7206 25.9065C45.1289 26.2343 45.5852 26.4213 45.979 26.7491C46.2108 26.943 46.4409 27.1865 46.6674 27.4052C46.7795 27.5126 46.8542 27.6808 47 27.7482V27.7174C46.9237 27.5895 46.9038 27.4139 46.8337 27.28L46.5249 26.8739C46.223 26.3469 45.8401 25.8847 45.4324 25.5004C45.1078 25.1939 44.381 24.7795 44.2454 24.2826L44.2216 24.2517C44.4517 24.2174 44.7216 24.1078 44.9338 24.033C45.2909 23.9069 45.61 23.9395 45.9787 23.8143L46.4773 23.6265V23.5021C46.2911 23.2508 46.1579 22.9178 45.9549 22.6904C45.4235 22.0952 44.8429 21.5004 44.2454 21.0039C43.9141 20.7291 43.5044 20.5504 43.153 20.3173C43.0353 20.2386 42.8276 20.1982 42.7492 20.0673C42.5644 19.7582 42.4642 19.3665 42.3217 19.006C42.0174 18.2274 41.7323 17.4359 41.467 16.633C41.2871 16.0917 41.1694 15.5578 40.9449 15.0721C39.8667 12.7412 38.7061 11.3343 36.9083 9.95165C36.5258 9.6573 36.0652 9.54165 35.5788 9.38991L34.7952 9.3273C34.6361 9.23991 34.4702 8.98339 34.3204 8.85904C33.7245 8.36425 32.1969 7.28816 31.7559 8.70338C31.4775 9.59643 32.1725 10.4677 32.4208 10.9203C32.595 11.2377 32.8186 11.5934 32.9432 11.9504C33.0252 12.1851 33.0391 12.4204 33.1095 12.6686C33.2818 13.2799 33.4322 13.9456 33.6554 14.5104C33.7682 14.7964 33.8928 15.0978 34.0354 15.3534C34.1226 15.5099 34.2728 15.5795 34.2962 15.8217C34.1498 16.0912 34.1412 16.5104 34.0588 16.8517C33.6878 18.3904 33.8277 20.303 34.3677 21.4417C34.5333 21.7917 34.9235 22.5413 35.4598 22.2534C35.929 22.0021 35.8245 21.2234 35.9587 20.536C35.9892 20.3808 35.9703 20.266 36.0298 20.1617V20.193L36.4573 21.3169C36.7738 21.9869 37.3349 22.6865 37.8107 23.1591C38.0574 23.4039 38.2518 23.8278 38.5705 23.9708V23.9391H38.547C38.4849 23.8126 38.3887 23.7604 38.3093 23.6582C38.1235 23.4187 37.9168 23.1213 37.7634 22.8465C37.3306 22.0743 36.9484 21.2286 36.5999 20.3486C36.4335 19.9286 36.289 19.4652 36.1489 19.0373C36.0946 18.8726 36.0953 18.623 35.9829 18.5382C35.8288 18.8512 35.603 19.1047 35.4839 19.4747C35.2941 20.066 35.2697 20.7873 35.1992 21.5352L35.1516 21.566C34.8206 21.4613 34.7046 21.0134 34.5816 20.6295C34.2708 19.6586 34.2129 18.0947 34.4867 16.9769C34.5574 16.6873 34.8772 15.7765 34.7476 15.5091C34.6857 15.2425 34.4817 15.0886 34.368 14.8843C34.2187 14.6108 34.0914 14.3178 33.9881 14.0099C33.7335 13.253 33.6148 12.403 33.3473 11.6373C33.219 11.2712 33.0027 10.9012 32.8248 10.576C32.6281 10.2151 32.4076 9.94991 32.2548 9.51426C32.2006 9.35947 32.1269 9.11121 32.2072 8.95208C32.2327 8.84469 32.2694 8.79991 32.35 8.76469C32.4876 8.62512 32.8711 8.81121 33.0146 8.88947C33.3955 9.09773 33.7133 9.29556 34.036 9.57643C34.1908 9.71165 34.3472 9.97252 34.5346 10.0447H34.7482C35.0825 10.1456 35.4571 10.0756 35.7693 10.2003C36.3214 10.4212 36.8161 10.7643 37.2651 11.1373C38.6337 12.2738 39.7523 13.8912 40.518 15.8208C40.641 16.1317 40.6946 16.4278 40.8027 16.7573C41.0216 17.4217 41.2974 18.1056 41.5149 18.7556C41.7322 19.4039 41.9441 20.0582 42.2513 20.5978C42.4126 20.8813 43.0362 21.0334 43.3196 21.1908C43.5183 21.3013 43.8437 21.4165 44.0318 21.5652C44.3912 21.8504 44.7397 22.19 45.0767 22.5021C45.245 22.6595 45.7631 23.0017 45.7889 23.2839ZM35.1754 11.3886C35.0315 11.3855 34.8878 11.4065 34.7479 11.4512V11.4821H34.7717C34.8547 11.7069 35.0012 11.8512 35.104 12.0443L35.3417 12.6999L35.3652 12.669C35.5124 12.533 35.5795 12.3151 35.5788 11.9821C35.5196 11.9004 35.511 11.7982 35.4601 11.7012C35.3927 11.5708 35.2611 11.4977 35.1754 11.3886Z" fill="#00618A"/>
<rect x="0.5" y="0.5" width="49" height="49" rx="24.5" stroke="black"/>
</svg>
