<svg width="50" height="50" viewBox="0 0 50 50" fill="none" xmlns="http://www.w3.org/2000/svg">
<rect x="0.5" y="0.5" width="49" height="49" rx="24.5" fill="white"/>
<path d="M9.36046 32.1424L9.40214 32.9538C9.87766 32.3262 10.502 32.0124 11.2747 32.0124C12.6138 32.0124 13.2954 32.8497 13.3191 34.5242V39.1638H11.8753V34.615C11.8753 34.1694 11.7872 33.8398 11.6109 33.6253C11.4347 33.4112 11.1463 33.3041 10.746 33.3041C10.1634 33.3041 9.72921 33.5921 9.44451 34.1672V39.1638H8V32.1424H9.36113H9.36046ZM17.6228 39.2937C16.7077 39.2937 15.9655 38.9792 15.3971 38.3498C14.8284 37.7204 14.544 36.882 14.544 35.8351V35.6405C14.544 34.9399 14.6677 34.3134 14.9155 33.7619C15.1629 33.2104 15.511 32.781 15.9587 32.4735C16.4064 32.1667 16.9057 32.0132 17.4568 32.0132C18.3322 32.0132 19.009 32.3181 19.4862 32.928C19.9641 33.5382 20.2027 34.4009 20.2027 35.5172V36.1533H16C16.0441 36.7329 16.221 37.1914 16.5322 37.5288C16.8433 37.8662 17.2348 38.0349 17.7062 38.0349C18.3678 38.0349 18.9067 37.7432 19.3229 37.1589L20.1014 37.9703C19.8438 38.3896 19.5001 38.7152 19.0704 38.9467C18.6403 39.1782 18.1577 39.2937 17.6228 39.2937ZM17.4507 33.2787C17.0541 33.2787 16.7345 33.43 16.4908 33.7327C16.2468 34.0354 16.0916 34.4574 16.0241 34.9982H18.7762V34.8812C18.7443 34.3533 18.6155 33.9546 18.3898 33.684C18.1638 33.4138 17.8509 33.2787 17.4507 33.2787ZM23.1328 30.4361V32.1428H24.2682V33.3108H23.1328V37.2301C23.1328 37.4981 23.1816 37.6916 23.2785 37.8108C23.3754 37.9297 23.549 37.9891 23.7988 37.9891C23.9688 37.9886 24.1383 37.9668 24.3038 37.9241V39.1442C23.975 39.2439 23.6581 39.2933 23.3527 39.2933C22.2434 39.2933 21.6886 38.6252 21.6886 37.2884V33.3104H20.6298V32.1424H21.6879V30.4358H23.1321L23.1328 30.4361ZM26.9074 39.1641H25.4629V29.1969H26.9074V39.1641ZM30.016 39.1641H28.5715V32.1428H30.016V39.1641ZM28.4824 30.3191C28.4824 30.0773 28.5526 29.8761 28.6932 29.7159C28.8342 29.5561 29.0352 29.476 29.2965 29.476C29.5582 29.476 29.7602 29.5561 29.9032 29.7159C30.0455 29.8761 30.1167 30.0773 30.1167 30.3195C30.1167 30.5572 30.0455 30.7551 29.9032 30.9131C29.7602 31.0711 29.5582 31.1501 29.2965 31.1501C29.0352 31.1501 28.8342 31.0711 28.6932 30.9131C28.5526 30.7555 28.4824 30.5569 28.4824 30.3191ZM32.0964 39.1641V33.3104H31.1155V32.1424H32.0964V31.5001C32.0964 30.7211 32.2943 30.1201 32.6905 29.696C33.0871 29.2722 33.6415 29.0603 34.3546 29.0603C34.6085 29.0603 34.878 29.0991 35.1633 29.1769L35.1278 30.4099C34.9455 30.3731 34.7603 30.3558 34.575 30.3582C33.8853 30.3582 33.5406 30.7451 33.5406 31.5196V32.1424H34.8481V33.3104H33.5406V39.1638L32.0964 39.1641ZM38.153 36.906L39.4606 32.1428H41L38.4445 40.2284C38.052 41.4093 37.3864 42 36.4472 42C36.2371 42 36.0052 41.9609 35.7517 41.883V40.6629L36.0252 40.6825C36.3896 40.6825 36.6641 40.6101 36.8485 40.465C37.0325 40.3203 37.1783 40.0771 37.2854 39.7352L37.4931 39.1316L35.2345 32.1428H36.7919L38.153 36.906Z" fill="#0E1E25"/>
<path d="M28.0092 15.4346L28.003 15.4318C27.9995 15.4303 27.9959 15.4289 27.9928 15.4255C27.9825 15.4134 27.9779 15.3968 27.9804 15.3805L28.3236 13.0951L29.933 14.8485L28.2592 15.6242C28.2546 15.6263 28.2496 15.6273 28.2446 15.6271H28.2379C28.2357 15.6256 28.2335 15.6237 28.229 15.6189C28.1667 15.5433 28.0922 15.4809 28.0092 15.4346ZM30.3437 15.2954L32.0646 17.1697C32.422 17.5595 32.6009 17.7539 32.6662 17.9793C32.676 18.0126 32.6839 18.046 32.6902 18.0803L28.5775 16.1832C28.5753 16.1822 28.5731 16.1812 28.5709 16.1804C28.5544 16.1731 28.5353 16.1649 28.5353 16.1465C28.5353 16.1281 28.5549 16.1194 28.5713 16.1122L28.5766 16.1098L30.3437 15.2954ZM32.62 18.6819C32.5312 18.8638 32.3581 19.0523 32.065 19.372L30.1248 21.4848L27.6154 20.9156L27.6021 20.9127C27.5799 20.9089 27.5564 20.9045 27.5564 20.8828C27.5371 20.6548 27.4318 20.4459 27.2656 20.3058C27.2553 20.2947 27.258 20.2773 27.2611 20.2614C27.2611 20.259 27.2611 20.2565 27.262 20.2546L27.734 17.0987L27.7357 17.088C27.7384 17.0638 27.7424 17.0358 27.7624 17.0358C27.9667 17.0081 28.1522 16.8923 28.2774 16.7142C28.2814 16.7094 28.284 16.7041 28.2894 16.7012C28.3036 16.6939 28.3204 16.7012 28.3351 16.708L32.62 18.6819ZM29.6786 21.9708L26.4881 25.4458L27.0342 21.7899L27.0351 21.7851C27.0356 21.7803 27.0365 21.7755 27.0378 21.7711C27.0422 21.7595 27.0537 21.7547 27.0648 21.7498L27.0702 21.7474C27.1897 21.6919 27.2955 21.6062 27.3787 21.4974C27.3894 21.4839 27.4023 21.4708 27.4187 21.4684C27.423 21.4677 27.4273 21.4677 27.4316 21.4684L29.6781 21.9713L29.6786 21.9708ZM25.8128 26.1814L25.4532 26.5731L21.4773 20.3145C21.4759 20.3122 21.4744 20.31 21.4729 20.3077C21.4667 20.2985 21.46 20.2893 21.4613 20.2787C21.4613 20.271 21.4662 20.2642 21.4711 20.2584L21.4755 20.2521C21.4875 20.2327 21.4977 20.2134 21.5088 20.1926L21.5177 20.1757L21.5191 20.1742C21.5253 20.1626 21.5311 20.1514 21.5417 20.1451C21.5511 20.1403 21.5639 20.1423 21.5741 20.1447L25.9789 21.1341C25.9912 21.1361 26.0029 21.1417 26.0127 21.15C26.0185 21.1563 26.0198 21.1631 26.0211 21.1708C26.0834 21.4275 26.2522 21.6377 26.4775 21.7391C26.49 21.7459 26.4846 21.7608 26.4789 21.7768C26.476 21.7838 26.4738 21.7911 26.4723 21.7985C26.4168 22.1661 25.9407 25.3279 25.8128 26.1814ZM25.0616 26.9991C24.7965 27.2849 24.6403 27.4363 24.4635 27.4972C24.2893 27.5572 24.1023 27.5572 23.9281 27.4972C23.7212 27.4257 23.5423 27.2312 23.1849 26.8415L19.1921 22.4926L20.235 20.7309C20.2399 20.7222 20.2448 20.7144 20.2528 20.7081C20.2639 20.6994 20.2799 20.7033 20.2932 20.7081C20.5326 20.7868 20.7896 20.7726 21.0204 20.668C21.0324 20.6632 21.0444 20.6598 21.0537 20.669C21.0585 20.6736 21.0626 20.6788 21.0662 20.6845L25.0616 26.9991ZM18.8072 22.0733L17.8912 21.0757L19.7 20.2352C19.7046 20.233 19.7096 20.2319 19.7147 20.2318C19.7298 20.2318 19.7387 20.2482 19.7466 20.2632C19.7648 20.2937 19.7841 20.3234 19.8044 20.3522L19.8102 20.3599C19.8155 20.3682 19.8119 20.3764 19.8066 20.3841L18.8072 22.0733ZM17.4859 20.6342L16.3271 19.372C16.1299 19.1573 15.987 19.0016 15.8875 18.8676L19.411 19.6636C19.4154 19.6645 19.4199 19.6653 19.4243 19.666C19.4461 19.6699 19.47 19.6742 19.47 19.6964C19.47 19.7206 19.4438 19.7318 19.4216 19.7409L19.4114 19.7457L17.4859 20.6342ZM15.6851 18.2186C15.6891 18.1373 15.7025 18.0569 15.725 17.9793C15.7907 17.7539 15.9692 17.5595 16.3271 17.1697L17.81 15.5546C18.4927 16.6339 19.1774 17.7118 19.8639 18.7883C19.8758 18.8057 19.8892 18.8251 19.8754 18.8396C19.8106 18.9174 19.7458 19.0025 19.7 19.0949C19.6951 19.1068 19.6874 19.1171 19.6778 19.1249C19.672 19.1288 19.6658 19.1273 19.6592 19.1259H19.6583L15.6851 18.2186ZM18.2069 15.1222L20.2 12.9505C20.3878 13.0399 21.0702 13.3538 21.6798 13.6342C22.1415 13.847 22.5624 14.0405 22.6947 14.1033C22.708 14.1091 22.72 14.1149 22.7258 14.1294C22.7294 14.1381 22.7275 14.1493 22.7258 14.1585C22.6617 14.4769 22.7489 14.8091 22.958 15.0424C22.9713 15.057 22.958 15.0777 22.9464 15.0956L22.9403 15.1058L20.9157 18.5214C20.9103 18.531 20.9055 18.5393 20.8966 18.5456C20.8859 18.5528 20.8708 18.5495 20.8584 18.546C20.7797 18.5236 20.6987 18.5116 20.6173 18.5103C20.5445 18.5103 20.4655 18.5248 20.3856 18.5407C20.3767 18.5422 20.3682 18.5441 20.3611 18.5383C20.3533 18.5313 20.3466 18.523 20.3412 18.5137L18.2069 15.1222ZM20.6035 12.5118L23.1849 9.70027C23.5423 9.31098 23.7212 9.11609 23.9281 9.04501C24.1023 8.985 24.2893 8.985 24.4635 9.04501C24.6704 9.11609 24.8494 9.31098 25.2068 9.70027L25.7662 10.3096L23.9303 13.4065C23.9258 13.4155 23.9196 13.4234 23.9121 13.4297C23.901 13.4379 23.8855 13.4345 23.8722 13.4297C23.5783 13.3326 23.2594 13.3995 23.0197 13.6086C23.0077 13.6222 22.99 13.6144 22.9749 13.6071C22.7351 13.4935 20.8704 12.6352 20.6035 12.5118ZM26.156 10.7342L27.8512 12.5805L27.4427 15.336V15.3432C27.4423 15.3495 27.4411 15.3557 27.4391 15.3616C27.4347 15.3713 27.4258 15.3732 27.4169 15.3761C27.3296 15.4049 27.2473 15.4496 27.1736 15.5081C27.1704 15.5106 27.1675 15.5134 27.1647 15.5164C27.1598 15.5222 27.155 15.5275 27.147 15.5285C27.1405 15.5287 27.134 15.5275 27.1279 15.5251L24.5448 14.3296L24.5399 14.3272C24.5234 14.32 24.5039 14.3113 24.5039 14.2929C24.4887 14.1361 24.4417 13.985 24.3662 13.8504C24.3538 13.8282 24.3401 13.805 24.3507 13.7823L26.156 10.7342ZM24.4103 14.8959L26.8318 16.013C26.8451 16.0198 26.8597 16.0261 26.8655 16.0411C26.8678 16.0501 26.8678 16.0596 26.8655 16.0686C26.8584 16.1073 26.8522 16.1513 26.8522 16.1958V16.2698C26.8522 16.2882 26.8349 16.2959 26.8189 16.3032L26.814 16.3051C26.4304 16.4835 21.4284 18.8066 21.4209 18.8066C21.4133 18.8066 21.4053 18.8066 21.3978 18.7984C21.3845 18.7839 21.3978 18.7636 21.4098 18.7452C21.4119 18.742 21.414 18.7388 21.416 18.7356L23.4059 15.3795L23.4095 15.3737C23.421 15.3534 23.4344 15.3306 23.4557 15.3306L23.4756 15.334C23.5209 15.3408 23.5609 15.3471 23.6013 15.3471C23.9032 15.3471 24.1829 15.187 24.3516 14.9133C24.3557 14.906 24.3607 14.8995 24.3667 14.894C24.3787 14.8843 24.3965 14.8892 24.4103 14.8959ZM21.6371 19.3377L27.0893 16.8051C27.0893 16.8051 27.0973 16.8051 27.1048 16.8133C27.1346 16.8457 27.1599 16.8675 27.1843 16.8878L27.1963 16.896C27.2074 16.9028 27.2185 16.9105 27.2194 16.9231C27.2194 16.9279 27.2194 16.9309 27.2184 16.9352L26.7514 20.0601L26.7496 20.0727C26.7465 20.0969 26.7434 20.1245 26.7225 20.1245C26.4697 20.1431 26.2416 20.2963 26.1129 20.5341L26.1107 20.538C26.1046 20.5491 26.0988 20.5597 26.0885 20.5655C26.0792 20.5703 26.0672 20.5684 26.0575 20.566L21.7095 19.5892C21.7051 19.5882 21.642 19.3381 21.6371 19.3377Z" fill="url(#paint0_radial_18_366)"/>
<rect x="0.5" y="0.5" width="49" height="49" rx="24.5" stroke="black"/>
<defs>
<radialGradient id="paint0_radial_18_366" cx="0" cy="0" r="1" gradientUnits="userSpaceOnUse" gradientTransform="translate(24.1876 -0.271115) scale(17.0483 18.5893)">
<stop stop-color="#20C6B7"/>
<stop offset="1" stop-color="#4D9ABF"/>
</radialGradient>
</defs>
</svg>
