<svg width="50" height="50" viewBox="0 0 50 50" fill="none" xmlns="http://www.w3.org/2000/svg">
<g clip-path="url(#clip0_15_148)">
<path d="M50 25C50 38.8061 38.8061 50 25 50C12.261 50 1.74744 40.4735 0.197866 28.1547C0.0666963 27.1076 0 26.0538 0 25C0 23.0436 0.224544 21.1383 0.649177 19.3108C3.22588 8.24589 13.1503 0 25 0C36.8208 0 46.7252 8.20365 49.3286 19.2285C49.6754 20.6914 49.8866 22.1832 49.9644 23.6861C49.9889 24.1241 50 24.562 50 25Z" fill="#F2F2F2"/>
<path d="M23.3907 27.0032V20.5026L18.3208 17.2545L13.251 20.5026V27.0032L18.3208 30.2536L23.3907 27.0032Z" fill="#3B8739"/>
<path d="M43.3557 26.0161L46.6596 28.1349L43.3557 30.2536L38.2859 27.0032V20.5048L43.3557 17.2545L46.4273 19.2242C46.7397 20.6871 46.9299 22.1789 46.9999 23.6818L45.1218 24.8867V22.6235L43.3557 21.4919L41.5897 22.6235V24.8867L43.3557 26.0161Z" fill="#333333"/>
<path d="M44.3408 24.3843V23.1215L43.3577 22.4901L42.3726 23.1215V24.3843L43.3577 25.0157L44.3408 24.3843Z" fill="#66A060"/>
<path d="M10.8562 20.5048V29.0753L7.47432 26.9343V22.539L5.78637 21.4563L4.09842 22.539V26.9321L2.17821 28.1482C2.06007 27.1033 2 26.0495 2 24.9957C2 23.0393 2.20223 21.134 2.58468 19.3065L5.78637 17.2545L10.8562 20.5048Z" fill="#333333"/>
<path d="M18.3188 17.2522L23.3887 27.001L18.3188 30.2514L13.251 20.5026L18.3188 17.2522Z" fill="#6DA75D"/>
<path d="M13.251 27.0032L14.991 23.8507L13.251 20.5026V27.0032Z" fill="#55A344"/>
<path d="M21.6987 23.7529L23.3887 20.5026L18.3208 17.2545L21.6987 23.7529Z" fill="#639D57"/>
<path d="M32.4812 9.72V18.3438L30.7813 17.2545L25.7114 20.5048V27.0055L30.7813 30.2558L35.8511 27.0055V11.7231L32.4812 9.72ZM32.4712 24.8356L30.7813 25.9183L29.0913 24.8356V22.6702L30.7813 21.5875L32.4712 22.6702V24.8356Z" fill="#333333"/>
<path d="M27.5545 35.0311C27.5545 35.0311 27.4434 34.0818 26.4274 34.0818C25.4114 34.0818 24.7155 34.2152 24.7155 34.7777C24.7155 35.3402 26.6919 35.3402 27.4434 35.5625C28.1948 35.7826 28.8573 36.3584 28.5261 37.3744C28.1948 38.3904 27.1788 38.5016 25.6092 38.5016C24.0396 38.5016 23.6862 37.1988 23.6862 36.6896H24.571C24.571 36.6896 24.4598 37.4855 25.4981 37.6167C26.5363 37.7479 27.5301 37.8235 27.6635 37.0209C27.8413 35.9604 24.3042 36.4896 23.9952 35.4513C23.7328 34.5731 23.884 33.4193 25.6515 33.2414C27.4189 33.0636 28.3905 33.8462 28.3905 35.0089L27.5545 35.0311Z" fill="#66A060"/>
<path d="M19.0151 39.173L20.9693 40.3001C21.952 40.8671 23.1792 40.1578 23.1792 39.024V33.4082H22.3833V38.8017C22.3833 39.4197 21.7141 39.8088 21.1761 39.4976L19.8133 38.7105V32.9546L24.7977 30.0778L29.7821 32.9546V38.7105L24.7977 41.5874L23.3615 40.7581L22.4233 41.1361L24.7977 42.5056L30.5781 39.1685V32.4944L24.7977 29.1574L19.0174 32.4944L19.0151 39.173Z" fill="#66A060"/>
</g>
<rect x="0.5" y="0.5" width="49" height="49" rx="24.5" stroke="black"/>
<defs>
<clipPath id="clip0_15_148">
<rect width="50" height="50" rx="25" fill="white"/>
</clipPath>
</defs>
</svg>
