<svg width="50" height="50" viewBox="0 0 50 50" fill="none" xmlns="http://www.w3.org/2000/svg">
<g clip-path="url(#clip0_517_15)">
<path d="M25 50C38.8071 50 50 38.8071 50 25C50 11.1929 38.8071 0 25 0C11.1929 0 0 11.1929 0 25C0 38.8071 11.1929 50 25 50Z" fill="white"/>
<path d="M41.4382 20.9594C42.3325 18.3028 42.0229 15.3949 40.5887 12.9795C38.4321 9.27659 34.0976 7.37185 29.8645 8.26686C27.4789 5.6494 23.8594 4.48547 20.3683 5.2132C16.8772 5.94093 14.0445 8.44985 12.9365 11.7956C10.1559 12.358 7.75592 14.0754 6.35079 16.5082C4.17072 20.2051 4.66554 24.8684 7.57441 28.0398C6.67671 30.6953 6.98347 33.6035 8.41613 36.0198C10.5754 39.7239 14.9127 41.6285 19.1481 40.7324C21.032 42.8249 23.7385 44.0155 26.5755 43.9998C30.9145 44.0036 34.7585 41.2407 36.0839 37.1652C38.8641 36.6018 41.2637 34.8847 42.6696 32.4526C44.8233 28.7623 44.3264 24.1241 41.4382 20.9594ZM26.5755 41.4474C24.8436 41.4501 23.1661 40.8513 21.8369 39.756L22.0707 39.6253L29.9424 35.1434C30.341 34.9128 30.5868 34.4921 30.5893 34.0363V23.0889L33.9172 24.9878C33.9505 25.0045 33.9737 25.036 33.9796 25.0724V34.144C33.971 38.174 30.6611 41.4389 26.5755 41.4474ZM10.6607 34.7436C9.7922 33.2643 9.48035 31.5302 9.78003 29.8465L10.0138 29.9849L17.8933 34.4668C18.2903 34.6966 18.7823 34.6966 19.1793 34.4668L28.8045 28.9931V32.7832C28.8027 32.823 28.7826 32.8598 28.75 32.8832L20.777 37.4189C17.234 39.4323 12.7075 38.2352 10.6607 34.7436ZM8.58759 17.8305C9.46215 16.3416 10.8426 15.206 12.4845 14.6247V23.85C12.4784 24.304 12.7233 24.7252 13.1235 24.9494L22.702 30.4L19.3741 32.2989C19.3376 32.318 19.2938 32.318 19.2572 32.2989L11.2998 27.7708C7.76381 25.7491 6.55113 21.2874 8.58759 17.792V17.8305ZM35.928 24.096L26.3183 18.5916L29.6385 16.7004C29.675 16.6812 29.7188 16.6812 29.7554 16.7004L37.7128 21.2362C40.1963 22.6498 41.6291 25.3509 41.3906 28.1695C41.152 30.9881 39.2851 33.4174 36.5983 34.4053V25.18C36.5843 24.7273 36.3296 24.3154 35.928 24.096ZM39.2403 19.1835L39.0065 19.0451L31.1427 14.5247C30.7432 14.2935 30.2483 14.2935 29.8489 14.5247L20.2314 19.9984V16.2083C20.2273 16.1691 20.2452 16.1307 20.2782 16.1084L28.2356 11.5803C30.7252 10.1655 33.8195 10.2976 36.176 11.9191C38.5325 13.5406 39.7266 16.3595 39.2403 19.1528V19.1835ZM18.4155 25.9026L15.0876 24.0114C15.0539 23.9913 15.0311 23.9575 15.0252 23.9192V14.8707C15.029 12.0371 16.6924 9.46079 19.294 8.25916C21.8955 7.05754 24.9668 7.44698 27.1756 9.25858L26.9418 9.38927L19.0702 13.8713C18.6716 14.1018 18.4258 14.5225 18.4233 14.9783L18.4155 25.9026ZM20.2236 22.0587L24.5102 19.6217L28.8045 22.0587V26.9328L24.5258 29.3698L20.2314 26.9328L20.2236 22.0587Z" fill="black"/>
</g>
<rect x="0.5" y="0.5" width="49" height="49" rx="24.5" stroke="black"/>
<defs>
<clipPath id="clip0_517_15">
<rect width="50" height="50" rx="25" fill="white"/>
</clipPath>
</defs>
</svg>
