<svg width="50" height="50" viewBox="0 0 50 50" fill="none" xmlns="http://www.w3.org/2000/svg">
<rect x="0.5" y="0.5" width="49" height="49" rx="24.5" fill="white"/>
<path d="M41.3869 24.8696C41.3869 22.6579 38.6171 20.5619 34.3707 19.262C35.3507 14.9339 34.9151 11.4904 32.996 10.3879C32.5536 10.1293 32.0365 10.0068 31.4716 10.0068V11.5244C31.7846 11.5244 32.0365 11.5856 32.2474 11.7013C33.1729 12.2321 33.5744 14.2533 33.2614 16.853C33.1866 17.4927 33.0641 18.1664 32.9143 18.8538C31.5805 18.5271 30.1242 18.2753 28.5929 18.112C27.6742 16.853 26.7215 15.7097 25.762 14.7093C27.9804 12.6473 30.0629 11.5176 31.4784 11.5176V10C29.6069 10 27.157 11.3338 24.6799 13.6477C22.2027 11.3475 19.7528 10.0272 17.8813 10.0272V11.5448C19.29 11.5448 21.3793 12.6677 23.5979 14.7161C22.6451 15.7165 21.6923 16.853 20.7873 18.112C19.2492 18.2753 17.7929 18.527 16.459 18.8605C16.3025 18.18 16.1868 17.5199 16.1051 16.887C15.7853 14.2874 16.18 12.2662 17.0987 11.7286C17.3029 11.6061 17.5683 11.5516 17.8813 11.5516V10.034C17.3097 10.034 16.7925 10.1565 16.3433 10.4151C14.431 11.5176 14.0023 14.9543 14.9891 19.2688C10.7562 20.5755 8 22.6647 8 24.8696C8 27.0814 10.7698 29.1774 15.0163 30.4773C14.0363 34.8054 14.4719 38.2489 16.391 39.3514C16.8333 39.61 17.3505 39.7325 17.9222 39.7325C19.7936 39.7325 22.2436 38.3986 24.7207 36.0848C27.1978 38.3851 29.6477 39.7052 31.5192 39.7052C32.0908 39.7052 32.6081 39.5827 33.0573 39.3242C34.9695 38.2217 35.3982 34.785 34.4115 30.4705C38.6308 29.1707 41.3869 27.0746 41.3869 24.8696ZM32.5264 20.3305C32.2746 21.2084 31.9616 22.1135 31.6077 23.0186C31.3287 22.4742 31.036 21.9297 30.7162 21.3853C30.4032 20.8409 30.0697 20.3101 29.7362 19.7928C30.7025 19.9358 31.635 20.1128 32.5264 20.3305ZM29.4096 27.5782C28.8787 28.4969 28.3344 29.368 27.7695 30.1778C26.7555 30.2663 25.7278 30.314 24.6935 30.314C23.6659 30.314 22.6382 30.2663 21.6311 30.1846C21.0663 29.3748 20.515 28.5105 19.9842 27.5986C19.467 26.7071 18.9974 25.802 18.5687 24.89C18.9906 23.9782 19.467 23.0662 19.9773 22.1747C20.5082 21.2561 21.0526 20.3849 21.6174 19.5751C22.6314 19.4866 23.6591 19.439 24.6935 19.439C25.7211 19.439 26.7486 19.4866 27.7559 19.5683C28.3207 20.3781 28.8719 21.2424 29.4027 22.1544C29.92 23.0458 30.3895 23.951 30.8183 24.8628C30.3895 25.7748 29.92 26.6866 29.4096 27.5782ZM31.6077 26.6934C31.9752 27.6054 32.2883 28.5173 32.5468 29.402C31.6553 29.6198 30.7162 29.8035 29.743 29.9465C30.0765 29.4224 30.41 28.8848 30.723 28.3336C31.036 27.7891 31.3287 27.2379 31.6077 26.6934ZM24.707 33.9547C24.0742 33.3014 23.4412 32.5733 22.8152 31.7771C23.4277 31.8043 24.0537 31.8246 24.6867 31.8246C25.3263 31.8246 25.9593 31.8111 26.5786 31.7771C25.9661 32.5733 25.3332 33.3014 24.707 33.9547ZM19.644 29.9465C18.6775 29.8035 17.7452 29.6265 16.8537 29.4088C17.1055 28.5309 17.4186 27.6258 17.7725 26.7207C18.0515 27.2651 18.3442 27.8096 18.664 28.354C18.9838 28.8984 19.3105 29.4292 19.644 29.9465ZM24.673 15.7845C25.306 16.4378 25.9388 17.166 26.565 17.9622C25.9525 17.935 25.3263 17.9146 24.6935 17.9146C24.0537 17.9146 23.4209 17.9282 22.8016 17.9622C23.4141 17.166 24.047 16.4378 24.673 15.7845ZM19.6371 19.7928C19.3037 20.3169 18.9702 20.8545 18.6572 21.4057C18.3442 21.9502 18.0515 22.4946 17.7725 23.039C17.405 22.1271 17.0919 21.2152 16.8333 20.3305C17.7248 20.1195 18.664 19.9358 19.6371 19.7928ZM13.4783 28.3132C11.0692 27.2856 9.51079 25.9381 9.51079 24.8696C9.51079 23.8012 11.0692 22.4469 13.4783 21.4261C14.0636 21.1744 14.7033 20.9498 15.3634 20.7388C15.7513 22.0727 16.2617 23.461 16.8946 24.8833C16.2685 26.2988 15.7649 27.6802 15.3838 29.0073C14.7101 28.7963 14.0704 28.5649 13.4783 28.3132ZM17.1396 38.038C16.214 37.5071 15.8125 35.486 16.1256 32.8863C16.2004 32.2466 16.3229 31.5729 16.4726 30.8855C17.8065 31.2123 19.2628 31.464 20.794 31.6273C21.7128 32.8863 22.6654 34.0296 23.625 35.03C21.4065 37.092 19.324 38.2217 17.9086 38.2217C17.6023 38.2149 17.3437 38.1536 17.1396 38.038ZM33.2818 32.8523C33.6016 35.452 33.2069 37.4731 32.2883 38.0108C32.0841 38.1333 31.8186 38.1876 31.5056 38.1876C30.0969 38.1876 28.0077 37.0648 25.7891 35.0164C26.7419 34.016 27.6946 32.8796 28.5997 31.6206C30.1377 31.4573 31.5941 31.2054 32.9279 30.872C33.0844 31.5593 33.2069 32.2194 33.2818 32.8523ZM35.9019 28.3132C35.3166 28.5649 34.6769 28.7895 34.0168 29.0005C33.6289 27.6666 33.1185 26.2783 32.4856 24.856C33.1116 23.4405 33.6153 22.0591 33.9964 20.732C34.6701 20.9429 35.3097 21.1744 35.9087 21.4261C38.3178 22.4537 39.8762 23.8012 39.8762 24.8696C39.8694 25.9381 38.311 27.2924 35.9019 28.3132Z" fill="#61DAFB"/>
<path d="M24.6866 27.9795C26.4044 27.9795 27.7967 26.5871 27.7967 24.8695C27.7967 23.1519 26.4044 21.7594 24.6866 21.7594C22.969 21.7594 21.5767 23.1519 21.5767 24.8695C21.5767 26.5871 22.969 27.9795 24.6866 27.9795Z" fill="#61DAFB"/>
<rect x="0.5" y="0.5" width="49" height="49" rx="24.5" stroke="black"/>
</svg>
