<svg width="50" height="50" viewBox="0 0 50 50" fill="none" xmlns="http://www.w3.org/2000/svg">
<g clip-path="url(#clip0_14_13)">
<path d="M25 0C38.8071 0 50 11.1929 50 25C50 38.8071 38.8071 50 25 50C11.1929 50 0 38.8071 0 25C0 11.1929 11.1929 0 25 0Z" fill="white"/>
<g clip-path="url(#clip1_14_13)">
<path opacity="0.45" d="M32.4971 8L24.9943 19.4929H10L17.4971 8H32.4971Z" fill="black"/>
<path opacity="0.6" d="M24.9942 19.4929H39.9942L32.4971 8H17.4971L24.9942 19.4929Z" fill="black"/>
<path opacity="0.8" d="M17.4971 30.9809L24.9943 19.4929L17.4971 8L10 19.4929L17.4971 30.9809Z" fill="black"/>
<path opacity="0.45" d="M17.0175 45L24.5203 33.5071H39.5203L32.0175 45H17.0175Z" fill="black"/>
<path opacity="0.6" d="M25 33.2225H10L17.4971 44.7155H32.4971L25 33.2225Z" fill="black"/>
<path opacity="0.8" d="M32.4971 21.7346L25 33.2226L32.4971 44.7155L40 33.2226L32.4971 21.7346Z" fill="black"/>
</g>
</g>
<rect x="0.5" y="0.5" width="49" height="49" rx="24.5" stroke="black"/>
<defs>
<clipPath id="clip0_14_13">
<rect width="50" height="50" rx="25" fill="white"/>
</clipPath>
<clipPath id="clip1_14_13">
<rect width="30" height="37" fill="white" transform="translate(10 7)"/>
</clipPath>
</defs>
</svg>
