<svg width="50" height="50" viewBox="0 0 50 50" fill="none" xmlns="http://www.w3.org/2000/svg">
<g clip-path="url(#clip0_84_161)">
<path d="M42.5 0H7.5C3.35786 0 0 3.35786 0 7.5V42.5C0 46.6421 3.35786 50 7.5 50H42.5C46.6421 50 50 46.6421 50 42.5V7.5C50 3.35786 46.6421 0 42.5 0Z" fill="white"/>
<path d="M42.4316 33.3985C42.2044 30.5551 41.2731 27.8131 39.7217 25.4195C38.1703 23.0259 36.0476 21.056 33.5449 19.6875L36.4453 14.6582C36.4851 14.5896 36.5109 14.5138 36.5214 14.4352C36.5319 14.3566 36.5268 14.2767 36.5064 14.2001C36.4859 14.1235 36.4507 14.0516 36.4025 13.9886C36.3543 13.9257 36.2942 13.8728 36.2256 13.833C36.157 13.7933 36.0812 13.7674 36.0026 13.7569C35.924 13.7465 35.8441 13.7516 35.7675 13.772C35.6909 13.7924 35.619 13.8277 35.556 13.8759C35.493 13.924 35.4401 13.9841 35.4004 14.0527L32.4609 19.1406C30.1139 18.0901 27.5714 17.547 25 17.547C22.4286 17.547 19.8861 18.0901 17.5391 19.1406L14.5996 14.0527C14.5193 13.9142 14.3873 13.8132 14.2325 13.772C14.0778 13.7308 13.913 13.7527 13.7744 13.833C13.6358 13.9133 13.5349 14.0454 13.4936 14.2001C13.4524 14.3549 13.4744 14.5197 13.5547 14.6582L16.4551 19.6875C13.9524 21.056 11.8297 23.0259 10.2783 25.4195C8.72689 27.8131 7.79559 30.5551 7.56836 33.3985M16.9727 28.4277C16.5872 28.4265 16.218 28.2722 15.9461 27.999C15.6742 27.7257 15.5218 27.3557 15.5225 26.9702C15.5231 26.5847 15.6767 26.2153 15.9495 25.9429C16.2223 25.6706 16.5921 25.5176 16.9775 25.5176C17.363 25.5176 17.7328 25.6706 18.0056 25.9429C18.2784 26.2153 18.432 26.5847 18.4326 26.9702C18.4333 27.3557 18.2809 27.7257 18.009 27.999C17.7371 28.2722 17.3679 28.4265 16.9824 28.4277M33.0273 28.4277C32.6419 28.4265 32.2726 28.2722 32.0007 27.999C31.7289 27.7257 31.5765 27.3557 31.5771 26.9702C31.5778 26.5847 31.7314 26.2153 32.0042 25.9429C32.277 25.6706 32.6467 25.5176 33.0322 25.5176C33.4177 25.5176 33.7874 25.6706 34.0603 25.9429C34.3331 26.2153 34.4867 26.5847 34.4873 26.9702C34.488 27.3557 34.3356 27.7257 34.0637 27.999C33.7918 28.2722 33.4226 28.4265 33.0371 28.4277" fill="#3DDC84"/>
</g>
<defs>
<clipPath id="clip0_84_161">
<rect width="50" height="50" fill="white"/>
</clipPath>
</defs>
</svg>
