<svg width="50" height="50" viewBox="0 0 50 50" fill="none" xmlns="http://www.w3.org/2000/svg">
<rect x="0.5" y="0.5" width="49" height="49" rx="24.5" fill="white"/>
<path d="M17.5843 22.9674C17.5735 23.334 17.6171 23.7001 17.7135 24.0519C17.8129 24.3532 17.9358 24.6449 18.0808 24.9238C18.1302 25.0073 18.1584 25.1034 18.1624 25.2023C18.1553 25.2765 18.1318 25.3477 18.0939 25.4102C18.0561 25.4726 18.005 25.5244 17.9448 25.5613L17.2646 26.0742C17.1766 26.1408 17.0728 26.179 16.9654 26.1842C16.9021 26.1817 16.84 26.1655 16.7827 26.1366C16.7255 26.1076 16.6742 26.0665 16.6321 26.0156C16.4741 25.8472 16.3369 25.6576 16.224 25.4514C16.1106 25.2462 15.995 25.002 15.8771 24.7187C15.4787 25.2543 14.9719 25.6846 14.3954 25.9767C13.8189 26.2688 13.1881 26.415 12.5511 26.404C12.1397 26.4283 11.728 26.3636 11.3402 26.2139C10.9524 26.0641 10.5963 25.8323 10.2929 25.532C10.0119 25.224 9.79306 24.8567 9.65025 24.4532C9.50744 24.0496 9.44373 23.6186 9.46312 23.1872C9.44509 22.7184 9.52495 22.2512 9.69681 21.82C9.86868 21.3888 10.1282 21.0047 10.4562 20.6959C11.2437 20.0278 12.2303 19.6917 13.2312 19.7507C13.6319 19.7519 14.0319 19.7838 14.4283 19.8459C14.8455 19.9094 15.2785 19.9974 15.7274 20.1097V19.2158C15.7935 18.5152 15.6004 17.8149 15.1901 17.2667C14.6652 16.8318 14.0056 16.6299 13.3469 16.7025C12.9366 16.7047 12.528 16.7588 12.1294 16.8637C11.7146 16.9705 11.3076 17.1101 10.9119 17.2813C10.7839 17.3447 10.6521 17.3985 10.5174 17.4426H10.3405C10.1818 17.4426 10.1025 17.3155 10.1025 17.0615V16.4827C10.0927 16.3356 10.121 16.1885 10.1841 16.0577C10.2693 15.945 10.3792 15.8569 10.5038 15.8012C10.959 15.5663 11.4353 15.3821 11.9253 15.2517C12.5008 15.0925 13.0928 15.0137 13.6869 15.0172C14.7555 14.9152 15.8185 15.2705 16.6457 16.0064C16.982 16.4117 17.2385 16.8862 17.3999 17.4013C17.5612 17.9164 17.6239 18.4613 17.5843 19.0033V22.9674ZM12.9932 24.8213C13.3921 24.815 13.7873 24.7383 14.1631 24.5941C14.5773 24.4395 14.9459 24.1689 15.2309 23.8101C15.4065 23.5991 15.5366 23.3489 15.6118 23.0773C15.6901 22.7321 15.7267 22.3775 15.7206 22.0222V21.5093C15.3775 21.4207 15.0301 21.3522 14.68 21.3041C14.3281 21.2556 13.9737 21.2311 13.6189 21.2308C13.0233 21.1827 12.4303 21.356 11.9389 21.7218C11.7614 21.8905 11.6211 22.0997 11.5281 22.3342C11.4352 22.5687 11.392 22.8226 11.4016 23.0773C11.3855 23.3114 11.414 23.5466 11.4854 23.7683C11.5567 23.9901 11.6694 24.1938 11.8165 24.367C11.9753 24.5222 12.161 24.6423 12.3629 24.7202C12.5648 24.7982 12.779 24.8325 12.9932 24.8213ZM22.0734 26.1402C21.9202 26.1553 21.7667 26.114 21.6381 26.023C21.5177 25.8923 21.435 25.7269 21.4 25.5467L18.7542 16.1236C18.7029 15.9647 18.6686 15.8 18.6522 15.6327C18.6464 15.5918 18.6496 15.55 18.6616 15.5107C18.6736 15.4715 18.694 15.4358 18.7211 15.4065C18.7482 15.3773 18.7814 15.3553 18.8179 15.3424C18.8543 15.3295 18.8931 15.326 18.931 15.3323H20.0397C20.1952 15.3155 20.3513 15.3569 20.4818 15.4495C20.5944 15.5841 20.6718 15.7484 20.7063 15.9258L22.6039 23.9859L24.3656 15.9258C24.3928 15.7479 24.4713 15.5838 24.59 15.4568C24.7264 15.3662 24.8861 15.3251 25.0457 15.3396H25.9572C26.1168 15.3251 26.2765 15.3662 26.4129 15.4568C26.5304 15.5868 26.6066 15.7535 26.6305 15.9331L28.4058 24.0958L30.3646 15.9331C30.4007 15.7549 30.4806 15.5904 30.5959 15.4568C30.7264 15.3642 30.8825 15.3228 31.038 15.3396H32.0855C32.1234 15.3334 32.1622 15.3369 32.1986 15.3498C32.2351 15.3627 32.2682 15.3846 32.2954 15.4139C32.3225 15.4431 32.3429 15.4788 32.3549 15.5181C32.3669 15.5574 32.3701 15.5991 32.3643 15.64C32.37 15.7034 32.37 15.7672 32.3643 15.8305C32.3426 15.9323 32.3153 16.0326 32.2827 16.1309L29.562 25.554C29.5271 25.7342 29.4444 25.8996 29.324 26.0303C29.1954 26.1213 29.0419 26.1626 28.8887 26.1475H27.8956C27.7348 26.1657 27.5732 26.1215 27.4399 26.023C27.3232 25.8866 27.2474 25.7155 27.2223 25.532L25.4606 17.6844L23.7194 25.5247C23.6943 25.7082 23.6184 25.8792 23.5018 26.0156C23.3684 26.1142 23.2069 26.1583 23.046 26.1402H22.0734ZM36.6018 26.4626C36.0157 26.4636 35.4315 26.3923 34.8605 26.2501C34.4064 26.1516 33.967 25.9864 33.5546 25.7592C33.4306 25.7026 33.325 25.6076 33.2511 25.4863C33.1772 25.365 33.1385 25.2228 33.1397 25.0777V24.4622C33.1397 24.2082 33.2259 24.0812 33.3982 24.0812C33.4703 24.0823 33.5417 24.0972 33.609 24.1252L33.8947 24.2497C34.2939 24.44 34.7113 24.5825 35.1394 24.6747C35.587 24.7738 36.0428 24.8229 36.4997 24.8213C37.075 24.858 37.6481 24.7182 38.1525 24.4183C38.3366 24.3004 38.488 24.1315 38.5909 23.9291C38.6938 23.7268 38.7444 23.4984 38.7375 23.2678C38.7414 23.1114 38.7163 22.9556 38.6637 22.8097C38.6112 22.6638 38.5322 22.5306 38.4314 22.4179C38.0881 22.1079 37.6831 21.8873 37.2479 21.7731L35.6087 21.2162C34.9185 21.0096 34.3036 20.5799 33.8471 19.9852C33.4825 19.4802 33.2839 18.859 33.2825 18.2193C33.2731 17.7464 33.3786 17.279 33.5886 16.8637C33.7919 16.473 34.0673 16.1313 34.398 15.8598C34.7447 15.5758 35.1365 15.3623 35.5543 15.2297C36.0163 15.0861 36.495 15.0145 36.9759 15.0172C37.2305 15.0169 37.485 15.0341 37.7376 15.0685C37.9961 15.1027 38.241 15.1491 38.4722 15.2077C38.7035 15.2663 38.9189 15.3298 39.1184 15.3982C39.2826 15.4537 39.4419 15.5248 39.5945 15.6107C39.7233 15.6855 39.8367 15.7877 39.9278 15.9111C39.9997 16.0308 40.0353 16.1717 40.0298 16.3141V16.893C40.0298 17.147 39.9436 17.274 39.7713 17.274C39.6189 17.2557 39.4711 17.2059 39.336 17.1275C38.6497 16.8063 37.9077 16.6464 37.1595 16.6585C36.6391 16.6294 36.1207 16.7481 35.6563 17.0029C35.4824 17.1124 35.34 17.2717 35.2451 17.4632C35.1503 17.6547 35.1066 17.8707 35.119 18.0874C35.1156 18.2485 35.1435 18.4087 35.2009 18.5576C35.2583 18.7065 35.3439 18.8408 35.4523 18.952C35.8189 19.2679 36.2429 19.4976 36.697 19.6261L38.3022 20.1464C38.9819 20.3367 39.5917 20.7457 40.0502 21.3188C40.4098 21.8216 40.5972 22.4428 40.5807 23.0773C40.5867 23.5677 40.4841 24.0525 40.2815 24.4915C40.0834 24.911 39.8025 25.2786 39.4585 25.5687C39.0835 25.8807 38.6563 26.112 38.2002 26.2501C37.6796 26.4034 37.1413 26.4749 36.6018 26.4626Z" fill="#252F3E"/>
<path fill-rule="evenodd" clip-rule="evenodd" d="M38.7375 32.4638C35.017 35.424 29.6165 36.9994 25.0049 36.9994C18.7831 37.0436 12.7709 34.5788 8.15042 30.0897C7.80354 29.7526 8.10961 29.291 8.53132 29.5475C13.657 32.7061 19.4604 34.3657 25.3654 34.3616C29.7753 34.336 34.137 33.3724 38.2002 31.5259C38.8259 31.2401 39.3565 31.9728 38.7375 32.4638Z" fill="#FF9900"/>
<path fill-rule="evenodd" clip-rule="evenodd" d="M40.2882 30.5586C39.8121 29.8992 37.1391 30.2509 35.942 30.4047C35.5815 30.4487 35.5203 30.1116 35.8467 29.8625C37.9757 28.2505 41.4717 28.7121 41.873 29.2543C42.2743 29.7966 41.7642 33.5702 39.7713 35.3727C39.4652 35.6512 39.1728 35.5046 39.3088 35.1383C39.7577 33.9219 40.7644 31.2181 40.2882 30.5586Z" fill="#FF9900"/>
<path d="M17.5843 22.9674C17.5735 23.334 17.6171 23.7001 17.7135 24.0519C17.8129 24.3532 17.9358 24.6449 18.0808 24.9238C18.1302 25.0073 18.1584 25.1034 18.1624 25.2023C18.1553 25.2765 18.1318 25.3477 18.0939 25.4102C18.0561 25.4726 18.005 25.5244 17.9448 25.5613L17.2646 26.0742C17.1766 26.1408 17.0728 26.179 16.9654 26.1842C16.9021 26.1817 16.84 26.1655 16.7827 26.1366C16.7255 26.1076 16.6742 26.0665 16.6321 26.0156C16.4741 25.8472 16.3369 25.6576 16.224 25.4514C16.1106 25.2462 15.995 25.002 15.8771 24.7187C15.4787 25.2543 14.9719 25.6846 14.3954 25.9767C13.8189 26.2688 13.1881 26.415 12.5511 26.404C12.1397 26.4283 11.728 26.3636 11.3402 26.2139C10.9524 26.0641 10.5963 25.8323 10.2929 25.532C10.0119 25.224 9.79306 24.8567 9.65025 24.4532C9.50744 24.0496 9.44373 23.6186 9.46312 23.1872C9.44509 22.7184 9.52495 22.2512 9.69681 21.82C9.86868 21.3888 10.1282 21.0047 10.4562 20.6959C11.2437 20.0278 12.2303 19.6917 13.2312 19.7507C13.6319 19.7519 14.0319 19.7838 14.4283 19.8459C14.8455 19.9094 15.2785 19.9974 15.7274 20.1097V19.2158C15.7935 18.5152 15.6004 17.8149 15.1901 17.2667C14.6652 16.8318 14.0056 16.6299 13.3469 16.7025C12.9366 16.7047 12.528 16.7588 12.1294 16.8637C11.7146 16.9705 11.3076 17.1101 10.9119 17.2813C10.7839 17.3447 10.6521 17.3985 10.5174 17.4426H10.3405C10.1818 17.4426 10.1025 17.3155 10.1025 17.0615V16.4827C10.0927 16.3356 10.121 16.1885 10.1841 16.0577C10.2693 15.945 10.3792 15.8569 10.5038 15.8012C10.959 15.5663 11.4353 15.3821 11.9253 15.2517C12.5008 15.0925 13.0928 15.0137 13.6869 15.0172C14.7555 14.9152 15.8185 15.2705 16.6457 16.0064C16.982 16.4117 17.2385 16.8862 17.3999 17.4013C17.5612 17.9164 17.6239 18.4613 17.5843 19.0033V22.9674ZM12.9932 24.8213C13.3921 24.815 13.7873 24.7383 14.1631 24.5941C14.5773 24.4395 14.9459 24.1689 15.2309 23.8101C15.4065 23.5991 15.5366 23.3489 15.6118 23.0773C15.6901 22.7321 15.7267 22.3775 15.7206 22.0222V21.5093C15.3775 21.4207 15.0301 21.3522 14.68 21.3041C14.3281 21.2556 13.9737 21.2311 13.6189 21.2308C13.0233 21.1827 12.4303 21.356 11.9389 21.7218C11.7614 21.8905 11.6211 22.0997 11.5281 22.3342C11.4352 22.5687 11.392 22.8226 11.4016 23.0773C11.3855 23.3114 11.414 23.5466 11.4854 23.7683C11.5567 23.9901 11.6694 24.1938 11.8165 24.367C11.9753 24.5222 12.161 24.6423 12.3629 24.7202C12.5648 24.7982 12.779 24.8325 12.9932 24.8213ZM22.0734 26.1402C21.9202 26.1553 21.7667 26.114 21.6381 26.023C21.5177 25.8923 21.435 25.7269 21.4 25.5467L18.7542 16.1236C18.7029 15.9647 18.6686 15.8 18.6522 15.6327C18.6464 15.5918 18.6496 15.55 18.6616 15.5107C18.6736 15.4715 18.694 15.4358 18.7211 15.4065C18.7482 15.3773 18.7814 15.3553 18.8179 15.3424C18.8543 15.3295 18.8931 15.326 18.931 15.3323H20.0397C20.1952 15.3155 20.3513 15.3569 20.4818 15.4495C20.5944 15.5841 20.6718 15.7484 20.7063 15.9258L22.6039 23.9859L24.3656 15.9258C24.3928 15.7479 24.4713 15.5838 24.59 15.4568C24.7264 15.3662 24.8861 15.3251 25.0457 15.3396H25.9572C26.1168 15.3251 26.2765 15.3662 26.4129 15.4568C26.5304 15.5868 26.6066 15.7535 26.6305 15.9331L28.4058 24.0958L30.3646 15.9331C30.4007 15.7549 30.4806 15.5904 30.5959 15.4568C30.7264 15.3642 30.8825 15.3228 31.038 15.3396H32.0855C32.1234 15.3334 32.1622 15.3369 32.1986 15.3498C32.2351 15.3627 32.2682 15.3846 32.2954 15.4139C32.3225 15.4431 32.3429 15.4788 32.3549 15.5181C32.3669 15.5574 32.3701 15.5991 32.3643 15.64C32.37 15.7034 32.37 15.7672 32.3643 15.8305C32.3426 15.9323 32.3153 16.0326 32.2827 16.1309L29.562 25.554C29.5271 25.7342 29.4444 25.8996 29.324 26.0303C29.1954 26.1213 29.0419 26.1626 28.8887 26.1475H27.8956C27.7348 26.1657 27.5732 26.1215 27.4399 26.023C27.3232 25.8866 27.2474 25.7155 27.2223 25.532L25.4606 17.6844L23.7194 25.5247C23.6943 25.7082 23.6184 25.8792 23.5018 26.0156C23.3684 26.1142 23.2069 26.1583 23.046 26.1402H22.0734ZM36.6018 26.4626C36.0157 26.4636 35.4315 26.3923 34.8605 26.2501C34.4064 26.1516 33.967 25.9864 33.5546 25.7592C33.4306 25.7026 33.325 25.6076 33.2511 25.4863C33.1772 25.365 33.1385 25.2228 33.1397 25.0777V24.4622C33.1397 24.2082 33.2259 24.0812 33.3982 24.0812C33.4703 24.0823 33.5417 24.0972 33.609 24.1252L33.8947 24.2497C34.2939 24.44 34.7113 24.5825 35.1394 24.6747C35.587 24.7738 36.0428 24.8229 36.4997 24.8213C37.075 24.858 37.6481 24.7182 38.1525 24.4183C38.3366 24.3004 38.488 24.1315 38.5909 23.9291C38.6938 23.7268 38.7444 23.4984 38.7375 23.2678C38.7414 23.1114 38.7163 22.9556 38.6637 22.8097C38.6112 22.6638 38.5322 22.5306 38.4314 22.4179C38.0881 22.1079 37.6831 21.8873 37.2479 21.7731L35.6087 21.2162C34.9185 21.0096 34.3036 20.5799 33.8471 19.9852C33.4825 19.4802 33.2839 18.859 33.2825 18.2193C33.2731 17.7464 33.3786 17.279 33.5886 16.8637C33.7919 16.473 34.0673 16.1313 34.398 15.8598C34.7447 15.5758 35.1365 15.3623 35.5543 15.2297C36.0163 15.0861 36.495 15.0145 36.9759 15.0172C37.2305 15.0169 37.485 15.0341 37.7376 15.0685C37.9961 15.1027 38.241 15.1491 38.4722 15.2077C38.7035 15.2663 38.9189 15.3298 39.1184 15.3982C39.2826 15.4537 39.4419 15.5248 39.5945 15.6107C39.7233 15.6855 39.8367 15.7877 39.9278 15.9111C39.9997 16.0308 40.0353 16.1717 40.0298 16.3141V16.893C40.0298 17.147 39.9436 17.274 39.7713 17.274C39.6189 17.2557 39.4711 17.2059 39.336 17.1275C38.6497 16.8063 37.9077 16.6464 37.1595 16.6585C36.6391 16.6294 36.1207 16.7481 35.6563 17.0029C35.4824 17.1124 35.34 17.2717 35.2451 17.4632C35.1503 17.6547 35.1066 17.8707 35.119 18.0874C35.1156 18.2485 35.1435 18.4087 35.2009 18.5576C35.2583 18.7065 35.3439 18.8408 35.4523 18.952C35.8189 19.2679 36.2429 19.4976 36.697 19.6261L38.3022 20.1464C38.9819 20.3367 39.5917 20.7457 40.0502 21.3188C40.4098 21.8216 40.5972 22.4428 40.5807 23.0773C40.5867 23.5677 40.4841 24.0525 40.2815 24.4915C40.0834 24.911 39.8025 25.2786 39.4585 25.5687C39.0835 25.8807 38.6563 26.112 38.2002 26.2501C37.6796 26.4034 37.1413 26.4749 36.6018 26.4626Z" fill="#252F3E"/>
<path fill-rule="evenodd" clip-rule="evenodd" d="M38.7375 32.4638C35.017 35.424 29.6165 36.9994 25.0049 36.9994C18.7831 37.0436 12.7709 34.5788 8.15042 30.0897C7.80354 29.7526 8.10961 29.291 8.53132 29.5475C13.657 32.7061 19.4604 34.3657 25.3654 34.3616C29.7753 34.336 34.137 33.3724 38.2002 31.5259C38.8259 31.2401 39.3565 31.9728 38.7375 32.4638Z" fill="#FF9900"/>
<path fill-rule="evenodd" clip-rule="evenodd" d="M40.2882 30.5586C39.8121 29.8992 37.1391 30.2509 35.942 30.4047C35.5815 30.4487 35.5203 30.1116 35.8467 29.8625C37.9757 28.2505 41.4717 28.7121 41.873 29.2543C42.2743 29.7966 41.7642 33.5702 39.7713 35.3727C39.4652 35.6512 39.1728 35.5046 39.3088 35.1383C39.7577 33.9219 40.7644 31.2181 40.2882 30.5586Z" fill="#FF9900"/>
<rect x="0.5" y="0.5" width="49" height="49" rx="24.5" stroke="black"/>
</svg>
