<svg width="50" height="50" viewBox="0 0 50 50" fill="none" xmlns="http://www.w3.org/2000/svg">
<rect x="0.5" y="0.5" width="49" height="49" rx="24.5" fill="#333333"/>
<path d="M9 11H41L38.1434 39.8375L24.9848 43L11.8566 39.8375L9 11Z" fill="#0A71B9"/>
<path d="M24.9849 13.3853H38.3258L35.7731 37.9615L24.9849 40.6951V13.3853Z" fill="#28A7DE"/>
<path d="M33.2507 16.9498H14.9867L15.3818 20.4606H30.6372L30.151 23.9983H15.7464L16.1111 27.4556H29.9383L29.4216 32.2261L24.924 33.191L20.5176 32.2261L20.2744 29.3853H16.3238L16.9316 35.0938L25.1064 37.0503L33.2507 35.0938L35.1652 16.9498H33.2507Z" fill="#333333"/>
<path d="M33.2204 16.9498H24.9849V20.4606H30.6069L30.1207 23.9983H24.9849V27.4556H29.9079L29.3913 32.2261L24.9849 33.1374V37.0503H25.0456L33.2204 35.0938L35.1653 16.9498H33.2204Z" fill="#333333"/>
<rect x="0.5" y="0.5" width="49" height="49" rx="24.5" stroke="black"/>
</svg>
