<svg width="50" height="50" viewBox="0 0 50 50" fill="none" xmlns="http://www.w3.org/2000/svg">
<rect x="0.5" y="0.5" width="49" height="49" rx="24.5" fill="white"/>
<path d="M26.0746 19.8967H30.0222V23.9327H32.0181C32.9516 23.9284 33.8783 23.7732 34.7622 23.4731C35.2264 23.3194 35.6732 23.1177 36.0955 22.8712C35.5553 22.1234 35.235 21.2394 35.1707 20.3191C35.0046 18.9761 35.3495 17.6197 36.1369 16.5191L36.551 16.0388L37.0452 16.4363C38.3555 17.397 39.2434 18.8275 39.5228 20.4281C41.0463 19.9602 42.6931 20.1135 44.104 20.8546L44.6465 21.1666L44.3608 21.7187C43.7828 22.6917 42.929 23.4713 41.9075 23.9586C40.886 24.4459 39.7428 24.6189 38.6229 24.4558C35.1997 32.9695 27.7585 37 18.7341 37C14.0715 37 9.7953 35.2567 7.35907 31.1213L7.31904 31.0537L6.9712 30.3373C6.16891 28.513 5.85543 26.5112 6.06158 24.529L6.1168 23.9313H9.49163V19.8967H13.4407V15.9449H21.3374V12H26.0746V19.8967Z" fill="#0096E6"/>
<path d="M19.8159 36.3278C17.8846 35.5049 16.3362 33.9816 15.4817 32.0641C14.4608 32.3372 13.4127 32.496 12.3567 32.5375C11.8966 32.5633 11.4158 32.5761 10.9143 32.5761C10.3328 32.5761 9.72037 32.5591 9.07715 32.5251C10.3191 33.8181 11.8248 34.8288 13.492 35.4882C15.1592 36.1477 16.9488 36.4407 18.7392 36.3471C19.1 36.3471 19.4588 36.3407 19.8159 36.3278Z" fill="white"/>
<path d="M13.0174 20.8394H13.2934V23.6925H13.0174V20.8394ZM12.4984 20.8394H12.7745V23.6925H12.4929V20.8394H12.4984ZM11.9794 20.8394H12.2555V23.6925H11.9794V20.8394ZM11.4604 20.8394H11.7365V23.6925H11.4604V20.8394ZM10.9414 20.8394H11.2175V23.6925H10.9414V20.8394ZM10.4335 20.8394H10.7095V23.6925H10.4335V20.8394ZM10.1464 20.5551H13.5723V23.9769H10.1464V20.5551ZM14.0926 16.6061H17.5158V20.0278H14.0982L14.0926 16.6061ZM16.9595 16.8918H17.2356V19.7435H16.9595V16.8918ZM16.4405 16.8918H16.7166V19.7435H16.4405V16.8918ZM15.9215 16.8918H16.1976V19.7435H15.9215V16.8918ZM15.4025 16.8918H15.6786V19.7435H15.4025V16.8918ZM14.8836 16.8918H15.1596V19.7435H14.8836V16.8918ZM14.3756 16.8918H14.6517V19.7435H14.3756V16.8918ZM14.0899 20.5537H17.513V23.9769H14.0982V20.5551L14.0899 20.5537ZM16.9568 20.8394H17.2328V23.6925H16.9568V20.8394ZM16.4378 20.8394H16.7138V23.6925H16.4378V20.8394ZM15.9188 20.8394H16.1948V23.6925H15.9188V20.8394ZM15.3998 20.8394H15.6758V23.6925H15.3998V20.8394ZM14.8808 20.8394H15.1569V23.6925H14.8808V20.8394ZM14.3728 20.8394H14.6489V23.6925H14.3728V20.8394ZM18.0362 20.5537H21.4648V23.9769H18.0417V20.5551L18.0362 20.5537ZM20.9017 20.8394H21.1888V23.6925H20.9127L20.9017 20.8394ZM20.3827 20.8394H20.6587V23.6925H20.3827V20.8394ZM19.8637 20.8394H20.1397V23.6925H19.8637V20.8394ZM19.3447 20.8394H19.6207V23.6925H19.3447V20.8394ZM18.8257 20.8394H19.1017V23.6925H18.8257V20.8394ZM18.3177 20.8394H18.5938V23.6925H18.3177V20.8394ZM18.0334 16.6061H21.4648V20.0278H18.0417V16.6061H18.0334ZM20.8989 16.8918H21.1888V19.7435H20.9127L20.8989 16.8918ZM20.3799 16.8918H20.656V19.7435H20.3799V16.8918ZM19.8609 16.8918H20.137V19.7435H19.8609V16.8918ZM19.3419 16.8918H19.618V19.7435H19.3419V16.8918ZM18.8229 16.8918H19.099V19.7435H18.8229V16.8918ZM18.315 16.8918H18.591V19.7435H18.315V16.8918ZM21.9783 20.5537H25.4001V23.9769H21.9769V20.5551L21.9783 20.5537ZM24.8438 20.8394H25.1199V23.6925H24.8438V20.8394ZM24.3248 20.8394H24.6009V23.6925H24.3248V20.8394ZM23.8058 20.8394H24.0819V23.6925H23.8058V20.8394ZM23.2868 20.8394H23.5629V23.6925H23.2868V20.8394ZM22.7678 20.8394H23.0439V23.6925H22.7678V20.8394ZM22.2599 20.8394H22.5249V23.6925H22.2488V20.8394H22.2599ZM21.9755 16.6061H25.3973V20.0278H21.9742L21.9755 16.6061ZM24.841 16.8918H25.1171V19.7435H24.841V16.8918ZM24.322 16.8918H24.5981V19.7435H24.322V16.8918ZM23.8031 16.8918H24.0791V19.7435H23.8031V16.8918ZM23.2841 16.8918H23.5601V19.7435H23.2841V16.8918ZM22.7651 16.8918H23.0411V19.7435H22.7651V16.8918ZM22.2571 16.8918H22.5221V19.7435H22.2461V16.8918H22.2571ZM21.9728 12.6584H25.3945V16.0829H21.9714L21.9728 12.6584ZM24.8383 12.9428H25.1143V15.7945H24.8383V12.9428ZM24.3193 12.9428H24.5953V15.7945H24.3193V12.9428ZM23.8003 12.9428H24.0764V15.7945H23.8003V12.9428ZM23.2813 12.9428H23.5574V15.7945H23.2813V12.9428ZM22.7623 12.9428H23.0384V15.7945H22.7623V12.9428ZM22.2544 12.9428H22.5194V15.7945H22.2433V12.9428H22.2544ZM25.9177 20.5537H29.3394V23.9769H25.9163V20.5551L25.9177 20.5537ZM28.7832 20.8394H29.0523V23.6925H28.7763V20.8394H28.7832ZM28.2642 20.8394H28.5485V23.6925H28.2642V20.8394ZM27.7452 20.8394H28.0213V23.6925H27.7452V20.8394ZM27.2262 20.8394H27.5023V23.6925H27.2262V20.8394ZM26.7072 20.8394H26.9833V23.6925H26.7003V20.8394H26.7072ZM26.1993 20.8394H26.4753V23.6925H26.2075V20.8394H26.1993Z" fill="white"/>
<path d="M17.3073 29.5243C17.494 29.5243 17.6766 29.5797 17.8318 29.6834C17.9871 29.7872 18.1081 29.9346 18.1795 30.1071C18.251 30.2796 18.2697 30.4695 18.2333 30.6526C18.1968 30.8358 18.1069 31.004 17.9749 31.136C17.8428 31.2681 17.6746 31.358 17.4915 31.3944C17.3083 31.4308 17.1185 31.4121 16.946 31.3407C16.7735 31.2692 16.626 31.1482 16.5223 30.993C16.4185 30.8377 16.3632 30.6552 16.3632 30.4684C16.3632 30.218 16.4626 29.9779 16.6397 29.8008C16.8167 29.6238 17.0569 29.5243 17.3073 29.5243ZM17.3073 29.7921C17.3908 29.792 17.4737 29.8075 17.5516 29.8376C17.5145 29.8588 17.4828 29.8883 17.4591 29.9238C17.4353 29.9593 17.4201 29.9998 17.4147 30.0422C17.4092 30.0845 17.4137 30.1276 17.4277 30.1679C17.4417 30.2083 17.4649 30.2448 17.4955 30.2747C17.526 30.3046 17.563 30.3269 17.6037 30.3401C17.6443 30.3532 17.6875 30.3567 17.7297 30.3503C17.7719 30.3439 17.8121 30.3279 17.8471 30.3033C17.882 30.2788 17.9108 30.2465 17.9312 30.2089C17.9875 30.3428 17.9992 30.4911 17.9647 30.6321C17.9301 30.7732 17.8511 30.8993 17.7393 30.9919C17.6275 31.0846 17.4889 31.1388 17.3439 31.1466C17.199 31.1543 17.0553 31.1152 16.9343 31.0351C16.8133 30.9549 16.7212 30.8379 16.6718 30.7014C16.6224 30.5649 16.6182 30.4161 16.6599 30.2771C16.7015 30.138 16.7868 30.016 16.9032 29.9292C17.0195 29.8423 17.1607 29.7952 17.3059 29.7948L17.3073 29.7921Z" fill="white"/>
<rect x="0.5" y="0.5" width="49" height="49" rx="24.5" stroke="black"/>
</svg>
