<svg width="50" height="50" viewBox="0 0 50 50" fill="none" xmlns="http://www.w3.org/2000/svg">
<rect x="0.5" y="0.5" width="49" height="49" rx="24.5" fill="white"/>
<path d="M29.3639 41.8177H29.7807L36.4887 38.4637L36.5997 38.3065V11.5112L36.4887 11.354L29.7807 8H29.3639V41.8177Z" fill="#5294CF"/>
<path d="M20.6361 41.8177H20.2193L13.5112 38.4637L13.3725 38.2226L13.3071 11.6506L13.5112 11.354L20.2193 8H20.6361V41.8177Z" fill="#1F5B98"/>
<path d="M29.7714 8H20.2285V41.8177H29.7714V8Z" fill="#2D72B8"/>
<path d="M40 24.1493L39.7781 24.103L36.535 23.7972L36.4888 23.825L29.7715 23.5561H20.2285L13.5112 23.825V18.7015H13.502L13.5112 18.683L20.2285 17.1262H29.7715L36.4888 18.683L38.9624 19.998V19.1552L40 19.0443L39.8983 18.8309L36.5905 16.4683L36.4888 16.496L29.7715 14.4207H20.2285L13.5112 16.496V11.354L10 15.4676V19.0628L10.0277 19.0443L11.0376 19.1552V20.0172L10 20.5727V24.1493H10.0277L11.0376 24.1678V25.6684L10.1664 25.6777L10 25.6592V29.2451L11.0376 29.8005V30.6717L10.037 30.7827L10 30.755V34.3408L13.5112 38.4637V33.3124L20.2285 35.397H29.7715L36.5073 33.3124L36.5997 33.3494L39.8613 31.0238L40 30.7919L38.9624 30.6717V29.8197L38.8236 29.7635L36.5905 30.9683L36.5073 31.1347L29.7715 32.6823H20.2285L13.5112 31.1255V25.9927L20.2285 26.2523V26.2616H29.7715L36.4888 25.9927L36.646 26.0575L39.7873 25.7893L40 25.6777L38.9624 25.6684V24.1678L40 24.1493Z" fill="#1A476F"/>
<path d="M36.4888 33.3124V38.4637L40 34.3408V30.7735L36.5073 33.3124H36.4888Z" fill="#2D72B8"/>
<path d="M36.4888 31.144L36.5073 31.1347L40 29.2543V25.6684L36.4888 25.9927V31.144Z" fill="#2D72B8"/>
<path d="M36.5073 18.6922L36.4888 18.683V23.825L40 24.1493V20.5542L36.5073 18.6922Z" fill="#2D72B8"/>
<path d="M36.5073 16.5238L40 19.0443V15.4676L36.4888 11.354V16.496L36.5073 16.5053V16.5238Z" fill="#2D72B8"/>
<rect x="0.5" y="0.5" width="49" height="49" rx="24.5" stroke="black"/>
</svg>
