<svg width="70" height="70" viewBox="0 0 70 70" fill="none" xmlns="http://www.w3.org/2000/svg">
<rect width="70" height="70" rx="35" fill="#454650"/>
<path d="M13.4839 29.5454C13.4162 29.5454 13.3485 29.4419 13.4162 29.3384L13.8901 28.3036C13.9579 28.2001 14.0256 28.0966 14.161 28.0966H22.6913C22.759 28.0966 22.8267 28.2001 22.759 28.3036L22.3528 29.2349C22.2851 29.3384 22.2174 29.4419 22.082 29.4419L13.4839 29.5454ZM9.89579 32.8568C9.82809 32.8568 9.76039 32.7533 9.82809 32.6498L10.302 31.615C10.3697 31.5115 10.4374 31.408 10.5728 31.408H21.4727C21.5404 31.408 21.6081 31.5115 21.6081 31.615L21.405 32.6498C21.405 32.7533 21.2696 32.8568 21.2019 32.8568H9.89579ZM15.6504 36.2717C15.5827 36.2717 15.515 36.1682 15.5827 36.0647L15.9212 35.1334C15.9889 35.0299 16.0566 34.9264 16.192 34.9264H20.9311C20.9988 34.9264 21.0665 35.0299 21.0665 35.1334L20.9988 35.9613C20.9988 36.0647 20.9311 36.1682 20.8634 36.1682L15.6504 36.2717ZM40.4289 28.821L36.4346 30.3732C36.0961 30.4767 36.0284 30.5802 35.7576 29.9593C35.4191 29.3384 35.1483 28.9245 34.6066 28.614C33.1172 27.4757 31.6278 27.7862 30.2738 29.1314C28.649 30.6837 27.8366 33.0638 27.8366 36.0647C27.8366 38.9622 29.1906 41.3423 31.0862 41.7563C32.711 42.0667 34.065 41.2388 35.1483 39.3762C35.3514 38.9622 35.5545 38.5483 35.8253 38.0309H31.2216C30.7477 38.0309 30.6123 37.5135 30.7477 36.8926C31.0862 35.7543 31.6278 33.8916 31.9663 32.9603C32.034 32.7533 32.2371 32.3394 32.5756 32.3394H41.2413C41.1736 33.3742 41.1736 34.3055 41.1059 35.3404C40.8351 37.9274 40.2258 40.411 39.1426 42.4806C37.4501 45.8955 35.216 48.0687 32.3725 48.6896C30.003 49.207 27.8366 48.4826 25.9409 46.3095C24.1807 44.2398 23.1652 41.5493 22.8944 38.2379C22.5559 34.3055 23.3683 30.6837 24.9254 27.5792C26.6179 24.1643 28.8521 21.9912 31.6278 21.2668C33.8619 20.6459 36.0284 21.0598 37.924 23.026C39.2103 24.2678 40.0904 26.027 40.6997 28.2001C40.7674 28.614 40.6997 28.7175 40.4289 28.821Z" fill="#62CDFE"/>
<path d="M48.2822 49C46.1157 48.8965 44.1524 47.9652 42.4599 45.792C41.0382 43.9294 40.1581 41.5493 39.8873 38.7553C39.4811 34.616 40.2258 30.9941 41.8506 27.7862C43.6108 24.2678 45.7095 22.5086 48.553 21.6807C50.9902 21.0598 53.292 21.3703 55.3231 23.5434C57.2187 25.5095 58.3696 28.2001 58.7081 31.7185C59.1143 36.6856 58.1665 40.6179 56.0001 44.0328C54.443 46.5164 52.4796 47.9652 50.3132 48.6895C49.5685 48.8965 48.8915 48.8965 48.2822 49ZM53.9691 34.3055C53.9691 33.7881 53.9691 33.4777 53.9014 33.0637C53.4952 29.4419 51.3287 27.3722 49.0269 28.2001C46.7928 28.9245 45.371 31.0976 44.8294 34.5125C44.4232 37.3065 45.3033 40.204 46.9959 41.4458C48.2822 42.2736 49.6362 42.1702 50.8548 41.2388C52.8181 39.7901 53.8337 37.41 53.9691 34.3055Z" fill="#62CDFE"/>
</svg>
