<svg width="50" height="50" viewBox="0 0 50 50" fill="none" xmlns="http://www.w3.org/2000/svg">
<rect x="0.5" y="0.5" width="49" height="49" rx="24.5" fill="white"/>
<path d="M9.63135 21.1038C9.583 21.1038 9.53464 21.0299 9.583 20.956L9.9215 20.2168C9.96986 20.1429 10.0182 20.069 10.1149 20.069H16.208C16.2564 20.069 16.3047 20.1429 16.2564 20.2168L15.9662 20.8821C15.9179 20.956 15.8695 21.0299 15.7728 21.0299L9.63135 21.1038ZM7.06839 23.4691C7.02003 23.4691 6.97167 23.3952 7.02003 23.3213L7.35854 22.5822C7.40689 22.5082 7.45525 22.4343 7.55197 22.4343H15.3376C15.3859 22.4343 15.4343 22.5082 15.4343 22.5822L15.2892 23.3213C15.2892 23.3952 15.1925 23.4691 15.1441 23.4691H7.06839ZM11.1788 25.9084C11.1304 25.9084 11.0821 25.8344 11.1304 25.7605L11.3722 25.0953C11.4206 25.0214 11.469 24.9475 11.5657 24.9475H14.9507C14.9991 24.9475 15.0474 25.0214 15.0474 25.0953L14.9991 25.6866C14.9991 25.7605 14.9507 25.8344 14.9024 25.8344L11.1788 25.9084ZM28.8778 20.5864L26.0247 21.6952C25.7829 21.7691 25.7345 21.843 25.5411 21.3995C25.2993 20.956 25.1059 20.6603 24.719 20.4386C23.6551 19.6255 22.5913 19.8473 21.6241 20.8082C20.4635 21.9169 19.8832 23.617 19.8832 25.7605C19.8832 27.8302 20.8504 29.5302 22.2044 29.8259C23.365 30.0476 24.3321 29.4563 25.1059 28.1258C25.2509 27.8302 25.396 27.5345 25.5894 27.1649H22.3011C21.9626 27.1649 21.8659 26.7953 21.9626 26.3519C22.2044 25.5388 22.5913 24.2083 22.833 23.5431C22.8814 23.3952 23.0265 23.0996 23.2683 23.0996H29.4581C29.4097 23.8387 29.4097 24.504 29.3613 25.2431C29.1679 27.091 28.7327 28.865 27.959 30.3433C26.75 32.7825 25.1542 34.3348 23.1232 34.7783C21.4307 35.1478 19.8832 34.6304 18.5292 33.0782C17.2719 31.5999 16.5465 29.6781 16.3531 27.3128C16.1113 24.504 16.6916 21.9169 17.8038 19.6994C19.0128 17.2602 20.6086 15.708 22.5913 15.1906C24.1871 14.7471 25.7345 15.0427 27.0885 16.4471C28.0073 17.3341 28.636 18.5907 29.0712 20.1429C29.1196 20.4386 29.0712 20.5125 28.8778 20.5864Z" fill="#00ACD7"/>
<path d="M34.4872 35C32.9398 34.9261 31.5374 34.2608 30.3285 32.7086C29.3129 31.3781 28.6843 29.6781 28.4909 27.6823C28.2007 24.7257 28.7327 22.1387 29.8932 19.8473C31.1505 17.3341 32.6496 16.0776 34.6807 15.4862C36.4215 15.0427 38.0657 15.2645 39.5164 16.8167C40.8705 18.2211 41.6926 20.1429 41.9343 22.6561C42.2245 26.204 41.5475 29.0128 40 31.452C38.8878 33.226 37.4854 34.2608 35.938 34.7782C35.406 34.9261 34.9225 34.9261 34.4872 35ZM38.5493 24.504C38.5493 24.1344 38.5493 23.9126 38.5009 23.617C38.2108 21.0299 36.6633 19.5516 35.0192 20.1429C33.4234 20.6603 32.4078 22.2126 32.021 24.6518C31.7308 26.6475 32.3595 28.7172 33.5684 29.6041C34.4872 30.1955 35.4544 30.1216 36.3248 29.4563C37.7272 28.4215 38.4526 26.7214 38.5493 24.504Z" fill="#00ACD7"/>
<rect x="0.5" y="0.5" width="49" height="49" rx="24.5" stroke="black"/>
</svg>
