<svg width="40" height="45" viewBox="0 0 40 45" fill="none" xmlns="http://www.w3.org/2000/svg">
<path d="M35.2713 45H4.72868C3.47613 44.9954 2.27633 44.542 1.39064 43.7386C0.50494 42.9353 0.00510211 41.847 0 40.7109V4.28906C0.00510211 3.15296 0.50494 2.0647 1.39064 1.26135C2.27633 0.457996 3.47613 0.00462778 4.72868 0L35.2713 0C36.5239 0.00462778 37.7237 0.457996 38.6094 1.26135C39.4951 2.0647 39.9949 3.15296 40 4.28906V40.7109C39.9949 41.847 39.4951 42.9353 38.6094 43.7386C37.7237 44.542 36.5239 44.9954 35.2713 45Z" fill="#6762A6"/>
<path d="M25.2052 38.5714V20.9957C25.2052 20.9957 26.4972 16.7855 9.25029 22.7248C9.23071 22.8804 9.23071 6.45451 9.23071 6.45451L14.8492 6.42857V16.8028C14.8492 16.8028 30.6083 11.3131 30.6083 20.9525V38.4677H25.1758L25.2052 38.5714ZM28.4157 12.7569H22.5428C24.6962 10.4227 26.6538 6.44586 26.6538 6.44586H32.8205C32.8205 6.44586 31.7633 9.03942 28.5136 12.7569H28.4157ZM9.3286 38.5368V28.5343L15.0058 33.5486L9.3286 38.5628V38.5368Z" fill="white"/>
</svg>
