<svg width="40" height="50" viewBox="0 0 40 50" fill="none" xmlns="http://www.w3.org/2000/svg">
<path d="M35.2713 50H4.72868C3.47613 49.9949 2.27633 49.4911 1.39064 48.5985C0.50494 47.7059 0.00510211 46.4967 0 45.2344V4.76563C0.00510211 3.50329 0.50494 2.29412 1.39064 1.4015C2.27633 0.508884 3.47613 0.00514197 4.72868 0L35.2713 0C36.5239 0.00514197 37.7237 0.508884 38.6094 1.4015C39.4951 2.29412 39.9949 3.50329 40 4.76563V45.2344C39.9949 46.4967 39.4951 47.7059 38.6094 48.5985C37.7237 49.4911 36.5239 49.9949 35.2713 50Z" fill="#6762A6"/>
<path d="M25.2052 42.8571V23.3286C25.2052 23.3286 26.4972 18.6506 9.25029 25.2498C9.23071 25.4227 9.23071 7.17167 9.23071 7.17167L14.8492 7.14286V18.6698C14.8492 18.6698 30.6083 12.5701 30.6083 23.2806V42.7419H25.1758L25.2052 42.8571ZM28.4157 14.1743H22.5428C24.6962 11.5807 26.6538 7.16207 26.6538 7.16207H32.8205C32.8205 7.16207 31.7633 10.0438 28.5136 14.1743H28.4157ZM9.3286 42.8187V31.7048L15.0058 37.2762L9.3286 42.8475V42.8187Z" fill="white"/>
</svg>
