<svg width="50" height="50" viewBox="0 0 50 50" fill="none" xmlns="http://www.w3.org/2000/svg">
<rect x="0.5" y="0.5" width="49" height="49" rx="24.5" fill="white"/>
<path d="M19.6981 34.8317C19.6981 34.8317 18.1342 35.6732 20.7851 35.9139C23.9764 36.2739 25.6762 36.2143 29.2082 35.6135C29.9181 35.9982 30.6689 36.3204 31.4497 36.5754C23.5034 39.5815 13.4478 36.3954 19.6981 34.8317ZM18.6809 30.9245C18.6809 30.9245 16.9823 32.0664 19.6319 32.3083C23.0966 32.6086 25.8136 32.6683 30.5025 31.8279C30.9586 32.2371 31.5169 32.5458 32.1325 32.729C22.5537 35.2535 11.8204 32.9686 18.6809 30.9245ZM37.4305 37.7758C37.4305 37.7758 38.5849 38.6173 36.14 39.2788C31.5883 40.4826 17.051 40.8426 12.9748 39.2788C11.5483 38.7388 14.2653 37.9569 15.1362 37.8366C16.0199 37.6566 16.4966 37.6566 16.4966 37.6566C14.9328 36.6947 6.10284 39.64 12.0136 40.4803C28.2496 42.8249 41.6325 39.4588 37.4203 37.7758H37.4305ZM20.4329 26.8362C20.4329 26.8362 13.0282 28.4 17.7833 28.94C19.8214 29.1807 23.8289 29.12 27.5656 28.8804C30.622 28.6396 33.6811 28.1603 33.6811 28.1603C33.6811 28.1603 32.594 28.5811 31.8464 29.0019C24.3069 30.7456 9.83571 29.9637 13.9805 28.1603C17.5125 26.6573 20.4342 26.8385 20.4342 26.8385L20.4329 26.8362ZM33.6811 33.3883C41.2892 29.9007 37.7572 26.537 35.311 26.9566C34.7007 27.077 34.4274 27.1973 34.4274 27.1973C34.4274 27.1973 34.6308 26.8373 35.1063 26.717C39.9301 25.2139 43.7341 31.2249 33.5425 33.5683C33.5425 33.5683 33.6099 33.5086 33.6785 33.3883H33.6811ZM21.1831 42.8856C28.5191 43.3064 39.7292 42.6449 40 39.5781C40 39.5781 39.4571 40.7819 33.9544 41.6819C27.7042 42.7034 19.96 42.5819 15.4083 41.9226C15.4083 41.9226 16.3593 42.6437 21.1831 42.8856Z" fill="#4E7896"/>
<path d="M29.0736 7C29.0736 7 33.2858 10.7868 25.0661 16.4973C18.4763 21.1256 23.5722 23.7706 25.0661 26.7766C21.1933 23.7109 18.4089 21.0053 20.311 18.4819C23.0954 14.7536 30.7722 12.9614 29.0736 7ZM26.9122 24.2521C28.8828 26.2355 26.3693 28.0388 26.3693 28.0388C26.3693 28.0388 31.3964 25.7551 29.0863 22.929C26.9808 20.2245 25.3483 18.9015 34.1808 14.3936C34.1808 14.3936 20.255 17.4592 26.9122 24.2521Z" fill="#F58219"/>
<rect x="0.5" y="0.5" width="49" height="49" rx="24.5" stroke="black"/>
</svg>
