<svg width="47" height="50" viewBox="0 0 47 50" fill="none" xmlns="http://www.w3.org/2000/svg">
<path d="M45.5671 38.4729L24.9329 49.6378C24.4979 49.875 24.0034 50 23.5 50C22.9966 50 22.5021 49.875 22.0671 49.6378L1.43295 38.4729C0.544539 37.9898 0 37.1043 0 36.1649V13.8351C0 12.869 0.544539 12.0102 1.43295 11.5271L22.0671 0.362227C22.5021 0.124988 22.9966 0 23.5 0C24.0034 0 24.4979 0.124988 24.9329 0.362227L45.5671 11.5271C46.4556 12.0102 47 12.8959 47 13.8351V36.1649C46.9714 37.1041 46.4268 37.9898 45.5671 38.4729Z" fill="#8D6748"/>
<path d="M23.4714 3.39519C23.0416 3.39519 22.6116 3.50247 22.2391 3.71722L4.41343 13.3522C3.63959 13.7549 3.18115 14.5331 3.18115 15.3381V34.6082C3.18115 35.4402 3.63959 36.1917 4.41343 36.5944L22.2391 46.2294C22.6116 46.4442 23.0414 46.5514 23.4714 46.5514C23.901 46.5514 24.3312 46.4442 24.7037 46.2294L42.5293 36.5942C43.3032 36.1917 43.7616 35.4134 43.7616 34.6084V15.3381C43.7616 14.5062 43.3032 13.7549 42.5293 13.3522L24.7037 3.71705C24.331 3.50247 23.9012 3.39519 23.4714 3.39519ZM23.4714 4.20035C23.7578 4.20035 24.0159 4.28082 24.2737 4.4151L42.0994 14.0501C42.5866 14.3183 42.9017 14.8284 42.9017 15.3652V34.6352C42.9017 35.172 42.5866 35.6818 42.0994 35.9502L24.2739 45.5852C24.0159 45.7193 23.758 45.7999 23.4714 45.7999C23.1879 45.7988 22.9102 45.7244 22.6689 45.585L4.84323 35.9503C4.35597 35.682 4.04074 35.1722 4.04074 34.6354V15.3652C4.04074 14.8284 4.35597 14.3185 4.84304 14.0499L22.6687 4.4151C22.9267 4.28082 23.2132 4.20018 23.471 4.20018L23.4714 4.20035ZM21.8234 21.0012H24.2307C24.3168 21.0012 24.3741 20.9742 24.4314 20.9206C25.8643 19.4177 26.0077 16.2775 26.0077 15.3382C26.0077 15.2041 25.893 15.0698 25.7211 15.0698H20.3332C20.19 15.0698 20.0466 15.1771 20.0466 15.3382C20.0466 16.2507 20.19 19.3909 21.623 20.9206C21.6802 20.9742 21.7375 21.0012 21.8234 21.0012ZM21.1643 15.9018H24.9473C25.0905 15.9018 25.2339 16.0091 25.2339 16.1702C25.2339 16.9217 25.0905 19.0419 24.1162 20.1422C24.0302 20.196 23.973 20.2229 23.8869 20.2229H22.1961C22.11 20.2229 22.0528 20.196 21.9955 20.1422C21.021 19.0688 20.9064 16.9217 20.8778 16.1702C20.8778 16.0361 20.9923 15.9018 21.1643 15.9018ZM23.5716 14.5332C23.5716 14.5332 24.6034 13.9695 23.9728 12.9497C23.6003 12.4128 23.4284 11.9566 23.5716 11.7687C23.1991 12.1982 22.5686 12.6543 23.2564 13.6206C23.4859 13.8622 23.6003 14.3721 23.5716 14.5332ZM22.4253 14.6135C22.4253 14.6135 23.113 14.2379 22.6832 13.54C22.4253 13.1911 22.3107 12.8691 22.4253 12.7616C22.1673 13.0568 21.7662 13.352 22.2246 14.0231C22.368 14.1572 22.4253 14.5062 22.4253 14.6135ZM22.3393 19.9008H23.7723C23.8296 19.9008 23.8869 19.874 23.9441 19.8204C24.4314 19.2836 24.6607 18.4516 24.7753 17.7269C24.7753 17.7269 24.7466 17.9685 24.0589 18.21C23.1134 18.5321 21.4509 18.3173 21.4509 18.3173C21.5941 18.8809 21.8236 19.4177 22.1673 19.8204C22.196 19.874 22.2821 19.9008 22.3393 19.9008ZM11.5637 27.4424V22.0748H10.5034L8.75524 24.5976L7.00706 22.0748H5.94662V27.4692H6.9496V23.6313L8.72642 26.1272H8.75506L10.5607 23.6045V27.4424H11.5637ZM17.9834 22.1821C17.6107 22.0479 17.2095 21.9673 16.7798 21.9673C16.3498 21.9673 15.9486 22.021 15.5759 22.1822C15.2032 22.3163 14.8882 22.5309 14.6302 22.7725C14.3594 23.0255 14.145 23.3266 13.9998 23.6581C13.8566 24.0071 13.7703 24.3558 13.7703 24.7317V24.7585C13.7703 25.1342 13.8566 25.51 13.9998 25.832C14.143 26.1811 14.3437 26.4761 14.6016 26.7177C14.8595 26.9592 15.1748 27.174 15.5471 27.3081C15.9198 27.4424 16.3211 27.523 16.7509 27.523C17.1809 27.523 17.5821 27.4692 17.9548 27.3081C18.3273 27.174 18.6425 26.9592 18.9003 26.7177C19.1712 26.4647 19.3856 26.1637 19.5309 25.8322C19.6741 25.4832 19.7602 25.1342 19.7602 24.7585V24.7317C19.7602 24.3558 19.6739 23.9803 19.5307 23.6581C19.3875 23.3093 19.187 23.014 18.9291 22.7726C18.6711 22.5309 18.3559 22.3162 17.9834 22.1821ZM18.6711 24.7853C18.6711 25.0269 18.6139 25.2684 18.5278 25.51C18.4132 25.7246 18.2986 25.9393 18.1266 26.1004C17.9506 26.2642 17.7473 26.4001 17.5248 26.5029C17.2953 26.6104 17.0375 26.664 16.7509 26.664C16.4932 26.664 16.2066 26.6104 15.9773 26.5029C15.7547 26.4002 15.5515 26.2643 15.3754 26.1006C15.2034 25.9125 15.0602 25.7246 14.9741 25.4834C14.8882 25.2416 14.8309 25.0002 14.8309 24.7317V24.7048C14.8309 24.4633 14.8882 24.2217 14.9741 23.9801C15.0889 23.7654 15.2034 23.5508 15.3754 23.3897C15.5515 23.2259 15.7547 23.0899 15.9773 22.987C16.2066 22.8798 16.4643 22.8261 16.7509 22.8261C17.0373 22.8261 17.2955 22.8798 17.5248 22.987C17.7473 23.0899 17.9506 23.2259 18.1266 23.3897C18.2986 23.5776 18.4418 23.7654 18.5278 24.007C18.6139 24.2485 18.671 24.4901 18.671 24.7585V24.7853H18.6711ZM22.9125 23.9801C23.0271 23.7654 23.1418 23.5506 23.3137 23.3897C23.4898 23.226 23.693 23.09 23.9155 22.987C24.1448 22.8798 24.3741 22.8261 24.6607 22.8261C25.0046 22.8261 25.2912 22.8798 25.5491 23.0139C25.8071 23.1481 26.0364 23.3093 26.2655 23.497L26.9248 22.7993C26.7814 22.6652 26.6382 22.5577 26.4948 22.4503C26.3516 22.343 26.1796 22.2625 26.0077 22.1821C25.8071 22.1282 25.635 22.0746 25.4057 22.021C25.1766 21.9941 24.9473 21.9673 24.6893 21.9673C24.2307 21.9673 23.8582 22.0478 23.4857 22.1819C23.1132 22.3162 22.798 22.5309 22.54 22.7725C22.2871 23.0335 22.0835 23.333 21.9382 23.6581C21.788 23.9986 21.7101 24.3633 21.7089 24.7317V24.7585C21.7089 25.1342 21.7948 25.483 21.9382 25.832C22.0814 26.1811 22.2821 26.4761 22.54 26.7177C22.798 26.9592 23.1132 27.174 23.4571 27.3081C23.8198 27.4514 24.2097 27.5245 24.6034 27.523C24.8614 27.523 25.1191 27.523 25.3771 27.4692C25.5778 27.4424 25.8071 27.3617 25.9789 27.2813C26.1509 27.2008 26.323 27.1202 26.4948 26.9861C26.6668 26.8519 26.81 26.7445 26.9534 26.5834L26.2943 25.9661C26.0364 26.1811 25.7784 26.342 25.5491 26.4761C25.3198 26.6104 25.0046 26.664 24.6607 26.664C24.4028 26.664 24.1448 26.5834 23.9155 26.5029C23.6864 26.4225 23.4857 26.2614 23.3137 26.1006C23.1418 25.9125 22.9984 25.7246 22.9125 25.483C22.8266 25.2416 22.7691 25 22.7691 24.7317V24.7048C22.7691 24.4633 22.8266 24.2217 22.9125 23.9801ZM28.9595 22.0748V27.4424H29.9625V25.188H32.7139V27.4424H33.7168V22.0746H32.7139V24.3023H29.9625V22.0746H28.9595V22.0748ZM39.9643 26.1542L40.5375 27.4425H41.5978L39.0759 22.0479H38.1587L35.6369 27.4424H36.6687L37.2703 26.1541L39.9643 26.1542ZM38.6173 23.1751L39.5916 25.3223H37.643L38.6173 23.1751ZM5.23024 29.4282H41.7698V29.133H5.23024V29.4282ZM26.237 19.0417C26.237 19.149 26.2082 19.2296 26.2082 19.3371H41.7698V19.0417H26.2369H26.237ZM19.8461 19.0417H5.23024V19.3371H19.8748C19.8748 19.2298 19.8461 19.1491 19.8461 19.0417Z" fill="white"/>
</svg>
