<svg width="50" height="50" viewBox="0 0 50 50" fill="none" xmlns="http://www.w3.org/2000/svg">
<rect x="0.5" y="0.5" width="49" height="49" rx="24.5" fill="white"/>
<path fill-rule="evenodd" clip-rule="evenodd" d="M30.5211 35.6889C30.5649 35.5927 30.6068 35.5079 30.6425 35.42C30.6651 35.3638 30.6997 35.3526 30.7487 35.3541C31.042 35.3635 31.3353 35.3739 31.6289 35.3771C31.8782 35.3801 32.128 35.3748 32.3775 35.3715C32.6587 35.3677 32.9398 35.3508 33.2207 35.36C33.5948 35.3724 33.9593 35.4561 34.2976 35.6463C34.7017 35.8737 35.0075 36.2201 35.2159 36.6764C35.3469 36.9658 35.4287 37.281 35.4569 37.6052C35.5014 38.0807 35.4721 38.5454 35.3401 39.0003C35.1765 39.564 34.8659 39.9955 34.4343 40.3188C34.1022 40.5676 33.7379 40.7146 33.3475 40.7986C32.9344 40.8876 32.5199 40.8589 32.1054 40.8604C31.6509 40.8624 31.1965 40.8512 30.7419 40.8453C30.6625 40.8444 30.6511 40.8272 30.672 40.7406L30.6915 40.6607C30.7357 40.5016 30.7595 40.4945 30.9009 40.4679C31.0011 40.4499 31.0969 40.4083 31.1823 40.3457C31.2299 40.3097 31.2496 40.2156 31.2682 40.1431C31.2843 40.0798 31.2851 40.0103 31.2856 39.9435C31.2921 38.9305 31.2988 37.9178 31.3024 36.9054C31.3034 36.6493 31.2978 36.3932 31.2856 36.1376C31.2768 35.9586 31.1932 35.8362 31.0068 35.7939C30.8618 35.761 30.7158 35.7356 30.57 35.7063L30.5211 35.6889ZM34.6828 38.1417C34.6632 37.94 34.6536 37.7365 34.622 37.5377C34.5464 37.0606 34.3636 36.6451 34.0426 36.3195C33.5236 35.7933 32.8986 35.7122 32.2437 35.7749C32.0946 35.7891 32.0625 35.8474 32.0601 36.0225C32.0565 36.2709 32.0529 36.5194 32.0526 36.7678C32.0516 37.5558 32.0516 38.3437 32.0526 39.1316C32.0529 39.3558 32.055 39.58 32.0607 39.8036C32.0669 40.0325 32.1396 40.2262 32.3358 40.315C32.6452 40.4549 32.9706 40.4714 33.2952 40.4144C33.8138 40.3236 34.1765 39.9784 34.4198 39.4611C34.6124 39.0506 34.6668 38.6025 34.6828 38.1417ZM35.9433 40.8246C35.9371 40.7018 35.9811 40.6004 36.0355 40.5072C36.0502 40.4821 36.101 40.4833 36.1359 40.4753L36.4326 40.4081C36.5374 40.3827 36.5926 40.3023 36.6073 40.1848C36.6172 40.1073 36.6265 40.029 36.6273 39.9506C36.6343 39.3304 36.6394 38.7102 36.6425 38.0899C36.6451 37.4688 36.643 36.8477 36.643 36.2266L36.6407 36.108C36.6301 35.9083 36.5457 35.8048 36.3723 35.7755L35.9961 35.7102C35.9498 35.7031 35.9329 35.6776 35.9498 35.6306C35.9788 35.5505 36.0065 35.4673 36.0474 35.3952C36.0626 35.3686 36.1142 35.3582 36.1489 35.3591C36.3285 35.3621 36.5082 35.3774 36.6878 35.3771L38.2517 35.3665C38.553 35.3662 38.844 35.4262 39.1143 35.591C39.4117 35.772 39.5782 36.0521 39.6258 36.4336C39.6755 36.8344 39.5691 37.1721 39.3129 37.4404C39.2075 37.551 39.0711 37.6232 38.9489 37.7131L38.909 37.7415C39.0224 37.7891 39.1303 37.8302 39.2354 37.8793C39.543 38.0234 39.7876 38.2484 39.9171 38.6078C40.0193 38.8914 40.0193 39.1872 39.9587 39.4812C39.8645 39.9414 39.5992 40.2475 39.2541 40.4791C38.9302 40.6965 38.5797 40.8231 38.2064 40.8444C37.8621 40.8642 37.5162 40.8568 37.1712 40.8613L36.9713 40.8624C36.6387 40.8537 36.3061 40.8442 35.9736 40.834L35.9433 40.8246ZM37.3767 39.0237H37.3801C37.3801 39.2183 37.3777 39.4129 37.3808 39.6075C37.3829 39.7335 37.379 39.863 37.4029 39.9843C37.4386 40.1656 37.5111 40.3292 37.6892 40.3812C37.9273 40.4527 38.176 40.4652 38.4187 40.4179C38.7234 40.3573 38.9665 40.1828 39.0998 39.8512C39.1987 39.6048 39.2134 39.3437 39.1795 39.0769C39.1345 38.7255 38.9711 38.4706 38.6996 38.3035C38.5215 38.1937 38.3314 38.1266 38.129 38.1177C37.9022 38.108 37.6752 38.1074 37.4484 38.0994C37.3847 38.0973 37.3759 38.1343 37.3762 38.194C37.3775 38.4703 37.3767 38.7468 37.3767 39.0237ZM37.8595 37.7001C37.9835 37.693 38.1238 37.6909 38.2634 37.675C38.5305 37.6445 38.7187 37.491 38.8168 37.1991C38.8668 37.0509 38.8647 36.8983 38.866 36.7442C38.8699 36.3428 38.6649 36.0139 38.3312 35.8779C38.0736 35.7729 37.808 35.7711 37.5408 35.7794C37.4326 35.7826 37.3842 35.8368 37.3827 35.9613L37.3666 37.5847C37.3658 37.6492 37.3902 37.677 37.445 37.6791L37.8595 37.7001Z" fill="#94795D"/>
<path fill-rule="evenodd" clip-rule="evenodd" d="M10.6611 40.5126L10.6422 40.7918C10.4662 40.7918 10.3038 40.7903 10.1415 40.7924C9.83579 40.7959 9.53006 40.8015 9.22406 40.8065L9.19455 40.8086C9.1508 40.8027 9.07133 40.8027 9.06926 40.7879C9.05631 40.7048 9.06045 40.6176 9.06382 40.5315C9.06408 40.5217 9.09385 40.5093 9.11119 40.5046L9.3491 40.4439C9.49744 40.3999 9.54973 40.3268 9.55672 40.1517C9.56475 39.9544 9.57277 39.7569 9.57355 39.5596C9.57588 39.0739 9.57329 38.5889 9.5751 38.1032C9.57536 37.9897 9.54093 37.9051 9.44825 37.8589C9.33812 37.8031 9.22722 37.7492 9.11559 37.6974C9.06278 37.6732 8.99418 37.6599 9.00039 37.5788C9.00661 37.4963 9.07314 37.4747 9.13579 37.4585C9.39518 37.3907 9.65484 37.3248 9.91345 37.2526C9.99681 37.2292 10.0765 37.1899 10.1762 37.1503C10.1814 37.2118 10.191 37.2703 10.1899 37.3289L10.1747 37.6072C10.1744 37.6386 10.1886 37.6806 10.2091 37.698C10.2215 37.709 10.2632 37.6892 10.2839 37.6708C10.505 37.4786 10.739 37.3126 11.0059 37.2159C11.4193 37.066 11.7743 37.205 12.0228 37.6123C12.1103 37.7557 12.1105 37.7557 12.232 37.6554C12.4404 37.4824 12.6583 37.3298 12.9022 37.2292C13.4376 37.0083 13.9519 37.2887 14.1381 37.9048C14.2059 38.1284 14.2318 38.3594 14.2313 38.5954L14.2264 40.1624C14.2261 40.2916 14.2636 40.3653 14.3713 40.4055C14.4922 40.4507 14.6175 40.4818 14.7537 40.5226L14.7221 40.7921C14.5673 40.7921 14.4249 40.7909 14.2825 40.7924C13.9346 40.7959 13.5867 40.798 13.239 40.8071C13.1784 40.8089 13.1626 40.7918 13.1595 40.727C13.1494 40.5197 13.1479 40.52 13.3187 40.4732L13.3762 40.4564C13.5432 40.4043 13.5988 40.3457 13.6001 40.1523C13.604 39.5969 13.6141 39.0399 13.5895 38.4857C13.5639 37.9107 13.1644 37.6046 12.6767 37.7519C12.5193 37.8011 12.371 37.8827 12.2392 37.9926C12.1939 38.0296 12.1854 38.0722 12.189 38.1369C12.2027 38.3818 12.2112 38.627 12.2131 38.8722C12.2162 39.3014 12.2115 39.7305 12.2131 40.16C12.2136 40.3339 12.2656 40.4005 12.416 40.4407L12.6394 40.4995L12.6809 40.5102C12.684 40.5918 12.6868 40.6735 12.6834 40.7551C12.6814 40.8063 12.6467 40.8107 12.6078 40.8098C12.3907 40.8036 12.1732 40.7953 11.956 40.7959C11.6917 40.7965 11.4276 40.8051 11.1636 40.8104H11.1014C11.1014 40.7237 11.0978 40.6409 11.104 40.5584C11.1053 40.5386 11.1359 40.5108 11.1568 40.5046L11.4173 40.4416C11.5278 40.4105 11.5806 40.3457 11.5868 40.2174C11.6163 39.6229 11.6376 39.0281 11.5886 38.4339C11.5767 38.3165 11.5482 38.2022 11.5043 38.0952C11.3709 37.7587 11.0709 37.6182 10.7248 37.7193C10.5604 37.7672 10.4121 37.8533 10.2717 37.9619C10.2411 37.9834 10.216 38.0137 10.1988 38.0497C10.1817 38.0858 10.1731 38.1264 10.1739 38.1674C10.1739 38.7604 10.1757 39.3534 10.1772 39.9462L10.1801 40.1748C10.1832 40.3342 10.2425 40.4182 10.381 40.4525C10.47 40.4756 10.5601 40.4913 10.6611 40.5126Z" fill="#50382B"/>
<path fill-rule="evenodd" clip-rule="evenodd" d="M26.3123 37.2109C26.3524 37.4339 26.3517 37.6344 26.2082 37.7865C26.0659 37.9376 25.8857 37.8867 25.7099 37.853C25.7262 37.9589 25.7443 38.0488 25.7531 38.1399C25.8171 38.8169 25.5621 39.3194 25.0125 39.6066C24.8049 39.7149 24.5846 39.7551 24.3596 39.7758C24.2478 39.7858 24.1499 39.8835 24.1393 39.9885C24.1284 40.0949 24.1869 40.2044 24.3039 40.2363C24.4419 40.2739 24.5859 40.2845 24.7275 40.3031C25.0314 40.3428 25.3387 40.3608 25.639 40.4229C26.093 40.5164 26.3465 40.9692 26.2665 41.4904C26.1953 41.9541 25.9602 42.2916 25.6325 42.5504C25.0803 42.9875 24.4745 43.1153 23.8294 42.8923C23.4605 42.7645 23.2003 42.4874 23.1105 42.039C23.0655 41.8145 23.1134 41.6113 23.2612 41.459C23.437 41.2786 23.6283 41.1177 23.8123 40.9473L23.8719 40.879L23.8035 40.8243C23.6158 40.7225 23.4657 40.5832 23.4074 40.3413C23.3875 40.2594 23.4082 40.2055 23.4691 40.1635C23.5726 40.0923 23.6756 40.0198 23.7779 39.9462C23.8261 39.9118 23.8737 39.8764 23.9185 39.8367C23.9796 39.7835 23.9741 39.7439 23.9011 39.7131C23.7313 39.6415 23.5804 39.5377 23.4634 39.378C23.2679 39.1115 23.2125 38.7941 23.2286 38.459C23.2537 37.9355 23.5025 37.5907 23.9068 37.3688C24.3876 37.1053 24.8698 37.0887 25.3599 37.3289C25.5411 37.4176 25.7322 37.4366 25.9266 37.4212C26.0718 37.4094 26.1987 37.3467 26.3123 37.2109ZM24.5408 40.9615C24.1799 40.958 24.0668 41.0088 23.855 41.2552C23.6179 41.5315 23.6192 41.9145 23.8558 42.1919C24.0355 42.4022 24.2597 42.5007 24.509 42.5303C24.8002 42.5646 25.087 42.5507 25.3516 42.3842C25.6338 42.2058 25.7741 41.8746 25.7107 41.5409C25.6581 41.2656 25.4805 41.1396 25.2644 41.0671C25.0184 40.9849 24.7642 40.9692 24.5408 40.9615ZM23.832 38.3268C23.8452 38.4413 23.8506 38.5572 23.8729 38.6693C23.9306 38.9598 24.0412 39.215 24.2941 39.3443C24.591 39.4966 24.9703 39.4312 25.1002 38.955C25.189 38.6381 25.1787 38.2958 25.071 37.9867C25.0254 37.8454 24.9432 37.7233 24.8354 37.6365C24.5776 37.4309 24.1124 37.4037 23.9229 37.858C23.8613 38.0056 23.8372 38.1627 23.832 38.3268Z" fill="#4F382B"/>
<path fill-rule="evenodd" clip-rule="evenodd" d="M20.1897 37.1378C20.1992 37.1884 20.2184 37.2458 20.2189 37.3035C20.2197 37.4132 20.2093 37.5229 20.2039 37.6327V37.7279L20.2852 37.6569C20.5078 37.4475 20.747 37.2692 21.0256 37.173C21.5283 37 22.0305 37.3144 22.1944 37.8994C22.2565 38.1219 22.2811 38.3505 22.2835 38.583C22.2886 39.0994 22.2917 39.6158 22.2964 40.1322C22.298 40.3176 22.3166 40.3508 22.4701 40.4043C22.5575 40.4341 22.6466 40.4567 22.7368 40.472C22.7862 40.4809 22.8074 40.5031 22.8048 40.5584L22.8054 40.6093C22.8035 40.8231 22.7906 40.8329 22.6091 40.8323C22.1747 40.8314 21.7406 40.8343 21.3062 40.8385C21.1768 40.8397 21.1765 40.8441 21.1636 40.698L21.161 40.614C21.169 40.488 21.1716 40.4892 21.2801 40.4708C21.3531 40.4584 21.4255 40.4392 21.4967 40.4179C21.57 40.3963 21.6052 40.3345 21.615 40.2517C21.62 40.2097 21.6264 40.1677 21.6262 40.1257C21.62 39.5614 21.628 38.9964 21.6011 38.433C21.5793 37.9772 21.2749 37.7057 20.8744 37.7368C20.6813 37.752 20.4958 37.8281 20.3383 37.9565C20.2313 38.042 20.2099 38.1653 20.2104 38.2981C20.2124 38.8258 20.2168 39.3534 20.2218 39.8814C20.2228 39.997 20.2256 40.1127 20.2352 40.2274C20.2453 40.3528 20.2839 40.4034 20.3916 40.4306C20.4946 40.4566 20.5997 40.4717 20.7097 40.4927L20.7191 40.5897C20.7227 40.816 20.702 40.8329 20.5096 40.832C20.0605 40.8299 19.6113 40.8332 19.1624 40.8388C19.0918 40.84 19.0617 40.8145 19.0635 40.7359L19.0625 40.7021C19.0509 40.4983 19.056 40.4907 19.2248 40.4575L19.3046 40.4392C19.4873 40.3922 19.5342 40.3366 19.5368 40.1245C19.5453 39.4528 19.5484 38.7814 19.5544 38.1097C19.5552 38.0133 19.5233 37.9385 19.4446 37.8986C19.3342 37.8433 19.2231 37.7896 19.1114 37.7377C19.0498 37.7087 18.9794 37.6903 18.9771 37.593C18.9755 37.5244 19.0397 37.4638 19.1275 37.4434C19.3038 37.4025 19.4816 37.3685 19.6559 37.3186C19.8293 37.2692 19.9996 37.2029 20.1897 37.1378Z" fill="#4F372B"/>
<path fill-rule="evenodd" clip-rule="evenodd" d="M29.9014 38.8923C29.8931 39.5197 29.7505 40.0269 29.3622 40.4076C28.8703 40.8905 28.103 41.0547 27.4757 40.6936C27.208 40.5395 27.0113 40.3031 26.8832 39.9964C26.6867 39.5247 26.6375 39.0287 26.74 38.5206C26.8415 38.018 27.1079 37.654 27.5065 37.4182C27.9166 37.176 28.3484 37.0814 28.8038 37.2085C29.3798 37.3691 29.7937 37.9057 29.876 38.5889C29.8908 38.7087 29.8965 38.8299 29.9014 38.8923ZM29.2343 39.2322L29.212 39.2292C29.212 39.1701 29.2149 39.1109 29.2115 39.0518C29.1926 38.6832 29.1201 38.3322 28.9332 38.0237C28.7559 37.7314 28.5143 37.559 28.2001 37.5339C27.8482 37.5055 27.5526 37.7303 27.4488 38.1408C27.293 38.7572 27.3458 39.3579 27.6197 39.9225C27.739 40.1686 27.9158 40.3502 28.1527 40.4457C28.6169 40.6323 29.0285 40.3907 29.1494 39.8477C29.1939 39.6471 29.2068 39.4374 29.2343 39.2322Z" fill="#4F382B"/>
<path fill-rule="evenodd" clip-rule="evenodd" d="M18.4989 38.9408C18.4893 39.391 18.3963 39.8071 18.153 40.1689C17.8923 40.5563 17.534 40.7634 17.1266 40.8506C16.6448 40.9535 16.1923 40.8601 15.8052 40.4907C15.6214 40.315 15.4959 40.0899 15.413 39.8338C15.2771 39.4138 15.2432 38.9834 15.3268 38.5448C15.4161 38.0754 15.6481 37.7167 16.0077 37.4759C16.4234 37.1982 16.8721 37.0743 17.3513 37.1991C17.9674 37.36 18.3231 37.8187 18.4546 38.5132C18.481 38.6534 18.4846 38.7983 18.4989 38.9408ZM17.8242 39.2378L17.8064 39.2348V39.1502C17.7963 38.7374 17.7256 38.344 17.5099 38.0009C17.3502 37.7462 17.1364 37.5865 16.8622 37.5419C16.4154 37.4691 16.1234 37.772 16.0266 38.1834C15.9002 38.7208 15.9399 39.2517 16.1353 39.7613C16.2572 40.079 16.4498 40.3265 16.7457 40.4466C17.2071 40.6338 17.6249 40.386 17.7416 39.845C17.7846 39.6471 17.7976 39.4407 17.8242 39.2378Z" fill="#4F372B"/>
<path fill-rule="evenodd" clip-rule="evenodd" d="M29.2534 15.9922C29.571 17.0413 29.7993 18.1123 29.8747 19.222C29.9679 20.5991 29.9254 21.9667 29.6712 23.3211L29.6386 23.4293C29.5588 23.4296 29.4775 23.4181 29.3996 23.432C28.7413 23.5503 28.0837 23.6727 27.4259 23.7946C26.7459 23.9206 26.0653 24.0415 25.3865 24.1758C25.146 24.2231 24.8483 24.1667 24.7512 24.5464L24.7046 24.5645L24.7375 22.2936L24.7041 16.8142L25.021 16.7521C25.539 16.6553 26.057 16.5568 26.5758 16.4625C27.1945 16.3504 27.8137 16.241 28.433 16.1315C28.7063 16.0836 28.98 16.039 29.2534 15.9922Z" fill="#439934"/>
<path fill-rule="evenodd" clip-rule="evenodd" d="M24.0508 31.1849C23.7166 30.8566 23.3707 30.5428 23.0505 30.1974C21.3269 28.3399 20.0659 26.1533 19.4448 23.5171C19.2737 22.7919 19.1598 22.0546 19.123 21.3051C19.0972 20.7804 19.0601 20.2513 19.0927 19.7292C19.179 18.3412 19.3547 16.9665 19.7109 15.6293L19.7306 15.5983C19.7653 15.6509 19.815 15.6976 19.8326 15.7571C20.1806 16.9271 20.5256 18.0984 20.8692 19.2705C21.9484 22.9531 23.0264 26.6366 24.1075 30.3186C24.1287 30.3905 24.1833 30.4493 24.2227 30.5141L24.0508 31.1849Z" fill="#45A538"/>
<path fill-rule="evenodd" clip-rule="evenodd" d="M29.2534 15.9922C28.9797 16.0387 28.7061 16.0836 28.433 16.1315C27.8138 16.241 27.1945 16.3504 26.5758 16.4625C26.0573 16.5566 25.5393 16.655 25.021 16.7521L24.7041 16.8142L24.7015 16.5781C24.6909 16.3841 24.6733 16.1901 24.671 15.9961L24.6355 12.283C24.6272 11.5084 24.6148 10.7338 24.6011 9.95945C24.5941 9.47818 24.5819 8.99703 24.5646 8.5161C24.5542 8.2579 24.5177 8.00088 24.5032 7.74267C24.4947 7.5942 24.5061 7.44454 24.5089 7.29547C24.6705 7.65305 24.8287 8.0133 24.9946 8.36822C25.2568 8.92929 25.6749 9.34278 26.0516 9.79382C27.5391 11.5776 28.5951 13.6503 29.2534 15.9922Z" fill="#46A037"/>
<path fill-rule="evenodd" clip-rule="evenodd" d="M24.7049 24.5645L24.7515 24.5464C24.8486 24.1667 25.1463 24.2231 25.3868 24.1758C26.0655 24.0415 26.7461 23.9206 27.4262 23.7946C28.084 23.673 28.7416 23.5506 29.3999 23.432C29.4778 23.4181 29.5591 23.4296 29.6388 23.4293C29.5159 23.9309 29.419 24.4435 29.2629 24.9312C29.0856 25.4843 28.8713 26.0244 28.6437 26.5538C28.3028 27.3433 27.8811 28.0838 27.3874 28.7596C27.0079 29.2808 26.5849 29.7632 26.1611 30.2391C25.9265 30.502 25.6506 30.7164 25.3932 30.953L25.3264 30.901L25.0865 30.6667L24.8382 30.0444C24.6686 29.3188 24.576 28.5724 24.5625 27.8215L24.5672 27.6949L24.6011 27.1465C24.6122 26.9593 24.6272 26.7724 24.6342 26.5851C24.6591 25.912 24.6813 25.2382 24.7049 24.5645Z" fill="#409433"/>
<path fill-rule="evenodd" clip-rule="evenodd" d="M24.7049 24.5645C24.6816 25.2382 24.6594 25.9123 24.6343 26.586C24.6273 26.7736 24.6125 26.9605 24.6011 27.1474L24.4499 27.2128C24.1139 26.0826 23.7776 24.9643 23.4489 23.8434C22.905 21.9886 22.3678 20.1312 21.8247 18.2758C21.3861 16.7785 20.9444 15.2823 20.4997 13.7873C20.4788 13.7175 20.4192 13.6625 20.3778 13.6006L21.346 11.5667C21.3794 11.6326 21.4232 11.6944 21.4441 11.7654C21.892 13.2797 22.3391 14.7944 22.7823 16.3105C23.359 18.2832 23.9319 20.2569 24.5082 22.23C24.5312 22.3086 24.569 22.3814 24.6053 22.4698L24.7378 22.2936L24.7049 24.5645Z" fill="#4FAA41"/>
<path fill-rule="evenodd" clip-rule="evenodd" d="M20.3775 13.6006C20.4192 13.6625 20.4788 13.7175 20.4995 13.7873C20.9442 15.2823 21.3859 16.7785 21.8244 18.2758C22.3675 20.1312 22.9047 21.9886 23.4486 23.8434C23.7774 24.9643 24.1137 26.0823 24.4497 27.2128L24.6009 27.1474L24.567 27.6958L24.5361 27.822C24.4836 28.4222 24.4393 29.0235 24.3751 29.6224C24.343 29.9226 24.2744 30.2172 24.2224 30.5141C24.1833 30.4493 24.1284 30.3905 24.1072 30.3186C23.0259 26.6366 21.9481 22.9531 20.8689 19.2705C20.5255 18.0986 20.18 16.9274 19.8323 15.7571C19.8147 15.6976 19.765 15.6509 19.7303 15.5983L20.3775 13.6006Z" fill="#4AA73C"/>
<path fill-rule="evenodd" clip-rule="evenodd" d="M24.7375 22.2936L24.605 22.4698C24.5687 22.3814 24.5309 22.3086 24.5079 22.23C23.9316 20.2569 23.3587 18.2832 22.782 16.3105C22.3382 14.7946 21.8922 13.2795 21.4438 11.7654C21.4228 11.6944 21.3791 11.6326 21.3457 11.5667L22.543 9.7672C22.5808 9.82458 22.6347 9.87575 22.6541 9.94052C22.9865 11.0526 23.3158 12.1656 23.6435 13.2794C23.9495 14.32 24.2508 15.3616 24.5604 16.4004C24.5812 16.4699 24.6534 16.519 24.7015 16.5781L24.7041 16.8142L24.7375 22.2936Z" fill="#57AE47"/>
<path fill-rule="evenodd" clip-rule="evenodd" d="M24.7016 16.5781C24.6532 16.5193 24.5812 16.4702 24.5605 16.4004C24.2512 15.3616 23.9496 14.32 23.6436 13.2794C23.3161 12.1656 22.9863 11.0526 22.6541 9.94052C22.6347 9.87575 22.5809 9.82458 22.5431 9.7672C22.9324 9.33154 23.3096 8.8802 23.7148 8.46464C24.0749 8.09552 24.3643 7.69979 24.3778 7.11624L24.4062 7L24.5087 7.29518C24.5062 7.44424 24.4945 7.5939 24.5031 7.74238C24.5178 8.00058 24.5543 8.2576 24.5644 8.51581C24.5833 8.99643 24.5924 9.47794 24.6009 9.95916C24.6146 10.7335 24.6271 11.5081 24.6353 12.2827L24.6708 15.9958C24.6734 16.1901 24.6913 16.3841 24.7016 16.5781Z" fill="#60B24F"/>
<path fill-rule="evenodd" clip-rule="evenodd" d="M24.2227 30.5138C24.2747 30.2169 24.3433 29.9223 24.3754 29.6221C24.4396 29.0235 24.4839 28.4219 24.5364 27.8217L24.5497 27.8194L24.5626 27.822C24.5761 28.573 24.6687 29.3194 24.8383 30.045C24.8034 30.0977 24.7544 30.1441 24.7358 30.2033C24.5921 30.6664 24.4565 31.1335 24.312 31.5963C24.2923 31.6596 24.2369 31.709 24.1984 31.7643L24.0505 31.1846L24.2227 30.5138Z" fill="#A9AA88"/>
<path fill-rule="evenodd" clip-rule="evenodd" d="M24.1984 31.7646C24.2369 31.709 24.2923 31.6599 24.312 31.5966C24.4565 31.1338 24.5921 30.6667 24.7358 30.2036C24.7542 30.1444 24.8034 30.098 24.8383 30.0453L25.0866 30.6676C25.0376 30.7469 24.9698 30.8188 24.9426 30.9072L24.4673 32.502C24.4477 32.5662 24.3811 32.6111 24.3361 32.6652L24.1984 31.7646Z" fill="#B6B598"/>
<path fill-rule="evenodd" clip-rule="evenodd" d="M24.3361 32.6649C24.3808 32.6108 24.4476 32.5659 24.4673 32.5017L24.9426 30.9069C24.9695 30.8185 25.0376 30.7466 25.0865 30.6673L25.3268 30.9013C25.2108 31.0323 25.1463 31.1837 25.1852 31.3751L25.1122 31.6481C25.079 31.6948 25.0309 31.7356 25.0146 31.7892C24.8486 32.3322 24.6905 32.8782 24.5232 33.4209C24.502 33.4895 24.4432 33.5437 24.4021 33.6046L24.3361 32.6649Z" fill="#C2C1A7"/>
<path fill-rule="evenodd" clip-rule="evenodd" d="M24.4018 33.6043C24.4432 33.5434 24.502 33.4893 24.523 33.4206C24.6902 32.8779 24.8486 32.3319 25.0143 31.7889C25.0306 31.7353 25.0788 31.6948 25.1119 31.6478L25.0112 32.9007C24.9843 32.9362 24.9455 32.9672 24.9325 33.0083L24.5975 34.105C24.574 34.1799 24.5289 34.2467 24.4937 34.3168C24.4624 34.2701 24.4065 34.2248 24.4039 34.1763C24.394 33.9864 24.401 33.7951 24.4018 33.6043Z" fill="#CECDB7"/>
<path fill-rule="evenodd" clip-rule="evenodd" d="M24.494 34.3171C24.5292 34.247 24.5743 34.1802 24.5978 34.1053L24.9328 33.0086C24.9458 32.9672 24.9848 32.9365 25.0115 32.901L25.0141 33.7232L24.7731 34.4292L24.494 34.3171Z" fill="#DBDAC7"/>
<path fill-rule="evenodd" clip-rule="evenodd" d="M24.7731 34.4292L25.0141 33.7232L25.0638 34.5585L24.7731 34.4292Z" fill="#EBE9DC"/>
<path fill-rule="evenodd" clip-rule="evenodd" d="M25.1849 31.3751C25.1464 31.184 25.2106 31.0326 25.3265 30.9013L25.3933 30.9533L25.1849 31.3751Z" fill="#CECDB7"/>
<path fill-rule="evenodd" clip-rule="evenodd" d="M24.5631 27.8223L24.5499 27.8197L24.5364 27.822L24.5679 27.6958L24.5631 27.8223Z" fill="#4FAA41"/>
<rect x="0.5" y="0.5" width="49" height="49" rx="24.5" stroke="black"/>
</svg>
