<svg width="50" height="50" viewBox="0 0 50 50" fill="none" xmlns="http://www.w3.org/2000/svg">
<g clip-path="url(#clip0_78_60)">
<path d="M25 0C38.8078 0 50 11.1922 50 25C50 38.8078 38.8078 50 25 50C11.1922 50 0 38.8078 0 25C0 11.1922 11.1922 0 25 0Z" fill="#8F5AE8"/>
<path d="M33.5539 19.2351C33.2282 19.0616 32.8648 18.9708 32.4957 18.9708C32.1266 18.9708 31.7632 19.0616 31.4375 19.2351L26.6664 22.0566L23.3336 23.909L18.5625 26.732C18.2368 26.9056 17.8734 26.9964 17.5043 26.9964C17.1352 26.9964 16.7718 26.9056 16.4461 26.732L12.6543 24.5254C12.3422 24.3454 12.0812 24.0888 11.8959 23.7799C11.7106 23.4709 11.6071 23.1198 11.5953 22.7598V18.3551C11.5886 17.9911 11.6843 17.6326 11.8714 17.3205C12.0586 17.0083 12.3298 16.755 12.6539 16.5894L16.4461 14.4734C16.7716 14.2991 17.1351 14.2079 17.5043 14.2079C17.8735 14.2079 18.237 14.2991 18.5625 14.4734L22.3543 16.5898C22.6663 16.7699 22.9273 17.0265 23.1125 17.3354C23.2977 17.6444 23.4011 17.9954 23.4129 18.3555V21.175L26.6664 19.2355V16.5027C26.6752 16.1406 26.5824 15.7832 26.3985 15.4712C26.2146 15.1591 25.9469 14.9048 25.6258 14.7371L18.6492 10.6816C18.3238 10.5073 17.9603 10.4161 17.591 10.4161C17.2218 10.4161 16.8583 10.5073 16.5328 10.6816L9.47892 14.7371C9.12677 14.8739 8.82658 15.118 8.62088 15.4349C8.41518 15.7518 8.31441 16.1254 8.33283 16.5027V24.7023C8.32768 25.0648 8.42415 25.4214 8.61132 25.7318C8.79849 26.0422 9.06887 26.294 9.39181 26.4586L16.4461 30.5238C16.7718 30.6974 17.1352 30.7882 17.5043 30.7882C17.8734 30.7882 18.2368 30.6974 18.5625 30.5238L23.3336 27.7894L26.5961 25.85L31.3508 23.1246C31.6765 22.951 32.0399 22.8602 32.409 22.8602C32.7781 22.8602 33.1415 22.951 33.4672 23.1246L37.259 25.241C37.5709 25.4211 37.8317 25.6777 38.0167 25.9867C38.2018 26.2956 38.3049 26.6467 38.3164 27.0066V31.3277C38.3232 31.6913 38.2276 32.0495 38.0407 32.3614C37.8537 32.6733 37.5829 32.9264 37.259 33.0918L33.4672 35.2949C33.1417 35.4692 32.7782 35.5604 32.409 35.5604C32.0398 35.5604 31.6763 35.4692 31.3508 35.2949L27.559 33.1785C27.247 32.9989 26.986 32.7427 26.8007 32.4341C26.6154 32.1254 26.5119 31.7746 26.5 31.4148V28.5828L23.3336 30.4336V33.2535C23.3266 33.6173 23.4221 33.9758 23.609 34.288C23.796 34.6002 24.067 34.8535 24.391 35.0191L31.4453 39.0742C31.7711 39.2485 32.1348 39.3397 32.5043 39.3397C32.8738 39.3397 33.2375 39.2485 33.5633 39.0742L40.6172 35.0184C40.9272 34.8377 41.1862 34.5812 41.3699 34.2729C41.5535 33.9647 41.6558 33.6149 41.6672 33.2562V25.0531C41.674 24.6893 41.5782 24.331 41.391 24.019C41.2037 23.7071 40.9325 23.4541 40.6082 23.2891L33.5539 19.2351Z" fill="white"/>
</g>
<defs>
<clipPath id="clip0_78_60">
<rect width="50" height="50" fill="white"/>
</clipPath>
</defs>
</svg>
