<svg width="50" height="50" viewBox="0 0 50 50" fill="none" xmlns="http://www.w3.org/2000/svg">
<rect x="0.5" y="0.5" width="49" height="49" rx="24.5" fill="white"/>
<path d="M41.9077 30.9455C41.7001 30.2442 41.1466 29.751 40.4349 29.6305C40.0988 29.5757 39.7133 29.5976 39.2586 29.7072C38.4678 29.8935 37.8747 29.9593 37.4496 29.9702C39.0708 26.9347 40.3953 23.4717 41.1466 20.217C42.3723 14.9459 41.7199 12.5459 40.9489 11.461C38.9225 8.58984 35.957 7.04467 32.3885 7.00083C30.4807 6.97891 28.8102 7.39534 27.9403 7.69123C27.1297 7.53781 26.25 7.43918 25.3406 7.42822C23.6206 7.39534 22.1082 7.81177 20.8034 8.66655C20.0818 8.39258 18.9351 8.01999 17.6006 7.7789C14.4671 7.20905 11.9464 7.65835 10.098 9.09394C7.86397 10.8473 6.82605 13.8829 7.02374 18.1348C7.08305 19.4828 7.76512 23.5813 8.83269 27.4716C9.44556 29.7072 10.1078 31.5592 10.78 32.9948C11.7389 35.0222 12.7768 36.2057 13.9333 36.6331C14.5857 36.8742 15.762 37.0386 16.9977 35.8989C17.1558 36.1071 17.3634 36.3153 17.6402 36.5125C17.996 36.7646 18.4211 36.9619 18.856 37.0824C20.408 37.5098 21.8611 37.4002 23.1066 36.7975C23.1164 37.0386 23.1164 37.2797 23.1263 37.4769C23.1362 37.8057 23.1461 38.1235 23.156 38.4303C23.2252 40.4577 23.3537 42.0467 23.7194 43.1425C23.7392 43.2083 23.7688 43.296 23.7985 43.3946C23.9863 44.0192 24.2928 45.0713 25.0737 45.8932C25.8842 46.748 26.8628 47 27.7624 47C28.2171 47 28.6421 46.9342 29.0178 46.8466C30.3621 46.5288 31.8943 46.0356 33.0014 44.2932C34.0492 42.6384 34.5533 40.1618 34.6423 36.2386C34.6522 36.129 34.6621 36.0194 34.6719 35.9208C34.6818 35.855 34.6818 35.7783 34.6917 35.7126L34.9388 35.7345H34.9982C36.3722 35.8002 38.0427 35.4824 39.0707 34.9564C39.911 34.54 42.5206 33.0058 41.9077 30.9455Z" fill="black"/>
<path d="M39.565 31.351C35.4924 32.2825 35.2057 30.7483 35.2057 30.7483C39.5057 23.669 41.3048 14.6829 39.7528 12.4911C35.5221 6.49674 28.1874 9.33504 28.0688 9.40079L28.0293 9.41175C27.2286 9.22545 26.3192 9.11586 25.3109 9.09394C23.4624 9.06107 22.0686 9.63092 21.011 10.5186C21.011 10.5186 7.93317 4.54609 8.54603 18.0253C8.67454 20.8964 12.2529 39.7344 16.5232 34.0359C18.085 31.9537 19.5875 30.2004 19.5875 30.2004C20.3388 30.7483 21.2284 31.0332 22.1774 30.9346L22.2466 30.8688C22.2268 31.1318 22.2367 31.3839 22.2762 31.6798C21.179 33.0387 21.4953 33.2797 19.3009 33.7838C17.0767 34.2879 18.3816 35.1975 19.2317 35.4386C20.2696 35.7235 22.6617 36.129 24.273 33.6195L24.2038 33.9044C24.6387 34.2879 24.9353 36.392 24.8859 38.2988C24.8364 40.2056 24.7969 41.5207 25.1429 42.5398C25.479 43.559 25.8249 45.8713 28.7113 45.1809C31.1233 44.611 32.3786 43.1206 32.5566 40.644C32.6752 38.8796 32.9619 39.1426 32.9816 37.5646L33.209 36.8194C33.466 34.4304 33.2485 33.6633 34.7411 34.014L35.1069 34.0468C36.2041 34.1016 37.6374 33.8496 38.4777 33.4222C40.2767 32.5017 41.3443 30.9455 39.565 31.351Z" fill="#336791"/>
<path d="M21.7721 19.3184C21.4064 19.2636 21.0703 19.3184 20.9022 19.4499C20.8034 19.5266 20.7737 19.6252 20.7737 19.68C20.754 19.8444 20.8627 20.0307 20.922 20.1293C21.1098 20.4033 21.3767 20.5896 21.6436 20.6225C21.6831 20.6334 21.7227 20.6334 21.7622 20.6334C22.207 20.6334 22.6123 20.2499 22.642 19.965C22.6914 19.6252 22.2268 19.3841 21.7721 19.3184Z" fill="white"/>
<path d="M33.9404 19.3294C33.9008 19.0554 33.456 18.9677 33.031 19.0335C32.6059 19.0992 32.2006 19.3074 32.2303 19.5924C32.2599 19.8115 32.6059 20.1841 33.031 20.1841C33.0705 20.1841 33.1002 20.1841 33.1397 20.1732C33.4165 20.1293 33.6241 19.9321 33.7229 19.8225C33.8712 19.6472 33.9503 19.4609 33.9404 19.3294Z" fill="white"/>
<path d="M40.9192 31.2414C40.761 30.7154 40.2668 30.551 39.4365 30.7483C36.9652 31.3181 36.0855 30.9236 35.7988 30.6825C37.7165 27.4388 39.2981 23.5265 40.1482 19.8773C40.5535 18.1458 40.7709 16.5349 40.7907 15.2308C40.8105 13.7952 40.593 12.7322 40.1383 12.0966C38.2997 9.49942 35.611 8.09671 32.3391 8.06383C30.0952 8.03096 28.1973 8.67752 27.8315 8.85286C27.0605 8.64464 26.2104 8.51314 25.301 8.49122C23.6205 8.45834 22.1576 8.90765 20.9516 9.81722C20.4277 9.59805 19.0735 9.08299 17.4227 8.7871C14.5659 8.27205 12.2924 8.66656 10.6713 9.93777C8.72393 11.4501 7.83428 14.1678 8.00232 18.0034C8.06163 19.2965 8.72393 23.2635 9.77173 27.0771C11.1457 32.0852 12.6483 34.9235 14.2298 35.5044C14.4177 35.5701 14.6252 35.6249 14.8625 35.6249C15.4358 35.6249 16.1475 35.34 16.879 34.3647C18.0949 32.7428 19.2316 31.3729 19.6567 30.8798C20.2794 31.2524 20.9615 31.4496 21.6534 31.4716C21.6534 31.4935 21.6534 31.5154 21.6534 31.5373C21.515 31.7236 21.3964 31.877 21.2976 32.0195C20.8132 32.6989 20.7144 32.8414 19.1624 33.1921C18.7176 33.2907 17.5512 33.5647 17.5314 34.4742C17.5116 35.4715 18.9153 35.8879 19.0834 35.9317C19.6369 36.0852 20.1806 36.1619 20.6946 36.1619C21.9401 36.1619 23.0373 35.7126 23.9171 34.8249C23.8874 38.3755 24.0258 41.8823 24.4113 42.9453C24.7277 43.822 25.4987 45.948 27.9304 45.948C28.2862 45.948 28.6816 45.9041 29.1166 45.7946C31.657 45.1918 32.7542 43.9425 33.1793 41.2029C33.4066 39.7344 33.802 36.2386 33.98 34.3647C34.3655 34.4962 34.8696 34.5619 35.4133 34.5619C36.5402 34.5619 37.845 34.2989 38.6556 33.8715C39.565 33.4112 41.2158 32.2496 40.9192 31.2414ZM34.8696 18.5622C34.8597 19.1211 34.7905 19.6143 34.7213 20.1403C34.6423 20.7101 34.5632 21.291 34.5434 21.9923C34.5236 22.6827 34.6027 23.395 34.6719 24.0964C34.8202 25.4991 34.9784 26.9347 34.3754 28.3593C34.2864 28.173 34.1876 27.9757 34.1085 27.7456C34.0294 27.5484 33.8712 27.2196 33.6439 26.7703C32.7641 25.0279 30.7179 20.9403 31.7657 19.2746C32.0821 18.8033 32.8827 18.2883 34.8696 18.5622ZM32.4577 9.18162C35.3836 9.25833 37.6967 10.4638 39.3277 12.787C40.5831 14.5623 39.1992 22.6608 35.1958 29.6415C35.1563 29.5867 35.1167 29.5319 35.0772 29.4771C35.0574 29.4552 35.0475 29.4332 35.0278 29.4113C36.0657 27.5155 35.8581 25.6415 35.6802 23.9868C35.611 23.3074 35.5319 22.6608 35.5517 22.0581C35.5714 21.4115 35.6505 20.8636 35.7197 20.3375C35.8087 19.68 35.9075 19.0006 35.8779 18.2006C35.8977 18.1129 35.9075 18.0143 35.8977 17.9047C35.8285 17.1376 35.0475 14.8473 33.4363 12.7651C32.5565 11.6254 31.2715 10.3542 29.5219 9.49942C30.2731 9.31312 31.3012 9.14874 32.4577 9.18162ZM16.0981 33.6414C15.2875 34.7153 14.734 34.5071 14.5462 34.4414C13.3501 34.003 11.9662 31.1976 10.7405 26.7484C9.68277 22.9019 9.06001 19.0335 9.01059 17.9486C8.85243 14.5185 9.60369 12.1295 11.2446 10.8473C13.9036 8.75423 18.2728 10.0035 20.0323 10.6391C20.0027 10.672 19.9829 10.6939 19.9532 10.7158C17.0668 13.9486 17.136 19.4609 17.1459 19.7896C17.1459 19.9211 17.1558 20.1074 17.1657 20.3595C17.2151 21.291 17.3041 23.0115 17.0569 24.9731C16.8296 26.7922 17.3337 28.5675 18.4408 29.8497C18.5594 29.9812 18.6781 30.1127 18.7967 30.2223C18.3123 30.814 17.2448 32.1181 16.0981 33.6414ZM19.1822 29.0826C18.2926 28.0525 17.8774 26.6059 18.0652 25.1374C18.3222 23.0772 18.2332 21.269 18.1739 20.3047C18.1641 20.1732 18.1641 20.0526 18.1542 19.954C18.5792 19.5376 20.5266 18.3759 21.9203 18.7376C22.553 18.902 22.9385 19.3732 23.1065 20.206C23.9369 24.4799 23.2153 26.2552 22.632 27.6799C22.5134 27.9757 22.3948 28.2497 22.3058 28.5456L22.2268 28.7648C22.039 29.3237 21.861 29.8497 21.7523 30.3538C20.8033 30.3428 19.884 29.8935 19.1822 29.0826ZM19.3206 34.8359C19.0438 34.7592 18.7967 34.6277 18.6484 34.5181C18.767 34.4523 18.9845 34.3647 19.37 34.277C21.1987 33.8606 21.4755 33.5647 22.0983 32.6989C22.2367 32.5017 22.4047 32.2715 22.6222 31.9976C22.9484 31.5921 23.1065 31.6579 23.3734 31.7784C23.5909 31.877 23.8084 32.1839 23.8973 32.5236C23.9369 32.688 23.9863 32.9839 23.8281 33.225C22.5431 35.2413 20.6748 35.2085 19.3206 34.8359ZM28.8892 44.7096C26.6552 45.2357 25.8644 43.9754 25.3405 42.5289C25.0044 41.5974 24.8364 37.3892 24.955 32.7428C24.955 32.677 24.9451 32.6222 24.9352 32.5674C24.9254 32.4578 24.9056 32.3483 24.8759 32.2387C24.698 31.5592 24.273 31.0003 23.7688 30.7592C23.5612 30.6716 23.1955 30.4962 22.7507 30.6168C22.8495 30.1784 23.0077 29.6853 23.1955 29.1593L23.2746 28.9401C23.3635 28.6881 23.4624 28.4251 23.581 28.1511C24.184 26.6497 25.0242 24.6005 24.1148 19.9759C23.7787 18.2444 22.6518 17.4006 20.9318 17.5869C19.9038 17.7075 18.9647 18.1677 18.5001 18.4307C18.4013 18.4855 18.3024 18.5403 18.2234 18.5951C18.3519 16.8527 18.8461 13.587 20.6946 11.5158C21.8314 10.2117 23.3833 9.56517 25.2713 9.59805C28.9881 9.6638 31.3703 11.7788 32.7246 13.5432C33.8811 15.0664 34.5138 16.5897 34.7609 17.4225C32.8729 17.2143 31.5977 17.6198 30.9453 18.6499C29.5317 20.8855 31.7163 25.2361 32.774 27.3292C32.9618 27.7127 33.1299 28.0415 33.1892 28.184C33.5351 29.1045 33.9701 29.7182 34.2963 30.1675C34.3951 30.3099 34.494 30.4414 34.5632 30.551C33.9899 30.7373 32.9717 31.1538 33.0607 33.2578C32.9816 34.3099 32.4478 39.2632 32.1809 41.0166C31.8152 43.3288 31.0441 44.1946 28.8892 44.7096ZM38.2206 32.8633C37.6374 33.1592 36.6588 33.3893 35.7296 33.4332C34.7016 33.488 34.1876 33.3017 34.0591 33.1921C33.9997 31.877 34.4446 31.7455 34.9092 31.5921C34.9784 31.5702 35.0574 31.5483 35.1266 31.5154C35.1662 31.5592 35.2156 31.5921 35.265 31.625C36.0855 32.2277 37.5583 32.2935 39.6342 31.8222H39.6539C39.3772 32.1291 38.9027 32.5126 38.2206 32.8633Z" fill="white"/>
<rect x="0.5" y="0.5" width="49" height="49" rx="24.5" stroke="black"/>
</svg>
