<svg width="50" height="50" viewBox="0 0 50 50" fill="none" xmlns="http://www.w3.org/2000/svg">
<rect x="0.5" y="0.5" width="49" height="49" rx="24.5" fill="white"/>
<path d="M31.2513 31.2057C32.5429 31.072 33.5228 29.9585 33.4783 28.6223C33.4337 27.2861 32.3202 26.2171 30.9841 26.2171H30.895C29.5143 26.2616 28.4453 27.4197 28.4899 28.8005C28.5344 29.4686 28.8017 30.0476 29.2025 30.4485C27.6882 33.4327 25.3722 35.6152 21.8981 37.4413C19.5376 38.6885 17.0879 39.1339 14.6383 38.8221C12.634 38.5548 11.0751 37.664 10.0953 36.1942C8.67004 34.0117 8.53643 31.6511 9.73898 29.2904C10.5852 27.5979 11.9214 26.3507 12.7676 25.7272C12.5895 25.1481 12.3222 24.1682 12.1886 23.4556C5.73047 28.1323 6.39856 34.4571 8.35827 37.4413C9.82806 39.6684 12.8122 41.0491 16.1081 41.0491C16.9988 41.0491 17.8896 40.96 18.7804 40.7373C24.4814 39.6238 28.8017 36.2387 31.2513 31.2057ZM39.0902 25.6826C35.7052 21.7185 30.7168 19.536 25.0158 19.536H24.3032C23.9024 18.7343 23.0561 18.1998 22.1208 18.1998H22.0317C20.651 18.2443 19.5821 19.4024 19.6266 20.7832C19.6712 22.1194 20.7846 23.1883 22.1208 23.1883H22.2099C23.1897 23.1438 24.036 22.5202 24.3923 21.674H25.194C28.579 21.674 31.7858 22.6539 34.6808 24.5691C36.9078 26.0389 38.5112 27.9542 39.4019 30.2703C40.1591 32.141 40.1146 33.9672 39.3129 35.5261C38.0658 37.8867 35.9724 39.1784 33.211 39.1784C31.4295 39.1784 29.737 38.6439 28.8462 38.2431C28.3563 38.6885 27.4655 39.4011 26.8419 39.8465C28.7571 40.7373 30.7168 41.2273 32.5875 41.2273C36.8632 41.2273 40.0255 38.8666 41.228 36.506C42.5197 33.9226 42.4306 29.4686 39.0902 25.6826ZM16.4644 31.9628C16.5089 33.2991 17.6224 34.368 18.9585 34.368H19.0476C20.4283 34.3235 21.4973 33.1654 21.4527 31.7847C21.4082 30.4485 20.2947 29.3795 18.9585 29.3795H18.8695C18.7804 29.3795 18.6468 29.3795 18.5577 29.424C16.7316 26.3953 15.9744 23.0993 16.2417 19.536C16.4198 16.8636 17.3106 14.5475 18.8695 12.6322C20.1611 10.9842 22.6553 10.1825 24.3478 10.1379C29.0689 10.0489 31.0731 15.9282 31.2068 18.2889C31.7858 18.4225 32.7656 18.7343 33.4337 18.957C32.8992 11.7414 28.4453 8 24.1696 8C20.1611 8 16.4644 10.8951 14.9946 15.171C12.9458 20.8722 14.282 26.3507 16.7761 30.6712C16.5534 30.9829 16.4198 31.4729 16.4644 31.9628Z" fill="#764ABC"/>
<rect x="0.5" y="0.5" width="49" height="49" rx="24.5" stroke="black"/>
</svg>
