<svg width="50" height="50" viewBox="0 0 50 50" fill="none" xmlns="http://www.w3.org/2000/svg">
<path d="M49.9775 24.7332C50.0637 19.4466 48.8637 13.1601 46.3637 5.78412L44.4037 0L41.7413 5.5C41.5988 5.79405 41.4363 6.08189 41.2663 6.36601C36.8925 2.63896 31.2175 0.372208 25 0.372208C11.1925 0.372208 0 11.4814 0 25.1861C0 38.8908 11.1925 50 25 50C38.8075 50 50 38.8908 50 25.1861C50 25.0335 49.98 24.8859 49.9775 24.7332Z" fill="#8BC34A"/>
<path d="M44.2312 35.804C40.3274 41.1414 33.4174 41.428 26.9137 41.3151H18.4374H16.0149C21.5499 39.3387 24.8437 38.8685 28.2074 37.0968C34.5424 33.7903 40.8049 26.5558 42.1087 19.0298C39.6962 26.2705 32.3849 32.4913 25.7224 35.0211C21.1574 36.7494 12.9124 38.4268 12.9124 38.4268L12.5787 38.2469C6.96615 35.4442 6.79615 22.9702 16.9999 18.9429C21.4674 17.1774 25.7412 18.1476 30.5674 16.9665C35.7199 15.7109 41.6799 11.7457 44.1049 6.57568C46.8199 14.8474 50.0874 27.799 44.2312 35.804ZM14.5849 43.1079C14.2324 43.5422 13.6937 43.7965 13.1312 43.7965C12.1024 43.7965 11.2624 42.9566 11.2624 41.9355C11.2624 40.9144 12.1087 40.0744 13.1312 40.0744C13.5574 40.0744 13.9774 40.2208 14.3074 40.4913C15.1074 41.1352 15.2324 42.3139 14.5849 43.1079Z" fill="white"/>
</svg>
