<svg width="50" height="50" viewBox="0 0 50 50" fill="none" xmlns="http://www.w3.org/2000/svg">
<rect x="0.5" y="0.5" width="49" height="49" rx="24.5" fill="white"/>
<path fill-rule="evenodd" clip-rule="evenodd" d="M25.0003 13.75C21 13.75 18.5004 16.1358 17.4998 20.9073C19.0001 18.5215 20.7501 17.627 22.75 18.2231C23.891 18.5631 24.7069 19.5507 25.6093 20.6441C27.0801 22.4247 28.7825 24.4852 32.5002 24.4852C36.4999 24.4852 39.0001 22.0994 40 17.3286C38.5004 19.7144 36.7503 20.6089 34.7505 20.0121C33.6089 19.672 32.7929 18.6845 31.8905 17.5918C30.4197 15.8098 28.7178 13.75 25.0003 13.75ZM17.4998 24.4852C13.5001 24.4852 10.9999 26.8709 10 31.6424C11.5002 29.2567 13.2502 28.3622 15.2495 28.9583C16.3912 29.2983 17.2071 30.2859 18.1095 31.3793C19.5803 33.1597 21.2822 35.2203 25.0003 35.2203C29 35.2203 31.5003 32.8353 32.5002 28.0638C30.9999 30.4495 29.2499 31.344 27.25 30.748C26.109 30.4072 25.2931 29.4197 24.3907 28.327C22.9199 26.5464 21.2175 24.4852 17.4998 24.4852Z" fill="#38BDF8"/>
<rect x="0.5" y="0.5" width="49" height="49" rx="24.5" stroke="black"/>
</svg>
