<svg width="50" height="50" viewBox="0 0 50 50" fill="none" xmlns="http://www.w3.org/2000/svg">
<g clip-path="url(#clip0_15_56)">
<path d="M25 0C38.8071 0 50 11.1929 50 25C50 38.8071 38.8071 50 25 50C11.1929 50 0 38.8071 0 25C0 11.1929 11.1929 0 25 0Z" fill="white"/>
<path d="M25 0C38.8071 0 50 11.1929 50 25C50 38.8071 38.8071 50 25 50C11.1929 50 0 38.8071 0 25C0 11.1929 11.1929 0 25 0Z" fill="#3178C6"/>
<path d="M27.4784 29.6055V33.921C28.2773 34.2807 29.2219 34.5505 30.3122 34.7303C31.4028 34.9102 32.5522 35 33.7605 35C34.938 35 36.0568 34.901 37.1166 34.7033C38.1763 34.5055 39.1056 34.1797 39.9042 33.7255C40.7029 33.2716 41.3353 32.6781 41.8012 31.9453C42.2671 31.2126 42.5 30.3069 42.5 29.2279C42.5 28.4457 42.367 27.7602 42.1007 27.1712C41.8344 26.5824 41.4504 26.0586 40.9487 25.6002C40.4469 25.1416 39.8454 24.7303 39.144 24.3662C38.4426 24.0021 37.6515 23.6581 36.7709 23.3345C36.1258 23.1007 35.5473 22.8736 35.0353 22.6534C34.5234 22.4331 34.0883 22.2084 33.7297 21.9791C33.3714 21.7498 33.0949 21.5071 32.9005 21.2509C32.7058 20.9947 32.6085 20.7047 32.6085 20.381C32.6085 20.0843 32.6956 19.8169 32.8696 19.5786C33.0438 19.3403 33.2894 19.1358 33.6068 18.9649C33.9244 18.7941 34.3134 18.6615 34.7741 18.5671C35.2349 18.4727 35.747 18.4255 36.3102 18.4255C36.7198 18.4255 37.1524 18.4525 37.608 18.5064C38.0637 18.5603 38.5219 18.6435 38.9827 18.7559C39.4435 18.8683 39.8915 19.0099 40.3266 19.1807C40.7617 19.3516 41.1636 19.5493 41.5323 19.7741V15.7417C40.7848 15.49 39.9683 15.3034 39.0825 15.1821C38.1968 15.0607 37.1806 15 36.0337 15C34.8664 15 33.7605 15.1101 32.7161 15.3304C31.6717 15.5507 30.7527 15.8946 29.9591 16.3621C29.1654 16.8296 28.5384 17.4253 28.0776 18.149C27.6168 18.8728 27.3864 19.7381 27.3864 20.7452C27.3864 22.0309 27.8087 23.1276 28.6535 24.0357C29.4983 24.9438 30.7808 25.7126 32.5011 26.3419C33.1769 26.5847 33.8067 26.8229 34.3903 27.0567C34.9738 27.2903 35.4781 27.5331 35.9031 27.7848C36.3281 28.0367 36.6634 28.3109 36.9091 28.6076C37.1549 28.9043 37.2778 29.2414 37.2778 29.619C37.2778 29.8978 37.2011 30.1562 37.0474 30.3945C36.8938 30.6328 36.661 30.8395 36.3486 31.0148C36.0363 31.1902 35.6472 31.3272 35.1812 31.4262C34.7153 31.525 34.17 31.5745 33.5456 31.5745C32.4807 31.5745 31.4259 31.4103 30.3815 31.0822C29.337 30.7541 28.3693 30.2619 27.4784 29.6055ZM18.9765 18.8864H25.3977V15.3448H7.5V18.8864H13.8898V34.6552H18.9765V18.8864Z" fill="white"/>
</g>
<rect x="0.5" y="0.5" width="49" height="49" rx="24.5" stroke="black"/>
<defs>
<clipPath id="clip0_15_56">
<rect width="50" height="50" rx="25" fill="white"/>
</clipPath>
</defs>
</svg>
