<svg width="50" height="50" viewBox="0 0 50 50" fill="none" xmlns="http://www.w3.org/2000/svg">
<rect x="0.5" y="0.5" width="49" height="49" rx="24.5" fill="white"/>
<path d="M24.9502 22.25C23.232 22.25 21.9932 23.7125 21.9932 25.9063C21.9932 28.1 23.3877 29.5625 25.1058 29.5625C26.1439 29.5625 27.059 29.0263 27.6255 28.1223L26.4349 27.2245C26.1205 27.6734 25.6428 27.9355 25.1058 27.9355C24.3604 27.9355 23.7269 27.4277 23.4919 26.6152H27.8527C27.887 26.3877 27.9072 26.152 27.9072 25.9042C27.9072 23.7125 26.6684 22.25 24.9502 22.25ZM23.4779 25.1953C23.6725 24.3848 24.2047 23.875 24.9486 23.875C25.6941 23.875 26.2264 24.3848 26.4194 25.1953H23.4779ZM41.7085 22.25C39.9904 22.25 38.7516 23.7125 38.7516 25.9063C38.7516 28.1 40.146 29.5625 41.8642 29.5625C42.9022 29.5625 43.8173 29.0263 44.3838 28.1223L43.1933 27.2245C42.8789 27.6734 42.4011 27.9355 41.8642 27.9355C41.1187 27.9355 40.4853 27.4277 40.2503 26.6152H44.6111C44.6453 26.3877 44.6655 26.152 44.6655 25.9042C44.6655 23.7125 43.4267 22.25 41.7085 22.25ZM40.2378 25.1953C40.4324 24.3848 40.9646 23.875 41.7085 23.875C42.454 23.875 42.9863 24.3848 43.1793 25.1953H40.2378ZM34.1636 25.9063C34.1636 27.125 34.7736 27.9375 35.7199 27.9375C36.3611 27.9375 36.842 27.5577 37.0894 26.9381L38.2847 27.838C37.7898 28.9145 36.8622 29.5625 35.7199 29.5625C34.0001 29.5625 32.7629 28.1 32.7629 25.9063C32.7629 23.7125 34.0017 22.25 35.7199 22.25C36.8622 22.25 37.7882 22.898 38.2847 23.9745L37.0894 24.8744C36.842 24.2548 36.3611 23.875 35.7199 23.875C34.7752 23.875 34.1636 24.6875 34.1636 25.9063ZM47 20.0156V29.3594H45.5993V20.0156H47ZM8.75057 19L14.5011 32H3L8.75057 19ZM23.1278 20.0156L18.8152 29.7656L14.5027 20.0156H16.1197L18.8152 26.1094L21.5108 20.0156H23.1278ZM32.296 22.4531V24.4214C32.1404 24.3625 31.9754 24.3219 31.798 24.3219C30.8937 24.3219 30.2417 25.1344 30.2417 26.3531V29.3594H28.841V22.4531H30.2417V24.3219C30.2417 23.29 31.1614 22.4531 32.296 22.4531Z" fill="black"/>
<rect x="0.5" y="0.5" width="49" height="49" rx="24.5" stroke="black"/>
</svg>
