<svg width="50" height="50" viewBox="0 0 50 50" fill="none" xmlns="http://www.w3.org/2000/svg">
<rect x="0.5" y="0.5" width="49" height="49" rx="24.5" fill="white"/>
<path d="M41.8965 14.1767L25.4455 43.5917C25.3684 43.7297 25.2559 43.8448 25.1197 43.9252C24.9836 44.0057 24.8285 44.0485 24.6703 44.0494C24.5121 44.0503 24.3566 44.0093 24.2195 43.9304C24.0824 43.8516 23.9686 43.7378 23.8899 43.6006L7.11708 14.1857C7.03321 14.0383 6.99296 13.8702 7.00101 13.7009C7.00906 13.5316 7.06509 13.368 7.16255 13.2293C7.26001 13.0906 7.3949 12.9825 7.55148 12.9175C7.70807 12.8526 7.87989 12.8335 8.04691 12.8624L24.5157 15.8039C24.623 15.8218 24.7303 15.8218 24.8376 15.8039L40.9487 12.8624C41.1152 12.8327 41.2867 12.8508 41.4433 12.9146C41.5999 12.9784 41.7352 13.0853 41.8335 13.2229C41.9318 13.3605 41.989 13.5232 41.9986 13.692C42.0081 13.8608 41.9696 14.0289 41.8875 14.1767H41.8965Z" fill="url(#paint0_linear_78_50)"/>
<path d="M32.3656 9L20.1883 11.3872C20.0917 11.4067 20.0043 11.4576 19.9396 11.532C19.8749 11.6064 19.8366 11.7001 19.8307 11.7984L19.0797 24.4406C19.0752 24.5101 19.0869 24.5796 19.114 24.6437C19.1411 24.7078 19.1828 24.7647 19.2358 24.8099C19.2887 24.855 19.3515 24.8872 19.4191 24.9038C19.4867 24.9204 19.5572 24.921 19.6251 24.9055L23.0225 24.1188C23.0965 24.1016 23.1736 24.1036 23.2465 24.1245C23.3195 24.1454 23.3859 24.1845 23.4396 24.2381C23.4933 24.2918 23.5324 24.3582 23.5533 24.4312C23.5742 24.5042 23.5761 24.5813 23.559 24.6552L22.5487 29.5726C22.5314 29.6487 22.5343 29.728 22.5572 29.8026C22.5801 29.8772 22.6221 29.9445 22.679 29.9979C22.736 30.0512 22.8059 30.0887 22.8819 30.1066C22.9578 30.1246 23.0371 30.1223 23.1119 30.1001L25.2041 29.4564C25.2786 29.4328 25.3579 29.4292 25.4342 29.4458C25.5106 29.4625 25.5812 29.4989 25.6391 29.5513C25.697 29.6038 25.7401 29.6705 25.7642 29.7448C25.7882 29.8192 25.7924 29.8985 25.7763 29.9749L24.1759 37.7355C24.0775 38.2183 24.7123 38.4775 24.9806 38.0663L25.1683 37.7891L35.0925 17.9944C35.1319 17.919 35.149 17.8339 35.1417 17.7492C35.1344 17.6645 35.1032 17.5836 35.0515 17.516C34.9999 17.4484 34.9301 17.3969 34.8502 17.3676C34.7704 17.3384 34.6838 17.3325 34.6008 17.3506L31.1139 18.0301C31.0391 18.0437 30.962 18.038 30.89 18.0135C30.818 17.9891 30.7534 17.9466 30.7024 17.8902C30.6514 17.8338 30.6156 17.7654 30.5984 17.6913C30.5813 17.6172 30.5833 17.5399 30.6043 17.4669L32.8752 9.57221C32.9646 9.25034 32.6964 8.94636 32.3656 9.00894V9Z" fill="url(#paint1_linear_78_50)"/>
<rect x="0.5" y="0.5" width="49" height="49" rx="24.5" stroke="black"/>
<defs>
<linearGradient id="paint0_linear_78_50" x1="6.7058" y1="11.8074" x2="27.18" y2="39.6131" gradientUnits="userSpaceOnUse">
<stop stop-color="#41D1FF"/>
<stop offset="1" stop-color="#BD34FE"/>
</linearGradient>
<linearGradient id="paint1_linear_78_50" x1="23.5769" y1="9.64373" x2="27.2783" y2="35.0532" gradientUnits="userSpaceOnUse">
<stop stop-color="#FFEA83"/>
<stop offset="0.1" stop-color="#FFDD35"/>
<stop offset="1" stop-color="#FFA800"/>
</linearGradient>
</defs>
</svg>
