<svg width="50" height="50" viewBox="0 0 50 50" fill="none" xmlns="http://www.w3.org/2000/svg">
<path d="M26.2891 42.5H35.3906C39.3359 42.5 42.5391 39.2969 42.5391 35.3516V14.6094C42.5391 13.8281 42.4219 13.125 42.1875 12.4219H42.2266C42.7344 12.4219 43.1641 13.2422 43.3594 13.6719C43.5547 14.0625 44.1016 14.375 44.6094 14.6094V36.0156C44.6094 40.7422 40.7813 44.5703 36.0547 44.5703H25.2734C25.5469 44.0234 25.8984 43.3203 26.2891 42.5ZM28.6719 5.39062C31.6406 5.46875 32.8906 6.32813 33.4766 7.5H14.6484C10.7031 7.5 7.5 10.7031 7.5 14.6484V35.3906C7.5 39.3359 10.7031 42.5391 14.6484 42.5391H16.1328C15.9766 42.9687 15.8203 43.5937 15.8203 43.9844C15.8203 44.2187 15.8984 44.4141 15.9766 44.6484H13.9844C9.25781 44.6484 5.42969 40.8203 5.42969 36.0937V13.9453C5.42969 9.21875 9.25781 5.39062 13.9844 5.39062H28.6719Z" fill="#069CEC"/>
<path d="M35.1172 41.5625H26.7578C28.0469 38.9063 29.6484 35.5078 31.0938 32.5L33.3203 36.3281C33.8281 37.1875 34.9219 37.5 35.7812 36.9922C36.6406 36.4844 36.9531 35.3906 36.4453 34.5313L32.9688 28.5156C33.9453 26.4844 34.6094 25.0781 34.6875 24.8828C35.0391 24.1406 35.1953 23.2031 35.625 22.3047C36.7969 20.0391 39.3359 14.5703 40.3906 13.5547C40.7422 13.2422 40.9766 12.9687 41.2109 12.8125C41.4453 13.4766 41.5625 14.1406 41.5625 14.8828V35.0781C41.5625 38.6719 38.6719 41.5625 35.1172 41.5625ZM37.1875 27.8516H33.7109L35.7812 31.4844H37.1875C38.2031 31.4844 38.9844 30.6641 38.9844 29.6875C38.9844 28.6719 38.2031 27.8516 37.1875 27.8516ZM8.4375 35.0781V14.8828C8.4375 11.2891 11.3281 8.39844 14.9219 8.39844H33.8281C33.9453 8.82813 34.0234 9.25781 34.0625 9.72656C34.1406 10.3516 33.2422 12.3438 33.125 12.5781C32.2656 14.2969 30.4688 17.6953 29.4922 19.4141C29.2578 19.8828 28.6719 20.5859 28.6328 20.6641C28.6328 20.6641 28.5938 20.7031 28.5547 20.7813L27.6953 19.2969L25.625 22.9297L26.4844 24.4141C25.8984 25.4297 25.2344 26.6016 24.4922 27.8125H12.8125C11.7969 27.8125 11.0156 28.6328 11.0156 29.6094C11.0156 30.625 11.8359 31.4063 12.8125 31.4063H22.3828C19.8828 35.7031 17.4219 39.9609 16.5625 41.4844H14.9219C11.3672 41.5625 8.4375 38.6719 8.4375 35.0781ZM24.2578 13.3984C23.75 12.5391 22.6562 12.2266 21.7969 12.7344C20.9375 13.2422 20.625 14.3359 21.1328 15.1953L22.4219 17.4609L24.4922 13.8281L24.2578 13.3984ZM22.2266 26.875L28.9844 15.1562C29.4922 14.2969 29.1797 13.2031 28.3203 12.6953C27.4609 12.1875 26.3672 12.5 25.8594 13.3594L18.0469 26.875H22.2266ZM16.8359 36.2891L19.0625 32.4219H14.8828L13.6719 34.4922C13.1641 35.3516 13.4766 36.4453 14.3359 36.9531C15.1953 37.4609 16.3281 37.1484 16.8359 36.2891Z" fill="#069CEC"/>
<path d="M27.0312 3.63281C27.0312 3.32031 27.3828 3.08594 28.1641 2.77344C28.9453 2.46094 30.1562 2.14844 31.875 2.14844C36.9141 2.14844 40.1953 4.10156 42.2656 5.19531C43.5547 5.89844 43.7109 7.03125 44.7266 7.77344C45.4297 8.28125 46.3672 8.16406 47.1094 8.04688H47.1875C47.1875 8.04688 49.2578 9.10156 49.2578 9.14062C49.375 9.25781 48.9062 10.4297 48.2422 11.8359C47.5391 13.2812 46.875 14.375 46.7188 14.2969C46.6406 14.2578 44.4922 13.0859 44.4922 13.0859C44.4922 13.0859 44.4141 12.6563 44.1797 12.3438C43.75 11.7578 43.0078 11.0547 42.1875 11.0547C41.0937 11.0547 39.9609 11.9922 39.0625 13.0859C38.0078 14.2969 35.1953 20.1953 34.1406 22.4219C34.0625 22.6172 33.9063 23.4766 33.75 23.8281C33.4375 24.5312 23.8672 44.4531 23.0078 46.2109C22.6953 46.7969 22.0703 47.0703 21.2891 47.0703C19.7266 47.0703 17.1484 45.5859 17.1094 43.9844C17.1094 43.75 17.2656 43.0859 17.3828 42.7734C17.6172 42.1875 29.6094 21.6406 29.7656 21.3672C29.8047 21.2891 30.2344 20.8203 30.5078 20.3516C31.4453 18.5937 33.6719 14.4922 34.5313 12.8125C34.6484 12.5781 35.4297 10.5469 35.3906 9.92187C35.1172 7.14844 34.4141 4.0625 27.7344 3.86719C27.5 3.86719 27.0312 3.75 27.0312 3.63281Z" fill="#069CEC"/>
</svg>
