<svg width="50" height="50" viewBox="0 0 50 50" fill="none" xmlns="http://www.w3.org/2000/svg">
<rect x="0.5" y="0.5" width="49" height="49" rx="24.5" fill="white"/>
<path d="M9.505 24.3019L5.40188 19H9.90625L11.7919 22.0794L13.6419 19H17.9025L13.9038 24.3331L18.3563 30.3331H13.7294L11.5994 26.9519L9.39937 30.3331H5L9.505 24.3019ZM19.0837 19H24.5487L26.33 25.6669H26.365L28.1462 19H33.6112V30.3338H29.98V23.0637H29.945L27.78 30.3338H24.9163L22.75 23.0637H22.715V30.3338H19.0837V19ZM35.6413 19H39.4825V27.4294H45V30.3344H35.6413V19Z" fill="black"/>
<rect x="0.5" y="0.5" width="49" height="49" rx="24.5" stroke="black"/>
</svg>
